<?xml version="1.0" encoding="UTF-8"?>
<svg version="1.1" xmlns="http://www.w3.org/2000/svg" width="512" height="512">
<path d="M0 0 C1.93847924 3.78464994 1.80417501 7.38729257 1.3125 11.5625 C0.9825 12.2225 0.6525 12.8825 0.3125 13.5625 C0.9209375 13.39492188 1.529375 13.22734375 2.15625 13.0546875 C12.53642446 10.64282343 23.6032054 11.2999871 33.25 16.0625 C45.75862529 23.85691366 52.26786506 36.48513353 55.72265625 50.48828125 C59.12653258 68.22901419 59.87510841 86.15019191 54.125 103.5 C52.06642178 109.8211361 52.46936687 113.71053832 54.34375 120.05078125 C55.64921796 125.32518581 55.68041922 130.52778197 55.6875 135.9375 C55.71199219 136.91460937 55.73648437 137.89171875 55.76171875 138.8984375 C55.79331711 146.81909213 54.41162725 153.79714962 49.27734375 160.03515625 C48.60832031 160.55980469 47.93929688 161.08445313 47.25 161.625 C46.57839844 162.17285156 45.90679687 162.72070312 45.21484375 163.28515625 C41.85329318 165.54229596 39.05711009 165.67606636 35.125 165.625 C34.22394531 165.61597656 33.32289063 165.60695312 32.39453125 165.59765625 C31.36392578 165.58025391 31.36392578 165.58025391 30.3125 165.5625 C30.33344727 166.41779297 30.35439453 167.27308594 30.37597656 168.15429688 C30.83189153 189.58807165 30.50422629 207.54207848 19.3125 226.5625 C18.6525 227.2225 17.9925 227.8825 17.3125 228.5625 C21.45875134 230.13211852 25.60849824 231.67583315 29.79296875 233.140625 C45.44412259 238.66417392 59.82514108 245.1437336 71.3125 257.5625 C71.80492187 258.06136719 72.29734375 258.56023437 72.8046875 259.07421875 C79.85591179 266.59903273 81.89274128 274.47795476 81.79174805 284.65332031 C81.45450082 292.8288928 78.49133025 298.72550265 74.3125 305.5625 C75.60220703 306.43648438 75.60220703 306.43648438 76.91796875 307.328125 C113.17881349 332.31528444 135.25185366 369.69381341 143.90576172 412.49682617 C145.44753623 421.23102694 145.68490641 429.86081214 145.68310547 438.7043457 C145.68755116 441.15317826 145.72421773 443.60030403 145.76171875 446.04882812 C145.76757592 447.61718143 145.77155266 449.18554314 145.7734375 450.75390625 C145.78780853 451.47993546 145.80217957 452.20596466 145.81698608 452.95399475 C145.78789457 456.16175083 145.62322064 458.14375996 143.68701553 460.75307035 C140.57065581 463.12780052 138.73238479 463.06368762 134.83441162 463.06586456 C134.18265913 463.07167833 133.53090665 463.07749209 132.85940409 463.08348203 C130.66598788 463.0981305 128.47368228 463.08417559 126.28027344 463.07043457 C124.69574281 463.07504161 123.11121645 463.0813932 121.52669907 463.08934355 C117.16513883 463.10608726 112.80392736 463.09776776 108.44236565 463.08539867 C103.7415413 463.07637104 99.04077812 463.09030651 94.33996582 463.10131836 C85.12816936 463.11913268 75.91650305 463.11525065 66.70470142 463.1036678 C59.22007489 463.09464519 51.7354849 463.09340439 44.25085449 463.09776306 C43.18681263 463.09837599 42.12277076 463.09898893 41.0264852 463.09962043 C38.86510625 463.10089929 36.70372731 463.10219615 34.54234838 463.1035108 C14.26087581 463.11492513 -6.02052453 463.10178952 -26.30198526 463.08030933 C-43.71568262 463.06243759 -61.12927332 463.06554145 -78.54296875 463.08398438 C-98.7503879 463.10537603 -118.95774369 463.11382641 -139.16517258 463.10153532 C-141.31873321 463.10026108 -143.47229384 463.0990036 -145.62585449 463.09776306 C-147.21536781 463.09683741 -147.21536781 463.09683741 -148.8369925 463.09589306 C-156.31521258 463.09243504 -163.79339257 463.09827822 -171.27160645 463.10768127 C-180.38137126 463.11888371 -189.49099816 463.11589826 -198.60074711 463.0945583 C-203.25135962 463.08402418 -207.90174194 463.0799661 -212.55235291 463.09315491 C-216.80606974 463.10503597 -221.05934207 463.09858762 -225.31301832 463.0772447 C-226.85535093 463.07276035 -228.39772076 463.07508577 -229.94002962 463.08474785 C-232.03036395 463.09684302 -234.11915884 463.08451004 -236.20941162 463.06586456 C-237.3722253 463.06521515 -238.53503899 463.06456574 -239.73308945 463.06389666 C-243.34063274 462.45165604 -244.52383166 461.47055551 -246.6875 458.5625 C-247.08799016 455.85314626 -247.2484986 453.55836266 -247.21875 450.8515625 C-247.22714149 449.71731339 -247.22714149 449.71731339 -247.23570251 448.56015015 C-247.24413673 446.1018511 -247.21893532 443.64559339 -247.1875 441.1875 C-247.18162872 440.34993164 -247.17575745 439.51236328 -247.16970825 438.64941406 C-246.84228818 398.97503589 -233.21383609 362.18880732 -206.6875 332.5625 C-205.96046875 331.70269531 -205.2334375 330.84289062 -204.484375 329.95703125 C-195.27595612 319.23092852 -183.99027248 309.58086014 -171.6875 302.5625 C-171.0275 302.5625 -170.3675 302.5625 -169.6875 302.5625 C-170.0484375 301.881875 -170.409375 301.20125 -170.78125 300.5 C-175.55123122 290.53603923 -176.91343317 279.81392824 -173.1875 269.1875 C-164.83292067 251.86915326 -146.9428291 241.45331632 -129.39453125 235.28515625 C-123.51944044 233.29092676 -117.6149948 231.39472848 -111.6875 229.5625 C-111.6875 226.54070104 -113.33677329 224.78896778 -114.9375 222.25 C-121.04269027 211.97993297 -123.83436503 201.10383835 -123.78515625 189.1953125 C-123.7837413 188.51572479 -123.78232635 187.83613708 -123.78086853 187.13595581 C-123.77531518 184.98642388 -123.76277169 182.83699992 -123.75 180.6875 C-123.74497896 179.22135568 -123.74041711 177.75520971 -123.73632812 176.2890625 C-123.72536111 172.71350717 -123.70812919 169.13801414 -123.6875 165.5625 C-124.37166992 165.57482666 -125.05583984 165.58715332 -125.76074219 165.59985352 C-126.65954102 165.60944092 -127.55833984 165.61902832 -128.484375 165.62890625 C-129.82000488 165.64739624 -129.82000488 165.64739624 -131.18261719 165.66625977 C-136.37210439 165.45129563 -139.46216339 163.02982258 -142.875 159.375 C-148.90354169 152.54929577 -149.13994061 144.69403671 -149 136.0625 C-149.00322266 135.06863281 -149.00644531 134.07476562 -149.00976562 133.05078125 C-148.96716448 127.18731475 -148.29351768 122.19258445 -146.6875 116.5625 C-145.46097182 111.527955 -146.074977 108.48917242 -147.625 103.5625 C-153.01620002 84.25549414 -150.0773965 64.51216417 -140.8046875 46.921875 C-137.13321881 41.09629737 -132.60406488 36.35043382 -127.6875 31.5625 C-127.006875 30.88445313 -126.32625 30.20640625 -125.625 29.5078125 C-116.88298266 21.31217125 -104.92886918 13.84904095 -92.61328125 14.1171875 C-88.16829296 14.79372777 -84.03741052 16.3061264 -79.86499023 17.95898438 C-76.28420959 19.34314286 -76.28420959 19.34314286 -72.55078125 19.0234375 C-69.09740679 16.31576025 -66.22212056 13.06453856 -63.22265625 9.875 C-58.38224129 5.45970623 -52.65741499 4.87712999 -46.3984375 3.8359375 C-45.49936676 3.68339508 -44.60029602 3.53085266 -43.67398071 3.37368774 C-41.77321316 3.0531852 -39.87194253 2.73565384 -37.97021484 2.42089844 C-35.09150516 1.94232202 -32.21573754 1.44830548 -29.33984375 0.953125 C-5.68935476 -3.04314324 -5.68935476 -3.04314324 0 0 Z " fill="#010100" transform="translate(301.6875,25.4375)"/>
<path d="M0 0 C6.4735344 -0.30297353 12.05150232 0.64808297 17.56640625 4.1953125 C20.56273843 7.30709006 23.03606976 10.70265565 25.56640625 14.1953125 C28.71520776 17.83112865 31.77761866 20.69731472 36.64453125 21.56640625 C41.78060913 21.7234446 45.4038912 20.96228717 49.66015625 18.0234375 C52.76789757 15.04306263 54.72833786 11.41833719 56.90234375 7.73046875 C59.69838948 3.47076527 62.74844135 1.8013008 67.56640625 0.1953125 C69.79105348 0.0193028 72.02276187 -0.07213783 74.25390625 -0.1171875 C75.43339844 -0.15457031 76.61289062 -0.19195312 77.828125 -0.23046875 C82.32436828 -0.05888621 86.52866791 1.10036519 90.86254883 2.22192383 C91.60429604 2.41078407 92.34604324 2.59964432 93.11026764 2.7942276 C94.92981194 3.25800608 96.74822546 3.72621705 98.56640625 4.1953125 C98.68367269 18.05213852 98.77127145 31.90888659 98.82546711 45.76610851 C98.85148706 52.20158871 98.88674654 58.63673399 98.94360352 65.07202148 C98.99819375 71.29013137 99.02788388 77.50792044 99.04079247 83.7262516 C99.04998391 86.09077309 99.06793203 88.45527833 99.09505653 90.81966209 C99.30980759 110.32653981 97.17988904 123.76108887 83.35546875 138.5625 C68.75828077 152.57774028 52.82352873 158.84595549 32.8203125 158.5390625 C26.26809071 158.26019511 21.25056685 156.39741788 15.56640625 153.1953125 C14.64988281 152.74929688 13.73335937 152.30328125 12.7890625 151.84375 C-3.01329987 143.90932401 -13.61182703 132.32474398 -20.43359375 116.1953125 C-21.21885942 112.92234358 -21.55779754 109.89273675 -21.55384827 106.53190613 C-21.55522293 105.62471832 -21.5565976 104.71753052 -21.55801392 103.78285217 C-21.55441864 102.80029953 -21.55082336 101.81774689 -21.54711914 100.80541992 C-21.54733818 99.23887665 -21.54733818 99.23887665 -21.54756165 97.64068604 C-21.54686584 94.19402987 -21.53908893 90.74742796 -21.53125 87.30078125 C-21.52938464 84.90896128 -21.52796129 82.51714092 -21.52696228 80.12532043 C-21.52314639 73.83382103 -21.51332399 67.54234476 -21.5022583 61.25085449 C-21.49202426 54.82934889 -21.48746039 48.40783954 -21.48242188 41.98632812 C-21.47170091 29.38931306 -21.45482815 16.79231401 -21.43359375 4.1953125 C-19.86187926 3.70575899 -18.28866238 3.22102754 -16.71484375 2.73828125 C-15.83892578 2.46781982 -14.96300781 2.1973584 -14.06054688 1.91870117 C-9.39643406 0.63433628 -4.79693821 0.38498702 0 0 Z " fill="#FCBE9F" transform="translate(216.43359375,112.8046875)"/>
<path d="M0 0 C0.00808685 0.88061096 0.01617371 1.76122192 0.02450562 2.66851807 C0.10244513 10.96730349 0.18973394 19.26592655 0.28752708 27.56450272 C0.33747375 31.83089191 0.38380392 36.09725653 0.421875 40.36376953 C0.45874843 44.48116346 0.50511394 48.59835107 0.55806351 52.71556854 C0.57659653 54.28639863 0.59170854 55.85727293 0.60334396 57.42816925 C0.62022528 59.62843453 0.64926417 61.82822844 0.68115234 64.02832031 C0.69447601 65.28074524 0.70779968 66.53317017 0.7215271 67.82354736 C0.98439166 70.8219606 1.32415588 72.53299973 3 75 C5.77100394 76.38550197 7.9334706 76.1877467 11 76 C14.24849977 74.27773504 14.24849977 74.27773504 15 71 C15.11812495 68.74660334 15.17696645 66.48995504 15.20532227 64.23364258 C15.21522186 63.55045456 15.22512146 62.86726654 15.23532104 62.16337585 C15.26688679 59.90712947 15.2916739 57.65086203 15.31640625 55.39453125 C15.33698004 53.82939611 15.35797662 52.26426648 15.37937927 50.69914246 C15.43455609 46.58102884 15.48398471 42.46286544 15.53222656 38.34466553 C15.58247365 34.14184136 15.63814297 29.93908942 15.69335938 25.73632812 C15.80088726 17.4909465 15.90234413 9.24550442 16 1 C17.62023312 1.12390798 19.23965136 1.25850742 20.85864258 1.39770508 C21.76052811 1.47152908 22.66241364 1.54535309 23.59162903 1.62141418 C26 2 26 2 28.26171875 3.63671875 C28.73222656 4.31347656 29.20273438 4.99023438 29.6875 5.6875 C31.88319025 8.74369835 31.88319025 8.74369835 34.68527317 11.21310616 C39.6095094 14.75819204 39.6095094 14.75819204 40.63841057 18.03022385 C40.86007972 20.45208385 40.86674249 22.78717516 40.79467773 25.21826172 C40.79552148 26.1408182 40.79636522 27.06337467 40.79723454 28.01388741 C40.79202793 30.98704188 40.73882435 33.95708619 40.68359375 36.9296875 C40.6732957 38.77024864 40.66615818 40.61083026 40.66223145 42.45141602 C40.62560098 49.25959093 40.52787139 56.06732636 40.4375 62.875 C40.293125 78.09625 40.14875 93.3175 40 109 C0.4 109 -39.2 109 -80 109 C-80 80.8002952 -74.31111277 55.40842624 -55 34 C-54.4121875 33.27167969 -53.824375 32.54335938 -53.21875 31.79296875 C-42.03070379 18.25827725 -18.56759461 0 0 0 Z " fill="#FCD734" transform="translate(191,363)"/>
<path d="M0 0 C0.00142502 0.86586227 0.00285004 1.73172455 0.00431824 2.62382507 C0.0221592 10.7899968 0.06380489 18.95562722 0.13209057 27.12153912 C0.16635918 31.31962392 0.19147027 35.51734488 0.19555664 39.71557617 C0.19983999 43.76836752 0.22830446 47.82033814 0.27343178 51.87287331 C0.28640583 53.41774525 0.29071474 54.96271543 0.28615379 56.50763512 C0.2812465 58.67485162 0.30733839 60.83967041 0.34057617 63.0065918 C0.34723801 64.23903122 0.35389984 65.47147064 0.36076355 66.74125671 C1.17708867 70.90277472 2.69237841 72.42426568 6 75 C9.14710302 75.25329784 9.14710302 75.25329784 12 74 C15.33597557 70.673665 15.38982519 67.89887936 15.43237305 63.30371094 C15.4425647 62.63988403 15.45275635 61.97605713 15.46325684 61.29211426 C15.49336097 59.10611504 15.50264832 56.92055418 15.51171875 54.734375 C15.52856745 53.21550035 15.54671795 51.69663963 15.56611633 50.17779541 C15.61360218 46.18628288 15.64342047 42.19482682 15.66955566 38.203125 C15.69936847 34.12749072 15.74589629 30.05205099 15.79101562 25.9765625 C15.87703256 17.98447061 15.94438478 9.99236099 16 2 C17.58199191 2.45436648 19.16242035 2.91417845 20.7421875 3.3762207 C21.62245605 3.63168167 22.50272461 3.88714264 23.40966797 4.15034485 C27.20689878 5.39587503 30.55812779 7.18031861 34 9.1875 C34.68932617 9.58477295 35.37865234 9.9820459 36.08886719 10.39135742 C41.84056188 13.77617447 47.05961692 17.49717098 52 22 C52.4738916 22.43151367 52.9477832 22.86302734 53.43603516 23.30761719 C72.2010128 40.62079399 85.16285287 64.46567584 88 90 C88 95.94 88 101.88 88 108 C51.04 108 14.08 108 -24 108 C-24.2475 92.881875 -24.495 77.76375 -24.75 62.1875 C-24.85924805 57.43239014 -24.96849609 52.67728027 -25.08105469 47.77807617 C-25.13525391 41.92443848 -25.13525391 41.92443848 -25.14532471 39.17500305 C-25.16362843 37.27430915 -25.20558213 35.37374577 -25.26690674 33.47395325 C-25.78478137 16.57017432 -25.78478137 16.57017432 -21.31896973 11.33462524 C-18.45747959 8.51764389 -15.28205175 6.29845617 -12 4 C-11.34 3.01 -10.68 2.02 -10 1 C-6.62851623 -0.00233301 -3.49306726 -0.02925517 0 0 Z " fill="#FCD734" transform="translate(303,364)"/>
<path d="M0 0 C3.22711268 1.0500563 6.32373117 2.14126451 9.4375 3.5 C17.2027576 6.76958215 23.73069401 7.38687667 32.125 7.375 C33.79526245 7.37367065 33.79526245 7.37367065 35.49926758 7.37231445 C45.06586177 7.23458011 52.62859288 5.74131496 61.20703125 1.36328125 C64 0 64 0 66 0 C65.8541748 1.25925293 65.70834961 2.51850586 65.55810547 3.81591797 C64.5271397 13.25451849 63.82777642 22.57106749 63.9453125 32.0703125 C63.95632996 32.98069275 63.96734741 33.891073 63.97869873 34.82904053 C64.03346496 38.53718057 64.10416939 42.24464062 64.19189453 45.95214844 C64.47972086 59.04711329 64.45566814 70.48889817 55.8515625 81.2109375 C49.25900627 87.58096019 42.30829103 90.20530051 33.375 90.3125 C32.20130859 90.35600586 32.20130859 90.35600586 31.00390625 90.40039062 C22.78381638 90.48899856 16.63192737 87.2177357 10.6015625 81.765625 C3.51669477 73.95499034 1.67351406 64.82873475 1.875 54.6484375 C1.88635986 53.30635727 1.88635986 53.30635727 1.89794922 51.93716431 C1.93018476 48.14829607 1.98559216 44.35987907 2.04101562 40.57128906 C2.22329127 26.90541256 1.56062339 13.58055864 0 0 Z " fill="#FBA77F" transform="translate(222,279)"/>
<path d="M0 0 C0.71542969 0.42410156 1.43085938 0.84820312 2.16796875 1.28515625 C9.68697289 5.71096076 17.29352602 9.91059687 25 14 C22.06641017 16.38120904 18.94425526 18.17093645 15.62011719 19.9543457 C-13.75600291 35.77520583 -33.86168097 60.96586526 -43.80859375 92.78125 C-44.21511476 94.18481556 -44.61237613 95.59109854 -45 97 C-45.185625 97.67216553 -45.37125 98.34433105 -45.5625 99.03686523 C-47.28739061 105.95639169 -47.66471545 112.96581766 -48.125 120.0625 C-48.21136719 121.30966797 -48.29773438 122.55683594 -48.38671875 123.84179688 C-48.59722367 126.89411817 -48.79945407 129.9470082 -49 133 C-56.92 133 -64.84 133 -73 133 C-74.05189719 92.23898383 -60.69747062 55.81427772 -32.93359375 25.61328125 C-23.25655073 15.42439958 -12.07765281 7.1479986 0 0 Z " fill="#F27D16" transform="translate(144,339)"/>
<path d="M0 0 C0.48657227 1.99023438 0.48657227 1.99023438 0.81640625 4.59375 C0.94080078 5.5425 1.06519531 6.49125 1.19335938 7.46875 C1.31517578 8.4690625 1.43699219 9.469375 1.5625 10.5 C1.68818359 11.469375 1.81386719 12.43875 1.94335938 13.4375 C2.19242093 15.37783292 2.43426513 17.31910568 2.66894531 19.26123047 C2.87108017 20.93346416 3.08180723 22.60472422 3.30761719 24.27392578 C4.14496359 30.80433376 4.15110381 37.29823936 4.125 43.875 C4.12306641 45.05360596 4.12113281 46.23221191 4.11914062 47.4465332 C4.0708761 57.32132112 3.67189724 67.1495065 3 77 C-18.81130073 74.99907726 -43.02698967 66.63992749 -58 50 C-61.14844804 45.66268486 -62.70593186 41.39455425 -62.37890625 36.00390625 C-60.77419623 27.51714087 -54.97074143 21.79039775 -48.1484375 16.99609375 C-38.98236487 11.1195484 -11.29576699 -5.6478835 0 0 Z " fill="#FCEB57" transform="translate(205,270)"/>
<path d="M0 0 C19.02541229 3.44994143 44.90148975 10.74718202 57 27 C59.93073354 31.36079026 61.77555571 35.5352666 61.4375 40.93359375 C59.67030626 49.28042846 53.75719948 55.23986758 47 60 C32.5893387 68.94027037 12.38794621 79 -5 79 C-5.92966666 21.48978767 -5.92966666 21.48978767 -1 1 C-0.67 0.67 -0.34 0.34 0 0 Z " fill="#FCEC57" transform="translate(306,269)"/>
<path d="M0 0 C29.2974695 15.9157725 52.32906679 48.70914982 61.69140625 80.125 C61.98273438 81.20523438 62.2740625 82.28546875 62.57421875 83.3984375 C62.86554688 84.41679687 63.156875 85.43515625 63.45703125 86.484375 C67.35974472 100.92062581 67.77777485 114.5388424 67.57421875 129.3984375 C59.65421875 129.3984375 51.73421875 129.3984375 43.57421875 129.3984375 C43.49171875 126.4903125 43.40921875 123.5821875 43.32421875 120.5859375 C41.81528648 86.44704617 27.46200898 55.76183281 2.57421875 32.3984375 C-4.96437044 25.96589614 -12.85602992 20.74679553 -21.52734375 15.9921875 C-24.42578125 14.3984375 -24.42578125 14.3984375 -27.42578125 12.3984375 C-26.45898438 11.96273438 -25.4921875 11.52703125 -24.49609375 11.078125 C-23.18040105 10.47785079 -21.86533972 9.87619154 -20.55078125 9.2734375 C-19.86838379 8.96156494 -19.18598633 8.64969238 -18.48291016 8.32836914 C-13.55208155 6.03254282 -9.03060662 3.4046392 -4.57421875 0.26953125 C-2.42578125 -0.6015625 -2.42578125 -0.6015625 0 0 Z " fill="#F27D16" transform="translate(363.42578125,342.6015625)"/>
<path d="M0 0 C5.28 0 10.56 0 16 0 C16 28.71 16 57.42 16 87 C10.72 87 5.44 87 0 87 C0 58.29 0 29.58 0 0 Z " fill="#FDFBE6" transform="translate(247,385)"/>
<path d="M0 0 C2.97 0 5.94 0 9 0 C9.02886751 4.14581887 9.04675327 8.29161216 9.0625 12.4375 C9.07087891 13.62150391 9.07925781 14.80550781 9.08789062 16.02539062 C9.09111328 17.15009766 9.09433594 18.27480469 9.09765625 19.43359375 C9.10289307 20.47572021 9.10812988 21.51784668 9.11352539 22.59155273 C9 25 9 25 8 26 C5.125 26.375 5.125 26.375 2 26 C-1.36064435 21.95159588 -1.39874299 18.03866871 -1.25 13 C-1.24484375 12.30132812 -1.2396875 11.60265625 -1.234375 10.8828125 C-1.17796354 7.14555306 -0.88015385 3.63418363 0 0 Z " fill="#DE9470" transform="translate(170,149)"/>
<path d="M0 0 C2.05078125 0.03255208 4.1015625 0.06510417 6.15234375 0.09765625 C7.20021929 4.42436815 7.36965141 8.66784374 7.40234375 13.09765625 C7.42296875 13.79632813 7.44359375 14.495 7.46484375 15.21484375 C7.49848912 19.67285528 7.03295488 22.6275247 4.15234375 26.09765625 C1.02734375 26.47265625 1.02734375 26.47265625 -1.84765625 26.09765625 C-3.56333417 24.38197833 -2.9778145 22.1239289 -2.98046875 19.78515625 C-2.98175781 18.71007812 -2.98304688 17.635 -2.984375 16.52734375 C-2.97857422 14.82964844 -2.97857422 14.82964844 -2.97265625 13.09765625 C-2.97652344 11.96585938 -2.98039062 10.8340625 -2.984375 9.66796875 C-2.98308594 8.59289062 -2.98179687 7.5178125 -2.98046875 6.41015625 C-2.97934082 5.41628906 -2.97821289 4.42242187 -2.97705078 3.3984375 C-2.79423054 0.1476866 -2.79423054 0.1476866 0 0 Z " fill="#DF9571" transform="translate(333.84765625,148.90234375)"/>
<path d="M0 0 C0.99 0 1.98 0 3 0 C3 5.28 3 10.56 3 16 C2.01 16 1.02 16 0 16 C0 10.72 0 5.44 0 0 Z " fill="#1E130F" transform="translate(335,151)"/>
<path d="M0 0 C0.99 0 1.98 0 3 0 C3 5.28 3 10.56 3 16 C2.01 16 1.02 16 0 16 C0 10.72 0 5.44 0 0 Z " fill="#201510" transform="translate(172,151)"/>
</svg>
