<?xml version="1.0" encoding="UTF-8"?>
<svg version="1.1" xmlns="http://www.w3.org/2000/svg" width="512" height="512">
<path d="M0 0 C1.00615506 -0.00307895 1.00615506 -0.00307895 2.03263649 -0.0062201 C4.28444825 -0.01188284 6.5361987 -0.01043375 8.78801632 -0.00901413 C10.41720094 -0.01159819 12.04638493 -0.01461147 13.67556804 -0.01801753 C18.15613034 -0.02608613 22.63667662 -0.02787703 27.11724532 -0.028615 C31.94838397 -0.03046582 36.77951431 -0.03801336 41.61064816 -0.04475021 C52.17693539 -0.05833361 62.74321882 -0.06435842 73.30951333 -0.06876087 C79.90800987 -0.07152358 86.50650495 -0.07576102 93.1050005 -0.08026505 C111.37622549 -0.09245829 129.64744931 -0.10275713 147.91867828 -0.10614014 C149.08815799 -0.1063597 150.25763769 -0.10657927 151.46255618 -0.10680549 C153.22096627 -0.10713291 153.22096627 -0.10713291 155.01489979 -0.10746694 C157.39035738 -0.1079104 159.76581496 -0.10835696 162.14127254 -0.10880661 C163.90873487 -0.10913875 163.90873487 -0.10913875 165.71190351 -0.10947761 C184.79914912 -0.11342451 203.88635654 -0.13087502 222.9735874 -0.15416613 C242.57274024 -0.17788872 262.17187391 -0.19034242 281.77104133 -0.19150805 C292.77414272 -0.19242436 303.77719435 -0.19816552 314.78028202 -0.21632767 C324.15106918 -0.23174096 333.5217912 -0.23684189 342.89258862 -0.22858956 C347.67176294 -0.22468728 352.45080614 -0.22559206 357.22996426 -0.23964691 C361.61042024 -0.25241112 365.9906469 -0.25116624 370.37110268 -0.2390562 C371.95056629 -0.23710355 373.53004627 -0.24015756 375.10948689 -0.24890056 C395.53744763 -0.35476382 410.5734552 5.3799207 425.57364559 19.30330276 C430.24624204 24.06376 433.59282159 29.10639007 436.60880184 35.00642776 C436.93058407 35.62968948 437.25236629 36.2529512 437.5838995 36.89509964 C442.35594675 46.79753932 443.6801759 56.90437812 443.6214819 67.7867775 C443.6295602 69.61162982 443.6295602 69.61162982 443.63780171 71.47334784 C443.64954796 74.81512072 443.64805074 78.15638875 443.64063489 81.49814045 C443.6358747 85.11586008 443.64843816 88.73352797 443.65865231 92.35123062 C443.6757907 99.4252929 443.67669059 106.49926616 443.6714394 113.57334379 C443.66738684 119.32760996 443.66885411 125.08184995 443.67418766 130.83611488 C443.67493608 131.65721581 443.6756845 132.47831674 443.67645561 133.32429951 C443.67798719 134.99274114 443.67952554 136.66118276 443.68107057 138.32962438 C443.69477792 153.95316383 443.68937058 169.57665311 443.67788536 185.2001914 C443.66795698 199.46743536 443.68088996 213.73454956 443.70481955 228.00177351 C443.7292514 242.67997039 443.73880827 257.35810694 443.73216683 272.03632373 C443.72868339 280.26554589 443.73084843 288.49466834 443.74841785 296.72387505 C443.76319115 303.72986214 443.76370882 310.73567931 443.74634694 317.74166325 C443.73787608 321.31020588 443.73559023 324.87844563 443.7509985 328.44697189 C443.84754318 352.56948552 441.82417217 372.47913336 424.06192684 390.47127151 C409.17660094 404.4725242 392.8151244 408.60515913 372.83780575 408.51237869 C371.20257728 408.51584114 369.56735116 408.52060963 367.93212986 408.52656043 C363.46732182 408.53901947 359.00270752 408.53292339 354.53789902 408.52360177 C349.71164645 408.51679063 344.8854263 408.52730272 340.05918026 408.53554153 C330.61587469 408.54885907 321.17264079 408.54600995 311.72933245 408.53730361 C304.05236983 408.53051968 296.37542725 408.52961342 288.69846249 408.53287506 C287.60450999 408.53333476 286.51055749 408.53379446 285.38345492 408.53426809 C283.1608901 408.5352273 280.93832528 408.53619994 278.71576047 408.53718586 C257.89036476 408.54573396 237.0650087 408.53591473 216.23961949 408.51978476 C198.38284271 408.50638212 180.52612444 408.50871037 162.66934872 408.52254105 C141.91684602 408.5386071 121.16437805 408.54491004 100.41187 408.53570426 C98.19762707 408.53474864 95.98338414 408.53380553 93.7691412 408.53287506 C92.1351023 408.53218082 92.1351023 408.53218082 90.46805251 408.53147256 C82.80314811 408.52888575 75.1382658 408.533247 67.47336483 408.54031372 C58.12835605 408.54874031 48.78342284 408.5464242 39.43842268 408.53047149 C34.67338338 408.5226044 29.90846994 408.51947051 25.14343166 408.52941895 C20.77619661 408.53839874 16.40920335 408.53337919 12.04199004 408.51748629 C10.46745089 408.51415235 8.89289104 408.5158011 7.31836534 408.52311365 C-13.08982159 408.6105785 -28.12071765 402.86913588 -43.10604191 388.95955276 C-47.77863836 384.19909553 -51.1252179 379.15646546 -54.14119816 373.25642776 C-54.46298038 372.63316605 -54.78476261 372.00990433 -55.11629581 371.36775589 C-59.88834307 361.46531621 -61.21257222 351.35847741 -61.15387821 340.47607803 C-61.15926375 339.25950982 -61.16464929 338.0429416 -61.17019802 336.78950769 C-61.18194428 333.44773481 -61.18044705 330.10646678 -61.17303121 326.76471508 C-61.16827101 323.14699545 -61.18083448 319.52932756 -61.19104862 315.91162491 C-61.20818701 308.83756263 -61.2090869 301.76358937 -61.20383572 294.68951174 C-61.19978316 288.93524557 -61.20125043 283.18100558 -61.20658398 277.42674065 C-61.2073324 276.60563972 -61.20808082 275.78453879 -61.20885192 274.93855602 C-61.21038351 273.27011439 -61.21192186 271.60167277 -61.21346689 269.93323115 C-61.22717423 254.3096917 -61.2217669 238.68620242 -61.21028168 223.06266413 C-61.20035329 208.79542017 -61.21328628 194.52830597 -61.23721587 180.26108202 C-61.26164772 165.58288514 -61.27120459 150.90474859 -61.26456314 136.2265318 C-61.26107971 127.99730964 -61.26324475 119.76818719 -61.28081417 111.53898048 C-61.29558746 104.53299339 -61.29610514 97.52717622 -61.27874326 90.52119227 C-61.2702724 86.95264965 -61.26798654 83.3844099 -61.28339481 79.81588364 C-61.37599186 56.67972079 -59.94964754 37.12215642 -43.23006535 19.38435745 C-31.53920613 7.63060189 -16.78232415 0.01751213 0 0 Z M-25.07869816 39.25642776 C-32.53283573 48.17423203 -34.93391281 58.45804972 -34.88645267 69.83830643 C-34.8873071 70.59480661 -34.88816152 71.35130679 -34.88904184 72.13073123 C-34.89068341 74.6549136 -34.885197 77.1790289 -34.87972355 79.70320511 C-34.87944137 81.51687493 -34.87960002 83.33054487 -34.88016605 85.14421463 C-34.88045281 90.06106792 -34.87457566 94.97789678 -34.8675921 99.8947444 C-34.86133838 105.03570017 -34.86075316 110.17665652 -34.85956669 115.31761551 C-34.85645933 125.0497289 -34.84825395 134.78183105 -34.8382172 144.5139395 C-34.82703759 155.59488201 -34.82154095 166.67582506 -34.81652176 177.7567718 C-34.80607085 200.54833002 -34.78848292 223.33987826 -34.76619816 246.13142776 C-28.90958251 241.27896692 -23.56624294 236.03625182 -18.22591496 230.62532425 C-17.28571561 229.67664036 -16.34524774 228.72822252 -15.40453434 227.78004837 C-13.39100669 225.74990053 -11.37888828 223.71837002 -9.36773586 221.68586922 C-6.18071398 218.46600904 -2.98754894 215.25228847 0.20699215 212.03989029 C1.01867469 211.22357806 1.01867469 211.22357806 1.84675485 210.39077467 C2.95258463 209.27863798 4.05842301 208.16650984 5.1642698 207.05439007 C12.59109153 199.58469678 20.01331927 192.11052843 27.4210577 184.62190628 C32.43178113 179.55656776 37.45145871 174.50028998 42.48141259 169.45404488 C45.13656569 166.78955814 47.78700488 164.12074287 50.42645359 161.44069099 C52.91011355 158.91892848 55.4054447 156.409313 57.90983868 153.9081459 C59.25225751 152.56138593 60.5822133 151.20223802 61.91161251 149.84262466 C71.05568936 140.75909346 80.98750773 135.85737367 94.04630184 135.81892776 C100.55507254 135.86457972 106.23050654 136.5479991 112.23380184 139.13142776 C112.95438778 139.42533401 113.67497372 139.71924026 114.41739559 140.02205276 C124.069453 144.6330178 131.38299441 153.81316344 138.21036434 161.82283401 C141.06258495 165.07700849 144.02483901 168.22441327 146.98380184 171.38142776 C153.11281218 177.9241119 159.18685514 184.5128347 165.23380184 191.13142776 C167.06633204 193.13216439 168.90007205 195.13179063 170.73380184 197.13142776 C171.65049061 198.13140751 172.5671573 199.13140749 173.48380184 200.13142776 C173.93755184 200.62642776 174.39130184 201.12142776 174.85880184 201.63142776 C183.56713518 211.13142776 192.27546851 220.63142776 200.98380184 230.13142776 C201.43787411 230.62675003 201.89194637 231.1220723 202.3597784 231.63240433 C203.27330788 232.62904096 204.18671999 233.62578517 205.10001278 234.6226387 C207.43871122 237.17500838 209.77963098 239.72528257 212.12442684 242.27205276 C217.23564281 247.82775997 222.30508724 253.41210024 227.23380184 259.13142776 C230.56272793 258.02178574 231.28449221 257.18046562 233.47208309 254.54939651 C237.00120635 250.39089906 240.6756662 246.40721788 244.42130184 242.44392776 C245.74330245 241.03934308 247.064912 239.63439023 248.38614559 238.22908401 C249.03567196 237.53830765 249.68519833 236.84753128 250.35440731 236.1358223 C253.07836631 233.23069065 255.78326227 230.30831443 258.48380184 227.38142776 C258.96792538 226.85967972 259.45204891 226.33793167 259.95084286 225.80037308 C262.36585018 223.19100798 264.74315632 220.55836552 267.06973934 217.86970901 C272.48039064 211.66955297 277.71062602 206.72836705 285.23380184 203.13142776 C285.87575497 202.80658401 286.51770809 202.48174026 287.17911434 202.14705276 C297.68252486 197.48863638 309.58318631 198.69124087 320.23380184 202.13142776 C333.49327847 207.82508949 344.02047413 220.76262634 354.09708309 230.86189651 C355.18403032 231.94816717 356.2711257 233.0342896 357.35835934 234.12027359 C359.61281514 236.37327156 361.86549474 238.62802565 364.11685848 240.88411331 C366.98214196 243.75512062 369.85193134 246.62157549 372.72305679 249.48673916 C374.95981909 251.71986714 377.19416884 253.95539683 379.42782307 256.19163322 C380.48469834 257.24916841 381.54229696 258.30598128 382.60067844 259.36200905 C387.83643088 264.58865648 392.98030892 269.84679911 397.79653072 275.46731949 C399.64685395 277.60966978 401.60139948 279.62846754 403.60098934 281.63142776 C404.71087215 282.74324417 404.71087215 282.74324417 405.84317684 283.87752151 C406.59083309 284.62131058 407.33848934 285.36509964 408.10880184 286.13142776 C409.2650909 287.29351761 409.2650909 287.29351761 410.44473934 288.47908401 C411.17692684 289.20998245 411.90911434 289.94088089 412.66348934 290.69392776 C413.32590633 291.35521683 413.98832333 292.01650589 414.67081356 292.69783401 C416.00314775 294.24408502 416.00314775 294.24408502 417.23380184 294.13142776 C417.30232012 264.78027951 417.35537235 235.42913696 417.38699783 206.07792501 C417.3907497 202.60845444 417.3946327 199.13898403 417.39859676 195.6695137 C417.39938369 194.9788388 417.40017063 194.2881639 417.4009814 193.57655945 C417.41401593 182.4104838 417.43765893 171.24445473 417.46526023 160.07840666 C417.49336893 148.61098212 417.50976524 137.14359529 417.51606733 125.6761353 C417.51997281 119.23925793 417.52913003 112.80248606 417.55099201 106.36564255 C417.57141986 100.30167418 417.57762287 94.23785434 417.57312489 88.17385483 C417.57394727 85.95355801 417.57987516 83.73325601 417.59141827 81.51298904 C417.67103341 65.40327917 417.62450441 50.54723627 406.22989559 37.90877151 C397.81725437 29.85731704 388.21509296 26.01243686 376.64942551 26 C375.99831675 25.99794737 375.347208 25.99589473 374.67636868 25.9937799 C372.49145857 25.988119 370.30661167 25.98956602 368.12169552 25.99098587 C366.54058309 25.98840171 364.95947132 25.98538841 363.37836045 25.98198247 C359.03075571 25.97391517 354.68316749 25.97212305 350.33555615 25.971385 C345.64760624 25.96953398 340.95966489 25.9619864 336.27171993 25.95524979 C326.01960659 25.94166789 315.76749717 25.93564198 305.51537633 25.93123913 C299.11388678 25.92847648 292.71239875 25.92423909 286.31091022 25.91973495 C268.58698051 25.90754251 250.86305201 25.89724312 233.13911819 25.89385986 C232.0047467 25.8936403 230.8703752 25.89342073 229.70162882 25.89319451 C228.56454388 25.89297623 227.42745895 25.89275796 226.25591689 25.89253306 C223.95175159 25.8920896 221.64758629 25.89164303 219.34342098 25.89119339 C218.20047552 25.89097196 217.05753006 25.89075053 215.87994989 25.89052239 C197.36040694 25.88657443 178.84090334 25.86912035 160.32137559 25.84583387 C141.30757879 25.82211888 122.29380173 25.80965795 103.2799899 25.80849195 C92.60447496 25.80757527 81.92901129 25.80182487 71.25351048 25.78367233 C62.16300473 25.76826938 53.07256611 25.76315206 43.9820498 25.77141044 C39.34489045 25.77531622 34.70786624 25.77439078 30.07072353 25.76035309 C25.82236657 25.74761008 21.57424626 25.7488152 17.32588961 25.7609438 C15.79222166 25.7629001 14.25853691 25.75982546 12.72489253 25.75109944 C-2.07180509 25.67226703 -14.44864697 28.24744417 -25.07869816 39.25642776 Z M73.30997372 174.50374222 C72.1270699 175.58641584 70.9436239 176.66849736 69.75968075 177.75003433 C58.90261644 187.70668094 48.24480672 197.8809398 37.63857937 208.10363865 C30.53075104 214.94893237 23.37750303 221.72387044 16.06387997 228.34944534 C-22.18014645 260.80346369 -22.18014645 260.80346369 -38.86933994 305.82709026 C-39.54544431 326.43567615 -38.11762973 354.43169178 -23.76229191 370.35408401 C-15.34965069 378.40553849 -5.74748927 382.25041867 5.81817818 382.26285553 C6.46928693 382.26490816 7.12039568 382.2669608 7.791235 382.26907563 C9.97614512 382.27473653 12.16099201 382.27328951 14.34590816 382.27186966 C15.92702059 382.27445382 17.50813236 382.27746712 19.08924323 382.28087306 C23.43684797 382.28894036 27.7844362 382.29073248 32.13204753 382.29147053 C36.81999744 382.29332155 41.50793879 382.30086913 46.19588375 382.30760574 C56.44799709 382.32118764 66.70010652 382.32721355 76.95222735 382.3316164 C83.3537169 382.33437905 89.75520493 382.33861644 96.15669346 382.34312057 C113.88062317 382.35531302 131.60455167 382.36561241 149.32848549 382.36899567 C150.46285698 382.36921523 151.59722848 382.3694348 152.76597487 382.36966102 C154.47160227 382.36998843 154.47160227 382.36998843 156.21168679 382.37032247 C158.51585209 382.37076593 160.8200174 382.3712125 163.1241827 382.37166214 C164.26712816 382.37188357 165.41007362 382.372105 166.58765379 382.37233314 C185.10719674 382.3762811 203.62670035 382.39373518 222.1462281 382.41702166 C241.1600249 382.44073665 260.17380195 382.45319758 279.18761379 382.45436358 C289.86312872 382.45528026 300.53859239 382.46103066 311.21409321 382.4791832 C320.30459895 382.49458615 329.39503757 382.49970347 338.48555388 382.49144509 C343.12271324 382.48753931 347.75973744 382.48846475 352.39688015 382.50250244 C356.64523711 382.51524545 360.89335742 382.51404033 365.14171407 382.50191173 C366.67538203 382.49995543 368.20906677 382.50303007 369.74271115 382.51175609 C383.49225187 382.58500956 394.87612133 380.50843473 405.46427059 371.16267776 C412.30442013 364.0786955 415.75433115 355.78118121 417.23380184 346.13142776 C417.40783031 345.08469894 417.58185879 344.03797012 417.76116085 342.95952225 C418.23680183 337.62202423 418.30994218 333.17615886 415.06531429 328.74574661 C411.97437946 325.09178912 408.49830218 321.84577073 405.01114559 318.57674026 C403.7468351 317.34115095 402.48569916 316.10230579 401.22759151 314.86040115 C397.92117106 311.61279295 394.57542963 308.40896563 391.21878719 305.21339798 C387.82598592 301.9705855 384.4691776 298.69102125 381.11075497 295.41267776 C377.32519341 291.7186346 373.53714312 288.02801368 369.71742916 284.36925125 C364.55871601 279.42074078 359.4955381 274.48049959 354.87102413 269.01848221 C351.58910679 265.23576025 348.01380658 261.72771223 344.48380184 258.17830276 C343.2583868 256.94433762 343.2583868 256.94433762 342.0082159 255.68544388 C340.29183311 253.9596741 338.5740383 252.23530761 336.85489559 250.51228714 C334.23437298 247.88200103 331.6247137 245.24123405 329.01505184 242.60017776 C327.3386285 240.91722841 325.66156679 239.23491466 323.98380184 237.55330276 C323.21068661 236.76784073 322.43757137 235.98237869 321.6410284 235.17311478 C316.99222688 230.5432263 312.44042095 226.06016185 305.82755184 224.60017776 C305.13661434 224.61049026 304.44567684 224.62080276 303.73380184 224.63142776 C303.04286434 224.62111526 302.35192684 224.61080276 301.64005184 224.60017776 C294.09957874 226.26495754 289.45811701 231.63872767 284.48380184 237.13142776 C283.78206844 237.89181351 283.08033504 238.65219925 282.357337 239.43562698 C280.30767731 241.65996558 278.26961399 243.89441971 276.23380184 246.13142776 C275.2371045 247.21800639 274.23979345 248.3040227 273.24161434 249.38924026 C271.5012292 251.28455584 269.76418578 253.18294599 268.03067684 255.08455276 C265.91161888 257.40217545 263.77186407 259.69945351 261.62442684 261.99080276 C261.00003719 262.65708694 260.37564754 263.32337112 259.732337 264.00984573 C258.51991582 265.30189426 257.30613699 266.59267071 256.09073544 267.88191605 C252.66702339 271.53078135 249.39860841 275.25542871 246.23380184 279.13142776 C250.37902344 284.03146968 254.64455768 288.77411891 259.04630184 293.44392776 C264.51565608 299.27593883 269.92104464 305.15589095 275.23380184 311.13142776 C275.9157159 311.88424026 276.59762997 312.63705276 277.30020809 313.41267776 C277.93829403 314.12424026 278.57637997 314.83580276 279.23380184 315.56892776 C280.06911434 316.49511917 280.06911434 316.49511917 280.92130184 317.44002151 C283.73150819 321.06150767 283.5322902 324.72872441 283.23380184 329.13142776 C281.90557415 332.96852999 280.88568418 334.67662613 277.54630184 337.00642776 C272.32905797 338.77832191 268.35185565 339.12285721 263.29630184 336.75642776 C259.68296377 333.97619177 256.7715244 330.45116612 253.78067684 327.03377151 C251.02378563 323.89209947 248.2014246 320.82023968 245.35880184 317.75642776 C244.33126052 316.64593346 243.30391725 315.53525587 242.27677059 314.42439651 C241.76936337 313.87573929 241.26195614 313.32708206 240.73917294 312.76179886 C237.01128742 308.72436462 233.30361155 304.66833192 229.59268856 300.61531448 C227.30737689 298.1197837 225.02050604 295.62568249 222.73380184 293.13142776 C221.81712781 292.13143452 220.90046114 291.13143452 219.98380184 290.13142776 C219.53005184 289.63642776 219.07630184 289.14142776 218.60880184 288.63142776 C209.90046851 279.13142776 201.19213518 269.63142776 192.48380184 260.13142776 C191.80293514 259.38868607 191.80293514 259.38868607 191.10831356 258.63093948 C190.19321551 257.63262115 189.27817629 256.6342489 188.36319637 255.6358223 C186.04801332 253.10964356 183.73176174 250.58445944 181.41348934 248.06111526 C177.22592406 243.50112798 173.04822955 238.93406873 168.92130184 234.31892776 C165.04212117 229.99241815 161.08214023 225.74614683 157.10880184 221.50642776 C153.05663095 217.18230622 149.0597942 212.83524629 145.19473934 208.34236526 C141.70695356 204.40992154 138.0863573 200.59966572 134.49210262 196.76472855 C130.44955371 192.44701544 126.46626289 188.08302748 122.52286434 183.67439651 C119.69785406 180.53603185 116.84484651 177.42443154 113.98380184 174.31892776 C113.48799618 173.77929398 112.99219051 173.23966019 112.48136044 172.68367386 C111.5277076 171.65041621 110.56988638 170.62098748 109.60758114 169.59578323 C108.28582575 168.18688171 106.98015493 166.76294297 105.67520809 165.33845901 C103.14319867 163.0495225 101.72770616 162.27241083 98.42130184 161.63142776 C97.63110653 161.45611526 96.84091122 161.28080276 96.02677059 161.10017776 C86.27026625 161.20934145 79.99955004 168.29480296 73.30997372 174.50374222 Z " fill="#000000" transform="translate(64.76619815826416,51.86857223510742)"/>
<path d="M0 0 C10.37227823 8.56764198 16.46984892 20.04202277 17.84814453 33.45703125 C18.89587264 48.69671287 15.82980289 62.61642588 5.7421875 74.50390625 C-4.0399474 84.78473823 -16.16441676 89.57012555 -30.34375 90.31640625 C-44.21199314 90.17343467 -56.14951044 86.32954037 -66.1875 76.61328125 C-78.05633444 63.98145031 -81.01773974 51.41415029 -80.68359375 34.43359375 C-80.13143049 21.78195248 -74.23524087 10.56429693 -65.0625 1.91015625 C-46.59509259 -13.34417183 -19.38784623 -13.99879029 0 0 Z M-49.375 24.28515625 C-54.20109792 30.74320057 -55.17281113 37.4226697 -54.375 45.28515625 C-52.53507004 52.50424451 -48.43693464 57.11757618 -42.375 61.28515625 C-37.33904807 63.80313221 -31.90103839 64.07227185 -26.375 63.28515625 C-19.09564918 60.82348899 -13.94990543 57.31982906 -10.4140625 50.40625 C-7.76300885 44.19208296 -7.41105582 38.55869822 -9.625 32.16015625 C-12.88787767 24.51185125 -16.68742686 20.46709878 -24.375 17.28515625 C-33.73720578 14.53366829 -42.58170919 17.53797374 -49.375 24.28515625 Z " fill="#000000" transform="translate(319.375,130.71484375)"/>
</svg>
