<?xml version="1.0" encoding="UTF-8"?>
<svg version="1.1" xmlns="http://www.w3.org/2000/svg" >
<path d="M0 0 C0.69963867 0.21962402 1.39927734 0.43924805 2.12011719 0.66552734 C20.56261412 6.6616728 35.9559672 16.71389912 50 30 C50.81210937 30.74765625 51.62421875 31.4953125 52.4609375 32.265625 C91.45798748 69.41738871 105.69403196 128.83795345 107.15103149 180.81225967 C107.28170424 186.25213695 107.37328223 191.69265116 107.46484375 197.13330078 C107.50246823 199.21191459 107.54041086 201.29052266 107.5786438 203.36912537 C107.659813 207.81862147 107.73876825 212.26814915 107.81594849 216.71771622 C107.93872714 223.79493975 108.06659246 230.87206616 108.19506836 237.94918823 C108.39841956 249.18332389 108.59843661 260.41751601 108.79700756 271.65173709 C109.15082563 291.66630007 109.50921236 311.68078092 109.87045002 331.69521129 C109.97614677 337.55804978 110.08105405 343.4209002 110.18405151 349.28378677 C110.38907127 360.94966583 110.60065124 372.61533338 110.83304691 384.28070295 C110.9469889 390.05404926 111.04562574 395.82738875 111.13179493 401.60121405 C111.18760061 405.16602052 111.25505154 408.73053884 111.32555962 412.29508185 C111.35547277 413.93315441 111.3804433 415.57132611 111.40001106 417.20955491 C111.42718033 419.43386701 111.47205225 421.65715471 111.52124023 423.881073 C111.54145737 425.11947874 111.5616745 426.35788448 111.58250427 427.63381767 C112.04114347 431.33173133 113.22477787 433.75331369 115 437 C115.92159288 443.22697892 115.78778402 449.64038804 112.4921875 455.140625 C91.07546818 481.82742708 41.07049059 487.17999782 9.67353821 490.7150116 C0.4177544 491.70164087 -8.75098713 492.1683547 -18.05859375 492.203125 C-19.2824025 492.20882507 -20.50621124 492.21452515 -21.7671051 492.22039795 C-24.35131991 492.22979379 -26.93554641 492.23636021 -29.51977539 492.24023438 C-33.36823089 492.24982733 -37.21612504 492.28085704 -41.06445312 492.3125 C-63.77368205 492.41031284 -86.39671094 490.83875756 -108.6875 486.3125 C-109.95875732 486.05903809 -111.23001465 485.80557617 -112.53979492 485.54443359 C-168.15563829 474.15281489 -168.15563829 474.15281489 -183.25 454.25 C-186.08210208 448.98736256 -185.86019181 442.77762166 -185 437 C-184.50516113 436.0710643 -184.01032227 435.1421286 -183.50048828 434.18504333 C-181.89764026 430.78272393 -181.5941214 428.62233612 -181.5234375 424.89086914 C-181.49318481 423.6621106 -181.46293213 422.43335205 -181.4317627 421.1673584 C-181.41259468 419.7899611 -181.39368538 418.41256018 -181.375 417.03515625 C-181.34392705 415.52906831 -181.31161257 414.02300559 -181.27819824 412.51696777 C-181.20694895 409.169061 -181.14534948 405.82114736 -181.09057617 402.47293091 C-180.99998326 396.93793791 -180.88819208 391.40347405 -180.77539062 385.86889648 C-180.48968263 371.57974611 -180.24437533 357.28990598 -180 343 C-179.98682739 342.22999664 -179.97365479 341.45999329 -179.96008301 340.66665649 C-179.82798178 332.94236072 -179.696153 325.21806031 -179.5647583 317.49375248 C-179.40678659 308.21012172 -179.24789055 298.92650826 -179.08691406 289.64292908 C-179.05426022 287.75831636 -179.02160641 285.87370364 -178.98895264 283.98909092 C-178.93976265 281.15027968 -178.89054347 278.31146896 -178.84122467 275.47265995 C-178.6443363 264.13218115 -178.45382814 252.79163388 -178.27390337 241.45087278 C-178.15833177 234.18291399 -178.03727011 226.91505925 -177.91233015 219.64725554 C-177.83948361 215.39507265 -177.76927632 211.14288853 -177.70619202 206.89054871 C-176.87747227 151.39036123 -171.09953215 93.61648755 -136 48 C-135.319375 47.09894531 -134.63875 46.19789062 -133.9375 45.26953125 C-116.60360615 23.18793486 -94.32288284 6.39632179 -67 -1 C-65.88882813 -1.31839844 -64.77765625 -1.63679687 -63.6328125 -1.96484375 C-43.84342862 -6.66319857 -19.39001371 -6.11076421 0 0 Z " fill="#49324C" transform="translate(291,12)"/>
<path d="M0 0 C13.34749723 11.41930634 23.50751068 24.63962554 32.24609375 39.8125 C32.89191406 40.9159375 33.53773438 42.019375 34.203125 43.15625 C45.13687248 62.38614712 51.75871018 83.43816666 55.87109375 105.0625 C56.07766602 106.14499023 56.28423828 107.22748047 56.49707031 108.34277344 C59.42625982 124.42711975 60.56205635 140.356053 60.84375 156.671875 C60.88235592 158.56303747 60.92164043 160.4541862 60.96154785 162.34532166 C61.06558882 167.37735323 61.15935574 172.40952571 61.25084305 177.44179916 C61.32855487 181.64114827 61.4125913 185.8403614 61.49662685 190.03958797 C62.06954746 218.7076448 62.52695546 247.37720978 62.89260101 276.04862309 C63.09375953 291.79858102 63.39410452 307.53549005 63.93945312 323.27734375 C64.60020467 344.44305729 64.32987261 365.6392457 64.24609375 386.8125 C63.13236097 385.86817517 62.02009827 384.92211639 60.90844727 383.9753418 C60.28889664 383.44869431 59.66934601 382.92204681 59.03102112 382.37944031 C56.61076749 380.25476395 54.40664797 377.95374618 52.18359375 375.625 C46.55690528 369.8837834 40.43651112 364.94966924 34.00927734 360.13574219 C32.33339689 358.87801966 30.67459869 357.6001937 29.015625 356.3203125 C17.2950448 347.45474542 4.17036813 340.72057208 -8.96875 334.21484375 C-23.2021047 327.1190937 -35.20306695 319.61697302 -40.75390625 303.8125 C-43.50509825 294.60364902 -43.50509825 294.60364902 -43.75390625 289.8125 C-41.62250844 286.24325446 -37.02728815 284.66729212 -33.44140625 282.75 C-27.79326831 279.64887202 -22.37710921 276.36615871 -17.12890625 272.625 C-16.29685669 272.03803345 -16.29685669 272.03803345 -15.44799805 271.43920898 C-12.54549945 269.32810062 -9.97085908 267.08120496 -7.48046875 264.51171875 C-4.75390625 261.8125 -4.75390625 261.8125 -2.75390625 261.8125 C-2.49867188 261.24273437 -2.2434375 260.67296875 -1.98046875 260.0859375 C-0.6161627 257.55719189 1.0021912 255.61912728 2.87109375 253.4375 C24.24004175 226.96782662 29.7428617 192.5129597 32.90478516 159.71240234 C33.21980085 157.0358956 33.67544454 154.44500608 34.24609375 151.8125 C34.83777344 152.0290625 35.42945313 152.245625 36.0390625 152.46875 C41.98270277 154.59010794 41.98270277 154.59010794 48.24609375 154.8125 C48.24609375 153.1625 48.24609375 151.5125 48.24609375 149.8125 C33.40784989 142.10939254 16.81032564 137.84334546 0.5078125 134.5390625 C-2.75390625 133.8125 -2.75390625 133.8125 -3.75390625 132.8125 C-3.92283231 130.54451124 -4.03524741 128.27234175 -4.12890625 126 C-5.1078567 107.35351699 -7.30323969 88.94565857 -10.87890625 70.625 C-11.0129184 69.93589539 -11.14693054 69.24679077 -11.28500366 68.5368042 C-12.01095931 61.6915902 -12.01095931 61.6915902 -14.75390625 55.8125 C-16.4200774 55.77186168 -18.0877872 55.769779 -19.75390625 55.8125 C-19.22298883 63.5879807 -18.27628197 71.14938663 -16.87890625 78.8125 C-15.27488152 88.03343481 -14.01553449 97.25800274 -13.00390625 106.5625 C-12.8764502 107.70332031 -12.74899414 108.84414062 -12.61767578 110.01953125 C-11.85777994 117.30941558 -11.60477524 124.48519661 -11.75390625 131.8125 C-12.66342041 131.72685791 -13.57293457 131.64121582 -14.51000977 131.55297852 C-18.01189734 131.2260356 -21.514195 130.90431895 -25.0168457 130.58569336 C-26.50888911 130.4489874 -28.00076416 130.31042634 -29.49243164 130.16967773 C-42.56435121 128.93849048 -55.63429404 128.2958188 -68.75390625 127.8125 C-68.76421371 126.90017105 -68.77452118 125.9878421 -68.78514099 125.04786682 C-68.88293886 116.46859996 -68.98542753 107.88940493 -69.09324551 99.31025791 C-69.14851457 94.899166 -69.20194079 90.48806751 -69.2512207 86.0769043 C-69.2988057 81.82343013 -69.35114611 77.57003911 -69.406847 73.31666374 C-69.42729723 71.69030757 -69.44600581 70.06392858 -69.46298027 68.43753242 C-69.48696552 66.16733637 -69.5170276 63.89729887 -69.54858398 61.62719727 C-69.56412827 60.33258072 -69.57967255 59.03796417 -69.59568787 57.70411682 C-69.42549367 54.91843983 -69.42549367 54.91843983 -70.75390625 53.8125 C-72.40390625 53.8125 -74.05390625 53.8125 -75.75390625 53.8125 C-76.08390625 78.2325 -76.41390625 102.6525 -76.75390625 127.8125 C-95.12890625 128.6875 -95.12890625 128.6875 -100.80224609 128.94873047 C-111.84740155 129.48267446 -122.78012057 130.45307831 -133.75390625 131.8125 C-134.44361913 110.90792951 -131.45081679 90.15020044 -127.62109375 69.640625 C-126.23534902 62.27417736 -126.23534902 62.27417736 -125.75390625 54.8125 C-128.74701048 54.97070897 -128.74701048 54.97070897 -131.75390625 56.8125 C-134.7079186 63.90004484 -135.60525939 72.00560401 -136.69140625 79.5625 C-136.85543945 80.68052002 -137.01947266 81.79854004 -137.18847656 82.95043945 C-139.57159387 99.8391441 -141.11816234 116.83836968 -142.75390625 133.8125 C-143.97827393 134.05484375 -145.2026416 134.2971875 -146.46411133 134.546875 C-155.98981409 136.46834661 -165.24732829 138.61673088 -174.44140625 141.8125 C-175.43333984 142.1425 -176.42527344 142.4725 -177.44726562 142.8125 C-183.14632597 144.74874346 -188.43861031 146.98776384 -193.75390625 149.8125 C-193.75390625 151.4625 -193.75390625 153.1125 -193.75390625 154.8125 C-188.74774979 154.29462175 -184.53559548 153.44457357 -179.75390625 151.8125 C-179.65891846 152.65619141 -179.56393066 153.49988281 -179.46606445 154.36914062 C-173.31439113 211.00326625 -173.31439113 211.00326625 -143.99609375 258.5078125 C-142.75390625 259.8125 -142.75390625 259.8125 -142.75390625 261.8125 C-142.16222656 262.080625 -141.57054687 262.34875 -140.9609375 262.625 C-138.7347587 263.8228024 -137.2615415 265.07186491 -135.44140625 266.8125 C-125.7502829 275.4588554 -114.27629686 281.94443598 -102.75390625 287.8125 C-102.00135288 299.10080055 -105.59715671 309.08750502 -112.75390625 317.8125 C-119.59724458 324.94892708 -126.98170376 329.45093714 -135.81640625 333.75 C-138.22277959 334.95560238 -140.62286893 336.17351439 -143.0234375 337.390625 C-144.757146 338.26557617 -144.757146 338.26557617 -146.52587891 339.15820312 C-168.56384748 350.45220366 -187.9432922 365.45006869 -205.1628418 383.20678711 C-206.34440144 384.42389482 -207.54694778 385.62057482 -208.75390625 386.8125 C-209.08390625 386.8125 -209.41390625 386.8125 -209.75390625 386.8125 C-210.05492374 345.13939692 -209.25803846 303.49031331 -208.4743017 261.82680357 C-208.3327542 254.28755302 -208.19584744 246.74822407 -208.0602327 239.20886475 C-207.89450108 229.99674014 -207.7257951 220.78467173 -207.55610919 211.5726192 C-207.50878155 208.99420039 -207.46194577 206.41577307 -207.41522408 203.83734322 C-207.11588131 187.37775644 -206.79444054 170.91846293 -206.34776485 154.46211803 C-206.30934572 153.03036653 -206.27240143 151.59857447 -206.23714936 150.16674149 C-204.87286674 95.45193182 -188.47590657 42.59205831 -149.26171875 3.31640625 C-107.94273955 -35.76728391 -42.99174236 -35.6916074 0 0 Z " fill="#5B4565" transform="translate(328.75390625,42.1875)"/>
<path d="M0 0 C0.37674893 8.65592299 -0.62629748 16.99991256 -1.91650391 25.53222656 C-2.24711392 27.73080736 -2.55990827 29.93140872 -2.87109375 32.1328125 C-4.74462334 45.00336547 -7.73916854 57.42091543 -12.3125 69.625 C-12.61172363 70.42494385 -12.91094727 71.2248877 -13.21923828 72.04907227 C-24.4226352 101.24180642 -45.10230034 118.34672959 -72 132.5625 C-72.94254639 133.06313965 -73.88509277 133.5637793 -74.85620117 134.07958984 C-86.0129041 139.81878435 -96.67596186 143.12574573 -109.23828125 140.26171875 C-138.39505424 130.83972983 -165.68183655 110.55963429 -179.96875 83.33984375 C-183.26447691 76.74396971 -185.87034539 69.9104241 -188.25 62.9375 C-188.48428711 62.25453857 -188.71857422 61.57157715 -188.95996094 60.86791992 C-192.71856665 49.32382354 -194.55362608 37.30907622 -196.1875 25.3125 C-196.36474609 24.08466797 -196.54199219 22.85683594 -196.72460938 21.59179688 C-197.72490045 14.34258315 -198.24498953 7.31683283 -198 0 C-180.22426498 -6.34847679 -161.4050297 -10.08484591 -142.625 -11.6875 C-141.90410187 -11.75037201 -141.18320374 -11.81324402 -140.44046021 -11.87802124 C-98.06714334 -15.4503546 -39.13555518 -19.56777759 0 0 Z " fill="#FBC9AE" transform="translate(355,191)"/>
<path d="M0 0 C0.67546875 0.20496094 1.3509375 0.40992188 2.046875 0.62109375 C2.93890625 0.89050781 3.8309375 1.15992188 4.75 1.4375 C5.63171875 1.70433594 6.5134375 1.97117187 7.421875 2.24609375 C8.27265625 2.49488281 9.1234375 2.74367188 10 3 C10.6290625 3.19335938 11.258125 3.38671875 11.90625 3.5859375 C20.948709 5.37418499 30.3339622 4.26641512 38.8125 0.875 C41 0 41 0 44 0 C44.34611328 1.45019531 44.34611328 1.45019531 44.69921875 2.9296875 C49.02592157 20.47373314 56.42949564 32.10682755 72 42 C73.485 42.99 73.485 42.99 75 44 C74.7639002 52.29605862 72.36817815 59.08390459 69.1875 66.6875 C68.74857422 67.77611328 68.30964844 68.86472656 67.85742188 69.98632812 C61.67262529 85.10369869 61.67262529 85.10369869 57.22265625 87.48828125 C53.82195859 88.37523701 50.43232129 89.24275838 47 90 C46.04351562 90.22558594 45.08703125 90.45117188 44.1015625 90.68359375 C27.70774004 93.87006058 10.14757369 92.94301218 -6 89 C-6.98484375 88.85304688 -7.9696875 88.70609375 -8.984375 88.5546875 C-12.9412702 87.8171597 -15.19131726 87.04773907 -17.69140625 83.80859375 C-19.38949733 80.62079352 -20.73532263 77.37521573 -22 74 C-22.29535645 73.23333008 -22.59071289 72.46666016 -22.89501953 71.67675781 C-24.75594991 66.8293728 -26.55791059 61.96359553 -28.27539062 57.06347656 C-28.90045777 55.2834673 -29.54955154 53.51192862 -30.203125 51.7421875 C-31.04298994 48.85206402 -31.58820468 46.96553194 -31 44 C-28.65625 42.04296875 -28.65625 42.04296875 -25.5 40.1875 C-9.64203994 30.23191377 -4.1795637 17.62685561 0 0 Z " fill="#FDB396" transform="translate(234,335)"/>
<path d="M0 0 C5.5934033 1.59811523 10.43720091 4.2021247 15.5 7 C16.38421631 7.48839355 17.26843262 7.97678711 18.17944336 8.47998047 C25.88072694 12.80666986 33.01406913 17.60580021 40 23 C40.91523438 23.70382812 41.83046875 24.40765625 42.7734375 25.1328125 C50.93400832 31.61819283 58.44387325 38.83136693 66 46 C50.68392221 78.21499745 -15.96478098 95.69576429 -46.25390625 107.07421875 C-49 108 -49 108 -51 108 C-49.59602297 104.26708281 -47.89710043 100.87001095 -45.9375 97.3984375 C-45.00260742 95.72950439 -45.00260742 95.72950439 -44.04882812 94.02685547 C-43.71568604 93.43370544 -43.38254395 92.84055542 -43.03930664 92.22943115 C-27.24156151 64.04157054 -11.40522322 35.66624415 -2.12890625 4.5859375 C-1 1 -1 1 0 0 Z " fill="#4A3855" transform="translate(317,384)"/>
<path d="M0 0 C2.20845985 0.31160461 4.41676251 0.62432346 6.625 0.9375 C7.85476562 1.11152344 9.08453125 1.28554688 10.3515625 1.46484375 C12.49451142 1.77917352 14.63387746 2.12659592 16.7578125 2.55078125 C30.56094916 4.46326404 44.91355293 3.38444073 58.515625 0.65625 C62 0 62 0 66 0 C64.3278473 5.87698112 61.52468299 11.06021176 58.6875 16.4375 C58.162771 17.43797363 57.63804199 18.43844727 57.09741211 19.46923828 C51.7533433 29.58877393 46.12031794 39.53938208 40.43798828 49.47167969 C38.26188488 53.29777932 36.12723346 57.14656405 34 61 C30.75943214 58.02984828 28.71029993 55.06206144 26.6015625 51.21484375 C26.13367813 50.36663811 26.13367813 50.36663811 25.65634155 49.501297 C24.63855294 47.65061369 23.63142259 45.79438536 22.625 43.9375 C21.92080446 42.64928747 21.21637431 41.36120315 20.51171875 40.07324219 C15.57326994 31.01885898 10.75213594 21.90338761 6 12.75 C5.39494629 11.58460693 4.78989258 10.41921387 4.16650391 9.21850586 C0 1.13270492 0 1.13270492 0 0 Z " fill="#D0CAD4" transform="translate(223,431)"/>
<path d="M0 0 C3.57628495 1.54449258 6.04918702 3.72107675 8.9375 6.3125 C35.90220091 29.35475387 72.86551653 43.97812972 106 56 C106 56.33 106 56.66 106 57 C97.31254276 57.23127019 88.97341829 56.59605633 80.375 55.375 C79.12098389 55.1982373 77.86696777 55.02147461 76.57495117 54.83935547 C9.78806131 44.97268097 9.78806131 44.97268097 -7.7734375 23 C-9.79245296 19.7078474 -9.7904596 17.75468308 -9 14 C-6.71112062 8.8231986 -3.71907599 4.27005021 0 0 Z " fill="#E7E4EB" transform="translate(123,438)"/>
<path d="M0 0 C3.60411654 1.44633744 5.11402568 3.19136668 7.1875 6.4375 C7.69667969 7.21996094 8.20585937 8.00242187 8.73046875 8.80859375 C11.12890972 12.94867185 11.61939014 16.27715018 11 21 C4.90973632 30.88951908 -5.783779 35.71177745 -16.25 39.625 C-17.27359619 40.01397461 -18.29719238 40.40294922 -19.35180664 40.80371094 C-22.22845781 41.88665324 -25.11149499 42.94914563 -28 44 C-29.16917969 44.42539062 -30.33835937 44.85078125 -31.54296875 45.2890625 C-52.33414638 52.19139677 -77.51697582 57.37300034 -99.5625 57.0625 C-100.83287109 57.04896484 -100.83287109 57.04896484 -102.12890625 57.03515625 C-102.74636719 57.02355469 -103.36382812 57.01195312 -104 57 C-101.76520584 54.76520584 -100.1479674 54.13488858 -97.21484375 53.00390625 C-95.72525146 52.42189453 -95.72525146 52.42189453 -94.20556641 51.828125 C-93.12710449 51.41046875 -92.04864258 50.9928125 -90.9375 50.5625 C-41.80915497 31.40539729 -41.80915497 31.40539729 0 0 Z " fill="#E7E4EB" transform="translate(387,438)"/>
<path d="M0 0 C0.61875 0.61875 1.2375 1.2375 1.875 1.875 C1.545 3.195 1.215 4.515 0.875 5.875 C-5.725 5.875 -12.325 5.875 -19.125 5.875 C-18.795 6.535 -18.465 7.195 -18.125 7.875 C-17.77467644 13.21743433 -17.6688931 16.52286539 -21.125 20.875 C-24.8623856 23.3665904 -26.69831583 23.33293285 -31.125 22.875 C-34.51439556 20.73820715 -35.85082557 19.6975233 -37.125 15.875 C-37.16454234 13.54200175 -37.16901732 11.20791811 -37.125 8.875 C-37.681875 9.37 -38.23875 9.865 -38.8125 10.375 C-41.52016153 12.13132099 -42.95879087 12.21729288 -46.125 11.875 C-46.455 11.545 -46.785 11.215 -47.125 10.875 C-47.125 7.59153111 -47.08310538 4.97667469 -44.84765625 2.40625 C-33.78606379 -6.13069666 -11.75829534 -7.99564083 0 0 Z " fill="#4C344C" transform="translate(335.125,190.125)"/>
<path d="M0 0 C2.94215698 2.52568727 2.94215698 2.52568727 3.3125 5.5625 C3 8 3 8 1 10 C-2.01305957 9.61121812 -3.39685311 8.73543126 -6 7 C-6.08636719 7.67546875 -6.17273438 8.3509375 -6.26171875 9.046875 C-7.40128297 16.28153956 -7.40128297 16.28153956 -10.1875 19.625 C-13.80165135 21.39191844 -16.01999057 21.56857278 -20 21 C-23.38939556 18.86320715 -24.72582557 17.8225233 -26 14 C-26.09182942 12.46050671 -26.13002352 10.91722145 -26.125 9.375 C-26.12886719 8.18003906 -26.12886719 8.18003906 -26.1328125 6.9609375 C-26 5 -26 5 -25 4 C-31.6 4 -38.2 4 -45 4 C-45.33 2.68 -45.66 1.36 -46 0 C-44.8002907 -0.82518076 -43.58968837 -1.63453185 -42.375 -2.4375 C-41.70210937 -2.88996094 -41.02921875 -3.34242188 -40.3359375 -3.80859375 C-28.80912189 -9.68765522 -10.54290461 -6.56886074 0 0 Z " fill="#4B334B" transform="translate(221,192)"/>
<path d="M0 0 C2.47395833 0.74869792 4.94791667 1.49739583 7.421875 2.24609375 C8.27265625 2.49488281 9.1234375 2.74367188 10 3 C10.94359375 3.29003906 10.94359375 3.29003906 11.90625 3.5859375 C20.948709 5.37418499 30.3339622 4.26641512 38.8125 0.875 C41 0 41 0 44 0 C44.495 3.96 44.495 3.96 45 8 C32.34833533 14.03296973 20.53784378 16.31980686 6.8125 12 C5.76707031 11.62875 4.72164062 11.2575 3.64453125 10.875 C0.98956373 9.84293826 0.98956373 9.84293826 -2 10 C-1.34 6.7 -0.68 3.4 0 0 Z " fill="#FB7364" transform="translate(234,335)"/>
<path d="M0 0 C1.36560059 0.00303635 1.36560059 0.00303635 2.75878906 0.00613403 C3.68723633 0.00517731 4.61568359 0.00422058 5.57226562 0.00323486 C7.53938871 0.00255298 9.50651403 0.00440781 11.47363281 0.00857544 C14.49581932 0.01392358 17.51785721 0.00863071 20.54003906 0.00222778 C22.44628939 0.00288856 24.35253963 0.00416972 26.25878906 0.00613403 C27.16918945 0.0041098 28.07958984 0.00208557 29.01757812 0 C35.39383938 0.02399685 35.39383938 0.02399685 36.50878906 1.13894653 C36.69628906 3.57644653 36.69628906 3.57644653 36.50878906 6.13894653 C32.03899995 10.60873564 24.60984773 9.298323 18.69824219 9.32449341 C17.68129272 9.32437256 17.68129272 9.32437256 16.64379883 9.32424927 C14.58100764 9.32643623 12.51875152 9.34462306 10.45605469 9.36355591 C9.14443359 9.3654895 7.8328125 9.3674231 6.48144531 9.36941528 C5.287854 9.37352417 4.0942627 9.37763306 2.86450195 9.38186646 C-0.66707229 9.12621594 -4.85939746 8.77076001 -7.49121094 6.13894653 C-7.61621094 3.63894653 -7.61621094 3.63894653 -7.49121094 1.13894653 C-5.54257169 -0.80969271 -2.59312374 0.00975913 0 0 Z " fill="#4F374D" transform="translate(241.4912109375,264.8610534667969)"/>
<path d="M0 0 C1.26714844 -0.01417969 2.53429687 -0.02835938 3.83984375 -0.04296875 C7.0625 0.1875 7.0625 0.1875 9.0625 2.1875 C8.9375 4.6875 8.9375 4.6875 8.0625 7.1875 C3.96096214 9.81645929 -0.21510553 9.78538113 -4.9375 9.1875 C-7.5 7.6875 -7.5 7.6875 -8.9375 6.1875 C-7.75135042 -0.42104769 -6.69956277 0.03400793 0 0 Z " fill="#4F364D" transform="translate(255.9375,237.8125)"/>
<path d="M0 0 C1.2065625 0.0309375 1.2065625 0.0309375 2.4375 0.0625 C3.0625 2.4375 3.0625 2.4375 3.4375 5.0625 C2.7775 5.7225 2.1175 6.3825 1.4375 7.0625 C-0.6875 6.6875 -0.6875 6.6875 -2.5625 6.0625 C-2.94468767 4.40635343 -3.27645102 2.73792976 -3.5625 1.0625 C-2.5625 0.0625 -2.5625 0.0625 0 0 Z " fill="#51394F" transform="translate(313.5625,220.9375)"/>
</svg>
