<?xml version="1.0" encoding="UTF-8"?>
<svg version="1.1" xmlns="http://www.w3.org/2000/svg" width="512" height="512">
<path d="M0 0 C1.1034375 0.350625 2.206875 0.70125 3.34375 1.0625 C30.5421571 10.56873937 51.67817839 30.59010284 64.25 56.3125 C69.41491801 68.02348401 73.1049613 80.60262289 73.14717102 93.44062805 C73.15084771 94.16879941 73.1545244 94.89697076 73.1583125 95.64720792 C73.16928609 98.07641738 73.17318245 100.50558398 73.17700195 102.93481445 C73.18327167 104.68149448 73.18991892 106.42817319 73.19691467 108.17485046 C73.21790729 113.90431804 73.22831663 119.63378571 73.23828125 125.36328125 C73.24233142 127.34221091 73.24644842 129.32114043 73.25063133 131.30006981 C73.26967711 140.60498399 73.28390612 149.90989029 73.2922433 159.21482021 C73.30199592 169.92030957 73.3282663 180.62559109 73.36874419 191.3310073 C73.39902344 199.62686843 73.41372355 207.92267041 73.41702431 216.21858567 C73.41936248 221.1627226 73.42816 226.10663735 73.45348549 231.05071449 C73.47697702 235.71213994 73.4809159 240.37320029 73.47072411 245.03466988 C73.47023362 246.73201979 73.47640757 248.42938899 73.49028015 250.12668228 C73.7262233 280.7436126 61.70250461 306.85846946 40.50390625 328.5546875 C17.1711438 350.69973954 -11.56354859 356.80779896 -42.72460938 356.13183594 C-69.4945216 355.054335 -93.81534122 340.08740432 -111.8125 321.125 C-126.48593626 304.07872182 -137.07250754 281.26812714 -137.14717102 258.55937195 C-137.15084771 257.83120059 -137.1545244 257.10302924 -137.1583125 256.35279208 C-137.16928609 253.92358262 -137.17318245 251.49441602 -137.17700195 249.06518555 C-137.18327167 247.31850552 -137.18991892 245.57182681 -137.19691467 243.82514954 C-137.21790729 238.09568196 -137.22831663 232.36621429 -137.23828125 226.63671875 C-137.24233142 224.65778909 -137.24644842 222.67885957 -137.25063133 220.69993019 C-137.26967711 211.39501601 -137.28390612 202.09010971 -137.2922433 192.78517979 C-137.30199592 182.07969043 -137.3282663 171.37440891 -137.36874419 160.6689927 C-137.39902344 152.37313157 -137.41372355 144.07732959 -137.41702431 135.78141433 C-137.41936248 130.8372774 -137.42816 125.89336265 -137.45348549 120.94928551 C-137.47697702 116.28786006 -137.4809159 111.62679971 -137.47072411 106.96533012 C-137.47023362 105.26798021 -137.47640757 103.57061101 -137.49028015 101.87331772 C-137.72123611 71.90354475 -126.18261325 45.58429101 -105.34765625 24.2890625 C-78.15455067 -1.66617777 -35.90228376 -12.07333436 0 0 Z M-87.87109375 51.15625 C-96.80414922 61.67804005 -101.98814429 72.44664929 -105 86 C-90.81 86 -76.62 86 -62 86 C-62 95.9 -62 105.8 -62 116 C-76.85 116 -91.7 116 -107 116 C-107 130.85 -107 145.7 -107 161 C-92.15 161 -77.3 161 -62 161 C-62 170.9 -62 180.8 -62 191 C-76.85 191 -91.7 191 -107 191 C-107 205.85 -107 220.7 -107 236 C-92.15 236 -77.3 236 -62 236 C-62 245.9 -62 255.8 -62 266 C-76.19 266 -90.38 266 -105 266 C-103.56568248 272.45442884 -102.25445947 277.31488109 -99.3125 283 C-98.9609082 283.69134033 -98.60931641 284.38268066 -98.24707031 285.0949707 C-95.39038032 290.56387655 -92.04022126 295.3345064 -88 300 C-87.39285156 300.80308594 -86.78570312 301.60617187 -86.16015625 302.43359375 C-74.31777232 316.5031168 -55.58964348 323.86197387 -37.75 325.8125 C-17.13872173 326.96988361 2.53818597 320.07309255 18.234375 306.6640625 C30.19178501 295.14576642 37.38968387 282.24642261 41 266 C26.81 266 12.62 266 -2 266 C-2 256.1 -2 246.2 -2 236 C12.85 236 27.7 236 43 236 C43 221.15 43 206.3 43 191 C28.15 191 13.3 191 -2 191 C-2 181.1 -2 171.2 -2 161 C12.85 161 27.7 161 43 161 C43 146.15 43 131.3 43 116 C28.15 116 13.3 116 -2 116 C-2 106.1 -2 96.2 -2 86 C12.19 86 26.38 86 41 86 C39.56568248 79.54557116 38.25445947 74.68511891 35.3125 69 C34.9609082 68.30865967 34.60931641 67.61731934 34.24707031 66.9050293 C31.39038032 61.43612345 28.04022126 56.6654936 24 52 C23.39285156 51.19691406 22.78570312 50.39382812 22.16015625 49.56640625 C14.25055832 40.169289 3.24303545 34.40903351 -8 30 C-9.37285156 29.45859375 -9.37285156 29.45859375 -10.7734375 28.90625 C-37.63246864 20.39957738 -69.44321711 30.45661295 -87.87109375 51.15625 Z " fill="#000000" transform="translate(288,4)"/>
<path d="M0 0 C10.23 0 20.46 0 31 0 C31.226875 3.403125 31.45375 6.80625 31.6875 10.3125 C34.58572505 46.45159197 51.74192348 79.20347868 79 103 C98.41725601 119.1834315 123.76241074 130.41404727 149 133 C150.23105469 133.13277344 151.46210938 133.26554688 152.73046875 133.40234375 C188.06172154 136.63279952 223.73909591 125.19282752 251.04589844 102.66845703 C277.06998296 80.44849281 295.36422179 48.46413045 298.16650391 13.94921875 C298.51149812 9.30044712 298.75910968 4.65721291 299 0 C309.23 0 319.46 0 330 0 C330.88834851 37.31063758 318.65557296 73.92335824 295 103 C294.32130859 103.83893799 294.32130859 103.83893799 293.62890625 104.69482422 C265.76502725 138.91113905 226.66768325 159.43163771 183 165 C182.01 165 181.02 165 180 165 C180 185.46 180 205.92 180 227 C214.65 227 249.3 227 285 227 C285 236.9 285 246.8 285 257 C205.8 257 126.6 257 45 257 C45 247.1 45 237.2 45 227 C79.65 227 114.3 227 150 227 C150 206.54 150 186.08 150 165 C144.39 164.34 138.78 163.68 133 163 C129.80961214 162.37118406 126.79702773 161.74090746 123.6875 160.875 C122.52275146 160.55740723 122.52275146 160.55740723 121.33447266 160.23339844 C96.37802031 153.13152227 73.37086515 141.10831456 54.453125 123.296875 C52.31700208 121.29681086 50.12899403 119.42603838 47.875 117.5625 C42.93328024 113.25485019 39.01305623 108.15866374 35 103 C34.25621094 102.071875 33.51242188 101.14375 32.74609375 100.1875 C10.44991448 71.64839054 -0.8572041 36.00257229 0 0 Z " fill="#000000" transform="translate(91,255)"/>
</svg>
