<?xml version="1.0" encoding="UTF-8"?>
<svg version="1.1" xmlns="http://www.w3.org/2000/svg" width="512" height="512">
<path d="M0 0 C7.43298477 5.17835745 11.31656517 11.98359836 15.5625 19.8125 C16.25244351 21.05620558 16.9441268 22.29894745 17.63745117 23.54077148 C19.06300858 26.09624111 20.48189283 28.65524251 21.89648438 31.21679688 C25.12418647 37.04333128 28.47188453 42.80013199 31.8125 48.5625 C33.0391427 50.68875582 34.26570695 52.81505689 35.4921875 54.94140625 C37.7765964 58.89412588 40.07365669 62.83903309 42.3828125 66.77734375 C42.90125732 67.66413818 43.41970215 68.55093262 43.95385742 69.46459961 C44.91642573 71.10953492 45.88252779 72.75240941 46.8527832 74.39282227 C50 79.77671364 50 79.77671364 50 82 C50.53109375 81.79503906 51.0621875 81.59007813 51.609375 81.37890625 C52.31578125 81.10949219 53.0221875 80.84007813 53.75 80.5625 C54.44609375 80.29566406 55.1421875 80.02882813 55.859375 79.75390625 C68.12000303 75.43583835 84.32984281 76.72960643 96 82 C110.50309476 89.11472573 120.66821438 100.72805123 126 116 C130.22312777 130.141445 128.55504761 144.91123408 122.52734375 158.26171875 C118.50320345 165.69163265 113.22373253 171.3397845 107 177 C108.4160506 180.78518732 110.15421065 184.19749321 112.16796875 187.69921875 C112.80661865 188.81329102 113.44526855 189.92736328 114.10327148 191.07519531 C114.79794957 192.27933423 115.49269407 193.48343484 116.1875 194.6875 C116.90530235 195.93701766 117.62282762 197.18669453 118.34008789 198.43652344 C120.55527873 202.29377679 122.77680168 206.14735757 125 210 C125.34683838 210.6011261 125.69367676 211.2022522 126.05102539 211.82159424 C127.71074837 214.69784791 129.37109514 217.57374033 131.03173828 220.44946289 C133.479055 224.68790444 135.924696 228.92730725 138.36816406 233.16796875 C139.40832228 234.97315057 140.44925569 236.77788609 141.49121094 238.58203125 C142.77073682 240.80145018 144.04304217 243.02481156 145.3125 245.25 C145.66755615 245.86327148 146.0226123 246.47654297 146.38842773 247.10839844 C150.89576969 255.05974247 152.5557558 262.67450186 150.34765625 271.65234375 C147.37373513 279.93592661 142.65917856 286.04462026 134.68095207 289.93983269 C128.7139366 292.29945516 122.337924 293.42071412 116.08032227 294.76782227 C114.46388326 295.12402576 112.84765213 295.48117364 111.23161316 295.83918762 C106.84668548 296.8078466 102.45898689 297.76336637 98.07069135 298.71663404 C93.42341067 299.72862434 88.77886878 300.75303414 84.13401794 301.77610779 C75.28738345 303.72275129 66.43844657 305.65870669 57.58859247 307.59065431 C46.74273148 309.95879118 35.89962892 312.33945396 25.05664062 314.72070312 C21.2061002 315.56617955 17.35554057 316.41156849 13.50497437 317.25692749 C12.56132723 317.46410979 11.6176801 317.67129208 10.6454376 317.88475263 C4.06298841 319.32979904 -2.51986327 320.77300224 -9.10287476 322.21548462 C-29.36004507 326.65496629 -49.61262544 331.11283276 -69.84765625 335.65234375 C-70.8574246 335.87840364 -71.86719296 336.10446354 -72.90756035 336.33737373 C-75.63941102 336.94948207 -78.37073365 337.56387573 -81.10180664 338.17944336 C-81.8765716 338.35309607 -82.65133656 338.52674877 -83.44957924 338.70566368 C-86.35363844 339.36337 -89.17285718 340.05761906 -92 341 C-82.33198039 357.95019982 -72.62654099 374.8778596 -62.86328125 391.7734375 C-60.9796495 395.03524007 -59.09877679 398.29861844 -57.21875 401.5625 C-49.92238622 414.22746036 -42.5925474 426.87214388 -35.21875 439.4921875 C-34.69925781 440.38260742 -34.17976563 441.27302734 -33.64453125 442.19042969 C-32.45953631 444.21491332 -31.26871487 446.23599054 -30.07421875 448.25488281 C-29.44128906 449.32834961 -28.80835938 450.40181641 -28.15625 451.5078125 C-27.57681641 452.48637207 -26.99738281 453.46493164 -26.40039062 454.47314453 C-22.81586315 460.94104191 -22.85914362 468.77999554 -24.765625 475.83203125 C-29.44112311 486.54945826 -41.20153746 491.45148508 -50.9375 496.875 C-52.47760742 497.74511719 -52.47760742 497.74511719 -54.04882812 498.6328125 C-62.55734458 503.40874042 -69.72091562 505.83080001 -79.578125 503.3515625 C-89.05849542 499.57876203 -93.31308398 491.15676534 -98 482.5625 C-99.14820704 480.49394024 -100.29799663 478.42625828 -101.44921875 476.359375 C-102.03622559 475.30298828 -102.62323242 474.24660156 -103.22802734 473.15820312 C-106.02559454 468.17207344 -108.91749435 463.24249042 -111.8125 458.3125 C-116.93311558 449.57433867 -121.98663916 440.79994088 -127 432 C-132.68932067 422.01446904 -138.43890997 412.06606169 -144.24267578 402.14648438 C-148.54453118 394.79198311 -152.79808667 387.41207071 -157 380 C-158.19882812 380.433125 -158.19882812 380.433125 -159.421875 380.875 C-170.67687526 384.67950713 -180.86936706 385.75759111 -192 381 C-197.76408089 378.06310373 -202.71089403 374.86098676 -207 370 C-207.88042969 370.34933594 -208.76085937 370.69867188 -209.66796875 371.05859375 C-210.82941406 371.51363281 -211.99085938 371.96867187 -213.1875 372.4375 C-214.33605469 372.88996094 -215.48460937 373.34242188 -216.66796875 373.80859375 C-230.17021873 378.63647915 -247.91270217 377.57116709 -261 372 C-276.87160433 364.43649473 -288.31964535 352.41103523 -294.5 335.9375 C-299.1981674 321.82124701 -298.9148574 304.65865097 -293 291 C-292.649375 290.13632812 -292.29875 289.27265625 -291.9375 288.3828125 C-286.96666588 277.30199478 -278.69806339 269.06602113 -269 262 C-269.27714844 261.46890625 -269.55429687 260.9378125 -269.83984375 260.390625 C-270.38318359 259.33101563 -270.38318359 259.33101563 -270.9375 258.25 C-271.47697266 257.20585938 -271.47697266 257.20585938 -272.02734375 256.140625 C-275.47934608 248.54344719 -275.11921857 238.00770368 -273.31640625 229.94140625 C-268.24824782 216.4613666 -258.02818456 209.26964554 -245.87765503 202.50985718 C-243.38489365 201.12301532 -240.90180956 199.71923032 -238.41792297 198.3165741 C-237.14260805 197.59663513 -235.86679829 196.87757206 -234.59049988 196.15937805 C-227.50683386 192.17067813 -220.48837122 188.07170411 -213.48242188 183.94824219 C-208.8871886 181.24780672 -204.28095488 178.58747416 -199.6015625 176.03515625 C-190.40624269 170.9846369 -183.56507504 166.33776755 -177 158 C-175.03527574 155.80023418 -173.01697084 153.65181099 -171 151.5 C-167.47042398 147.69263071 -163.96484025 143.86656086 -160.5 140 C-156.06629286 135.05409564 -151.5605658 130.17713346 -147.05078125 125.30078125 C-140.84683239 118.5921578 -134.66313207 111.8653631 -128.5625 105.0625 C-124.10356085 100.09487617 -119.57561669 95.19316748 -115.04296875 90.29296875 C-110.80209267 85.7073279 -106.58545151 81.09955083 -102.36767578 76.49267578 C-100.97420848 74.97185124 -99.57912249 73.45252676 -98.18359375 71.93359375 C-93.95476524 67.32926052 -89.73596914 62.71723405 -85.5625 58.0625 C-81.10602289 53.09761909 -76.58051938 48.19865048 -72.05078125 43.30078125 C-65.84683239 36.5921578 -59.66313207 29.8653631 -53.5625 23.0625 C-52.04296805 21.37382805 -50.52202086 19.686429 -49 18 C-48.52385254 17.47196777 -48.04770508 16.94393555 -47.55712891 16.39990234 C-34.62653659 2.09782135 -20.32427625 -12.4420469 0 0 Z " fill="#010100" transform="translate(297,6)"/>
<path d="M0 0 C0.66 0 1.32 0 2 0 C2.55945313 1.0209375 3.11890625 2.041875 3.6953125 3.09375 C9.14753535 12.99802203 14.76256796 22.79711866 20.4753418 32.55322266 C24.82310157 39.97838752 29.14120282 47.41994096 33.4375 54.875 C34.05971436 55.95458984 34.68192871 57.03417969 35.32299805 58.14648438 C36.58511517 60.3368252 37.84707785 62.52725502 39.10888672 64.71777344 C42.23680148 70.14659942 45.36858448 75.57319281 48.5 81 C49.75001879 83.16665583 51.00001878 85.3333225 52.25 87.5 C53.178125 89.10875 53.178125 89.10875 54.125 90.75 C71 120 87.875 149.25 104.75 178.5 C105.36931396 179.5734668 105.98862793 180.64693359 106.62670898 181.75292969 C107.87104998 183.90980903 109.11535364 186.06670992 110.35961914 188.22363281 C113.23636737 193.21034826 116.11344738 198.19687102 118.9919281 203.18258667 C132.55097112 226.66784063 132.55097112 226.66784063 139 238 C136.2897415 240.7102585 133.36834413 241.00242421 129.73828125 241.76953125 C129.00516724 241.93055328 128.27205322 242.09157532 127.51672363 242.25747681 C125.11678563 242.7828381 122.71472131 243.29768955 120.3125 243.8125 C118.64332748 244.17584438 116.97430133 244.53986185 115.30541992 244.90454102 C111.23977946 245.79136948 107.17249298 246.670335 103.10449219 247.54626465 C100.38124048 248.13340656 97.65924948 248.72624941 94.9375 249.3203125 C91.43813025 250.08366827 87.93805994 250.84368387 84.4375 251.6015625 C62.50686093 256.35751802 40.59305593 261.19244257 18.6875 266.0625 C17.22859705 266.38655618 15.76969405 266.71061217 14.31079102 267.03466797 C7.3902419 268.57282521 0.4711966 270.11734523 -6.44499207 271.67500305 C-9.75027659 272.41897778 -13.05618253 273.16016863 -16.3621521 273.90109253 C-17.93296299 274.25396035 -19.50346847 274.60819092 -21.07363892 274.96389771 C-23.25146519 275.45721226 -25.43029372 275.94585737 -27.609375 276.43359375 C-28.84655273 276.71259521 -30.08373047 276.99159668 -31.35839844 277.27905273 C-35.23899523 278.04731516 -39.07081617 278.55345254 -43 279 C-43.40202637 278.27111572 -43.80405273 277.54223145 -44.21826172 276.79125977 C-54.00263526 259.03145436 -54.00263526 259.03145436 -64.16088867 241.484375 C-67.89048475 235.20805169 -71.54308814 228.88862258 -75.1875 222.5625 C-75.82558594 221.45511475 -76.46367187 220.34772949 -77.12109375 219.20678711 C-78.42906691 216.93630921 -79.73684513 214.665719 -81.04443359 212.39501953 C-84.19332053 206.92830022 -87.34682044 201.46424408 -90.5 196 C-94.29741408 189.41827957 -98.09448093 182.83635927 -101.890625 176.25390625 C-102.53136963 175.14354004 -103.17211426 174.03317383 -103.83227539 172.88916016 C-105.09655831 170.6960196 -106.35881367 168.50170879 -107.61889648 166.30615234 C-110.51468463 161.26700973 -113.43773139 156.25144074 -116.45703125 151.28515625 C-116.98393555 150.40851318 -117.51083984 149.53187012 -118.05371094 148.62866211 C-119.03189912 147.0054712 -120.02273282 145.38980796 -121.02832031 143.78344727 C-121.45338867 143.07373779 -121.87845703 142.36402832 -122.31640625 141.6328125 C-122.69224854 141.02324707 -123.06809082 140.41368164 -123.45532227 139.78564453 C-124 138 -124 138 -123.18676758 135.87817383 C-121.95770497 133.93306404 -120.65999109 132.27695523 -119.125 130.5625 C-118.50367188 129.86769531 -117.88234375 129.17289063 -117.2421875 128.45703125 C-113.54926626 124.41025867 -109.83687891 120.38183448 -106.11328125 116.36328125 C-103.21101452 113.23077582 -100.32142047 110.08689463 -97.4375 106.9375 C-96.98938965 106.44813965 -96.5412793 105.9587793 -96.07958984 105.45458984 C-95.17558862 104.46731251 -94.27161722 103.48000786 -93.36767578 102.49267578 C-91.97420848 100.97185124 -90.57912249 99.45252676 -89.18359375 97.93359375 C-84.95476524 93.32926052 -80.73596914 88.71723405 -76.5625 84.0625 C-72.10602289 79.09761909 -67.58051938 74.19865048 -63.05078125 69.30078125 C-56.84683239 62.5921578 -50.66313207 55.8653631 -44.5625 49.0625 C-40.10356085 44.09487617 -35.57561669 39.19316748 -31.04296875 34.29296875 C-27.25996714 30.20242556 -23.49630306 26.0942899 -19.734375 21.984375 C-17.85264981 19.92886855 -15.96676127 17.87728282 -14.078125 15.828125 C-13.1144907 14.78133526 -12.15094753 13.73446163 -11.1875 12.6875 C-10.72730469 12.18822998 -10.26710938 11.68895996 -9.79296875 11.17456055 C-7.26733397 8.42296245 -4.82095865 5.62519162 -2.4375 2.75 C-1.633125 1.8425 -0.82875 0.935 0 0 Z " fill="#EA3A47" transform="translate(252,47)"/>
<path d="M0 0 C0.40613525 0.7120459 0.81227051 1.4240918 1.23071289 2.15771484 C10.49191534 18.39045455 19.7907986 34.60059805 29.14111328 50.78222656 C32.26324605 56.18670645 35.38141204 61.59347412 38.5 67 C39.74998122 69.1666775 40.99998121 71.33334417 42.25 73.5 C44.75 77.83333333 47.25 82.16666667 49.75 86.5 C50.6795752 88.11116699 50.6795752 88.11116699 51.62792969 89.75488281 C52.86838986 91.90514319 54.10862703 94.05553224 55.34863281 96.20605469 C58.26830662 101.26897509 61.19018475 106.33058332 64.12011719 111.38757324 C65.49918031 113.76812173 66.87695785 116.14941306 68.25463867 118.53076172 C69.22384658 120.2048265 70.19490565 121.87781912 71.16601562 123.55078125 C72.05063477 125.08025391 72.05063477 125.08025391 72.953125 126.640625 C73.72897949 127.97915527 73.72897949 127.97915527 74.52050781 129.34472656 C76.10496045 132.18837457 77.56451444 135.07871731 79 138 C65.810119 145.80738081 52.54632308 153.48431263 39.25927734 161.125 C36.09465632 162.94554603 32.93206441 164.76958029 29.76953125 166.59375 C27.86733263 167.68775238 25.9649963 168.78151538 24.0625 169.875 C22.74910645 170.63369385 22.74910645 170.63369385 21.40917969 171.40771484 C20.60512695 171.86871582 19.80107422 172.3297168 18.97265625 172.8046875 C18.27406494 173.20671387 17.57547363 173.60874023 16.85571289 174.02294922 C11.54669923 176.81819625 5.84454319 176.55034823 0 176 C-8.71124967 171.8819547 -12.90354816 163.01687058 -17.41333008 154.95556641 C-18.81920804 152.44274806 -20.23833314 149.93749935 -21.65689087 147.43182373 C-22.38439019 146.14674003 -23.11125568 144.8612973 -23.8374939 143.57550049 C-27.16820518 137.68357962 -30.57491697 131.83752421 -34 126 C-39.39985765 116.78035449 -44.72048513 107.51737573 -50.00640869 98.23214722 C-55.47722129 88.62314731 -61.02466729 79.06256933 -66.66015625 69.54882812 C-67.20285156 68.62650391 -67.74554688 67.70417969 -68.3046875 66.75390625 C-68.77890137 65.95283447 -69.25311523 65.1517627 -69.74169922 64.32641602 C-72.8945309 58.49728659 -73.93578905 53.58071006 -73 47 C-69.11830433 36.00514628 -55.90264788 30.64251685 -46.375 25.4375 C-35.50942824 19.43082254 -24.76252873 13.24372217 -14.0546875 6.9609375 C-13.18424805 6.45143555 -12.31380859 5.94193359 -11.41699219 5.41699219 C-9.8889285 4.52114555 -8.36321386 3.62126921 -6.84082031 2.71582031 C-2.22083151 0 -2.22083151 0 0 0 Z " fill="#FDE500" transform="translate(114,195)"/>
<path d="M0 0 C4.18943064 2.01606852 6.03223464 4.10793056 8.27734375 8.13671875 C8.86572021 9.17618652 9.45409668 10.2156543 10.06030273 11.28662109 C10.67977783 12.40891113 11.29925293 13.53120117 11.9375 14.6875 C12.60026532 15.86617336 13.2644322 17.04405962 13.92993164 18.22119141 C15.29627337 20.63929923 16.65747796 23.06019151 18.015625 25.48291016 C20.92242231 30.65276119 23.9328547 35.76161959 26.9375 40.875 C32.36118397 50.14382732 37.70206141 59.45833903 43.01922607 68.78845215 C48.22045129 77.9128284 53.48027878 87.00132774 58.78344727 96.06689453 C64.93766742 106.59084625 71.02369996 117.15380137 77.10888672 127.71777344 C80.23680148 133.14659942 83.36858448 138.57319281 86.5 144 C87.75001879 146.16665583 89.00001878 148.3333225 90.25 150.5 C90.86875 151.5725 91.4875 152.645 92.125 153.75 C112.75 189.5 112.75 189.5 114.62719727 192.75390625 C115.86976019 194.9076172 117.11243489 197.06126367 118.35522461 199.21484375 C121.25314623 204.23684262 124.15003349 209.25942807 127.04275513 214.28442383 C128.05947198 216.05045522 129.07655658 217.81627431 130.09375 219.58203125 C131.36400873 221.78734155 132.63359018 223.99304216 133.90234375 226.19921875 C134.48242188 227.20597656 135.0625 228.21273437 135.66015625 229.25 C136.21550049 230.21526611 136.77084473 231.18053223 137.34301758 232.17504883 C139.44130274 235.75236688 141.63738461 239.26582269 143.86425781 242.7644043 C145.75807081 246.4921871 146.03578032 249.96842428 145 254 C142.43063968 257.89548177 139.96405603 259.22698111 135.5625 260.3125 C133.37890625 260.73828125 133.37890625 260.73828125 131 261 C129.99710938 261.13535156 128.99421875 261.27070313 127.9609375 261.41015625 C125 261 125 261 122.97265625 258.6328125 C122.34230469 257.47523438 121.71195313 256.31765625 121.0625 255.125 C120.2852741 253.7382152 119.50792045 252.35150198 118.73046875 250.96484375 C118.08730713 249.78897705 118.08730713 249.78897705 117.43115234 248.58935547 C115.27114909 244.68130455 113.01903442 240.82776631 110.77709961 236.96630859 C108.83055991 233.6108949 106.89437487 230.24969751 104.9609375 226.88671875 C101.14705976 220.25409141 97.32453519 213.62648617 93.5 207 C92.2499577 204.83335774 90.99995776 202.66669103 89.75 200.5 C89.13125 199.4275 88.5125 198.355 87.875 197.25 C22.25 83.5 22.25 83.5 20.37475586 80.24951172 C19.12564482 78.08442929 17.87645871 75.91939018 16.62719727 73.75439453 C13.48797691 68.31384294 10.35009437 62.87252784 7.21484375 57.4296875 C6.58956787 56.34510254 5.96429199 55.26051758 5.32006836 54.14306641 C4.07542564 51.98241442 2.83271564 49.82064781 1.59204102 47.65771484 C-1.58818956 42.12508309 -4.81558412 36.62836012 -8.125 31.171875 C-8.78556396 30.07246582 -9.44612793 28.97305664 -10.12670898 27.84033203 C-11.39153172 25.73947248 -12.66919157 23.64627395 -13.96118164 21.56201172 C-14.52184326 20.62631348 -15.08250488 19.69061523 -15.66015625 18.7265625 C-16.16168213 17.90752441 -16.66320801 17.08848633 -17.17993164 16.24462891 C-18 14 -18 14 -17.24755859 11.83398438 C-15.80585832 9.71460033 -14.26067138 7.79594225 -12.5625 5.875 C-11.96566406 5.19179688 -11.36882812 4.50859375 -10.75390625 3.8046875 C-7.24264675 0.1917657 -4.92588571 -0.49258857 0 0 Z " fill="#FCE300" transform="translate(284,20)"/>
<path d="M0 0 C2.78869836 1.29431789 3.47457887 2.93710121 4.91772461 5.63085938 C5.46420654 6.63173584 6.01068848 7.6326123 6.57373047 8.66381836 C7.15388916 9.75509033 7.73404785 10.8463623 8.33178711 11.97070312 C9.58894676 14.27645758 10.84811169 16.58111967 12.10913086 18.88476562 C12.58978752 19.76795723 12.58978752 19.76795723 13.08015442 20.66899109 C16.23805125 26.46208707 19.54978883 32.15896199 22.89428711 37.84570312 C24.06128812 39.83639258 25.22795156 41.82727996 26.39428711 43.81835938 C27.27020508 45.31326904 27.27020508 45.31326904 28.16381836 46.83837891 C31.26115757 52.14147575 34.32790535 57.46216406 37.39428711 62.78320312 C38.01102295 63.85320557 38.62775879 64.92320801 39.26318359 66.02563477 C40.51913858 68.2051389 41.77491532 70.38474577 43.03051758 72.56445312 C45.68712727 77.17597738 48.34508268 81.78672452 51.00390625 86.39697266 C52.25991609 88.57485194 53.5156365 90.75289819 54.77099609 92.93115234 C55.34793213 93.93162598 55.92486816 94.93209961 56.51928711 95.96289062 C57.3565332 97.4261377 57.3565332 97.4261377 58.21069336 98.91894531 C59.43618028 101.01694053 60.6973441 103.09430717 61.98413086 105.15527344 C62.63510742 106.21069336 63.28608398 107.26611328 63.95678711 108.35351562 C64.55491211 109.29984863 65.15303711 110.24618164 65.76928711 111.22119141 C67.15163836 114.34910216 67.06748947 115.7166254 65.95678711 118.90820312 C64.45288086 120.39257812 64.45288086 120.39257812 62.39428711 121.65820312 C61.19352539 122.39876953 61.19352539 122.39876953 59.96850586 123.15429688 C58.97463867 123.73308594 57.98077148 124.311875 56.95678711 124.90820312 C56.32595215 125.28090332 55.69511719 125.65360352 55.04516602 126.03759766 C52.93929157 127.27766297 50.82519296 128.50217888 48.70678711 129.72070312 C48.02156982 130.11805664 47.33635254 130.51541016 46.63037109 130.92480469 C43.08693484 132.92147203 40.06513285 134.42252659 35.95678711 134.90820312 C30.94526786 128.65897488 26.95986933 121.99406175 23.01928711 115.03320312 C22.0269381 113.29659235 21.03458079 111.55998625 20.04171753 109.82366943 C19.01848091 108.03276774 17.99749094 106.24059952 16.97680664 104.44824219 C13.82673397 98.92150076 10.63964231 93.41610493 7.45678711 87.90820312 C6.20661781 85.74163414 4.95661824 83.57496721 3.70678711 81.40820312 C3.08803711 80.33570313 2.46928711 79.26320313 1.83178711 78.15820312 C-0.04321289 74.90820312 -1.91821289 71.65820312 -3.79321289 68.40820312 C-4.72290894 66.79691528 -4.72290894 66.79691528 -5.67138672 65.15307617 C-6.91124013 63.00374897 -8.15066639 60.85417532 -9.38964844 58.7043457 C-12.31485052 53.62985824 -15.24433012 48.55798695 -18.18911743 43.49484253 C-19.57869919 41.10504645 -20.96583461 38.71383476 -22.3527832 36.32250977 C-23.33184542 34.63679724 -24.31443895 32.95313726 -25.29711914 31.26953125 C-25.89008789 30.24666016 -26.48305664 29.22378906 -27.09399414 28.16992188 C-27.61646729 27.27233154 -28.13894043 26.37474121 -28.67724609 25.44995117 C-30.00136729 22.9860681 -31.06027863 20.52455582 -32.04321289 17.90820312 C-28.40825852 15.64504893 -24.76214405 13.40119566 -21.10668945 11.17138672 C-19.67633173 10.29577493 -18.24877928 9.4155704 -16.82348633 8.53173828 C-14.54981697 7.12415936 -12.26636895 5.73371344 -9.98071289 4.34570312 C-9.25505127 3.89211426 -8.52938965 3.43852539 -7.78173828 2.97119141 C-7.09329834 2.55724121 -6.4048584 2.14329102 -5.69555664 1.71679688 C-5.08703857 1.34353271 -4.47852051 0.97026855 -3.8515625 0.58569336 C-2.04321289 -0.09179688 -2.04321289 -0.09179688 0 0 Z " fill="#94A9BA" transform="translate(188.043212890625,357.091796875)"/>
<path d="M0 0 C3.92387566 1.30795855 4.2734936 2.7373968 6.265625 6.30859375 C6.90097168 7.43547607 7.53631836 8.5623584 8.19091797 9.72338867 C8.87731129 10.96140769 9.56367112 12.19944527 10.25 13.4375 C10.9626615 14.70672223 11.67637981 15.9753516 12.39111328 17.2434082 C13.86781601 19.86424916 15.34078733 22.48713481 16.81152344 25.11132812 C20.11723652 30.99813438 23.49634655 36.84230768 26.875 42.6875 C27.79780762 44.29141602 27.79780762 44.29141602 28.73925781 45.92773438 C31.51495494 50.74451701 34.3124596 55.54333073 37.1953125 60.296875 C37.67371582 61.09005127 38.15211914 61.88322754 38.64501953 62.70043945 C39.51974688 64.14460643 40.40296248 65.58368183 41.29638672 67.01635742 C42.27473897 68.63333883 43.14884875 70.31259265 44 72 C43.505 73.485 43.505 73.485 43 75 C41.109375 75.9140625 41.109375 75.9140625 38.75 76.625 C37.98171875 76.86476563 37.2134375 77.10453125 36.421875 77.3515625 C24.39188084 80.57249642 13.48788015 79.7200231 2.5625 73.64453125 C-8.77165997 66.50324465 -15.42495098 56.9942421 -19 44 C-20.25919615 30.13420053 -17.7924888 19.05816559 -9 8 C-3.26837607 1.63418803 -3.26837607 1.63418803 0 0 Z " fill="#94A9B9" transform="translate(37,285)"/>
<path d="M0 0 C10.08586618 4.89062974 16.01496459 11.93416346 20.328125 22.12890625 C23.42605556 31.42269793 22.084654 42.85198904 17.8984375 51.5234375 C15.51825124 55.47265201 12.84489733 59.11706093 9.328125 62.12890625 C8.668125 62.12890625 8.008125 62.12890625 7.328125 62.12890625 C6.92198975 61.41686035 6.51585449 60.70481445 6.09741211 59.97119141 C-2.75024354 44.46330332 -11.62975441 28.97467331 -20.5625 13.515625 C-21.10068359 12.58153809 -21.63886719 11.64745117 -22.19335938 10.68505859 C-23.11445759 9.09260511 -24.04176848 7.50370886 -24.97851562 5.92041016 C-27.671875 1.33910491 -27.671875 1.33910491 -27.671875 -0.87109375 C-18.88082943 -4.98675179 -8.72557789 -3.66117084 0 0 Z " fill="#94A8B9" transform="translate(384.671875,104.87109375)"/>
<path d="M0 0 C4.63235294 2.26470588 4.63235294 2.26470588 6 5 C7.08475083 13.72210218 3.81146378 18.88787124 -0.6875 26.1875 C-1.71308161 27.90187577 -2.73865292 29.61625794 -3.76327515 31.33120728 C-4.81091476 33.0780889 -5.86733119 34.81941285 -6.92529297 36.56005859 C-8.92192635 39.85516035 -10.85929994 43.1825003 -12.78515625 46.51953125 C-13.94009017 48.51302894 -15.09503742 50.50651891 -16.25 52.5 C-17.05377075 53.89641724 -17.05377075 53.89641724 -17.8737793 55.32104492 C-18.37433838 56.1741626 -18.87489746 57.02728027 -19.390625 57.90625 C-19.82407227 58.65197266 -20.25751953 59.39769531 -20.70410156 60.16601562 C-22 62 -22 62 -25 64 C-29.5443629 64.43977705 -31.90234741 64.58385776 -35.9375 62.4375 C-38.64130705 59.24209166 -38.76460452 57.14993513 -39 53 C-38.05859375 50.09765625 -38.05859375 50.09765625 -36.4375 47.0625 C-36.13448975 46.48894775 -35.83147949 45.91539551 -35.51928711 45.32446289 C-30.49531071 35.97989067 -25.03940337 26.85684595 -19.62255859 17.73681641 C-18.2230783 15.37627261 -16.83745764 13.00842384 -15.45703125 10.63671875 C-14.76400552 9.46556259 -14.07009928 8.29492666 -13.375 7.125 C-12.80523437 6.15820312 -12.23546875 5.19140625 -11.6484375 4.1953125 C-8.48354938 -0.01953851 -5.10700419 -0.52112288 0 0 Z " fill="#000000" transform="translate(438,13)"/>
<path d="M0 0 C2.97717008 1.98478006 4.62826444 3.36831119 5.44140625 6.9375 C5.65475843 10.57136936 5.46529356 12.32906879 3.33447266 15.40161133 C0.77371419 18.2518678 -1.57613159 19.7784231 -4.91796875 21.63671875 C-5.48826813 21.95811829 -6.0585675 22.27951782 -6.64614868 22.61065674 C-8.48796336 23.64609408 -10.33737082 24.66700612 -12.1875 25.6875 C-14.095388 26.75269437 -16.00151235 27.82099395 -17.90745544 28.8896637 C-19.16928034 29.59695828 -20.43178032 30.30304989 -21.69496155 31.00791931 C-25.29671904 33.02248383 -28.85781866 35.08848887 -32.3828125 37.234375 C-33.14698486 37.69884033 -33.91115723 38.16330566 -34.69848633 38.6418457 C-36.05805911 39.47511199 -37.41255275 40.31675379 -38.76049805 41.16870117 C-42.82903471 43.64494095 -46.23726937 44.75782726 -51 45 C-53.92346557 43.63571607 -55.72750909 42.27249091 -58 40 C-59.05598581 36.42589419 -59.20905157 34.54967786 -57.87353516 31.03808594 C-55.68502273 27.48923937 -53.80819308 26.20652994 -50.2109375 24.140625 C-49.35609268 23.64106293 -49.35609268 23.64106293 -48.48397827 23.13140869 C-46.66418144 22.07261893 -44.83271448 21.03623465 -43 20 C-41.80806774 19.31071519 -40.61697952 18.61996869 -39.42675781 17.92773438 C-35.83821969 15.84710598 -32.23283345 13.7969289 -28.625 11.75 C-26.79066764 10.70610254 -24.95668597 9.66159127 -23.12277222 8.61695862 C-21.40885527 7.64196699 -19.6929855 6.67041067 -17.97705078 5.69897461 C-15.60170332 4.34338637 -13.25280507 2.95489824 -10.90625 1.55078125 C-6.68075771 -0.70395052 -4.71956793 -0.68509857 0 0 Z " fill="#000000" transform="translate(489,63)"/>
<path d="M0 0 C1.184729 -0.01583633 2.36945801 -0.03167267 3.59008789 -0.04798889 C4.86102295 -0.04302902 6.13195801 -0.03806915 7.44140625 -0.03295898 C8.75423584 -0.03915756 10.06706543 -0.04535614 11.41967773 -0.05174255 C14.19370102 -0.06213074 16.96721082 -0.05760842 19.74121094 -0.04296875 C23.28914844 -0.02577341 26.83546752 -0.04928993 30.38322449 -0.08445835 C33.77771339 -0.11174707 37.17181275 -0.1016956 40.56640625 -0.09545898 C41.83734131 -0.10871719 43.10827637 -0.1219754 44.41772461 -0.13563538 C54.20752604 -0.0320702 54.20752604 -0.0320702 57.30444336 2.92797852 C59.87349468 6.86662464 59.9464327 9.99063958 59.00390625 14.53344727 C57.12770012 17.03505544 55.76499322 18.15290378 53.00390625 19.53344727 C51.18223467 19.63965884 49.35670605 19.68225449 47.53198242 19.69458008 C46.38706833 19.70418762 45.24215424 19.71379517 44.06254578 19.72369385 C42.19853874 19.73006866 42.19853874 19.73006866 40.296875 19.73657227 C39.02419266 19.74227234 37.75151031 19.74797241 36.44026184 19.75384521 C33.74260887 19.76330657 31.04506745 19.77019741 28.34741211 19.77368164 C24.89734191 19.77915907 21.44766784 19.80317047 17.99772167 19.83165359 C14.70163619 19.85480695 11.40553042 19.85673181 8.109375 19.86157227 C6.87277634 19.87391907 5.63617767 19.88626587 4.36210632 19.89898682 C3.20773575 19.89598572 2.05336517 19.89298462 0.86401367 19.88989258 C-0.14921463 19.89353821 -1.16244293 19.89718384 -2.20637512 19.90093994 C-6.10028559 19.38799087 -8.88236708 17.90029363 -11.37109375 14.84594727 C-12.31564483 11.35110826 -12.31533696 7.92768105 -10.99609375 4.53344727 C-7.34563875 1.0209759 -5.0377228 0.03003408 0 0 Z " fill="#000000" transform="translate(452.99609375,130.466552734375)"/>
</svg>
