<?xml version="1.0" encoding="UTF-8"?>
<svg version="1.1" xmlns="http://www.w3.org/2000/svg" width="512" height="512">
<path d="M0 0 C2.501372 2.20686796 4.9412825 4.46455882 7.3671875 6.75390625 C8.10453125 7.42679688 8.841875 8.0996875 9.6015625 8.79296875 C27.23077288 25.48445517 37.97973756 47.61807699 44.3671875 70.75390625 C44.65529297 71.77556885 44.65529297 71.77556885 44.94921875 72.81787109 C50.08402853 92.04890963 49.7404791 117.63625254 44.3671875 136.75390625 C44.1520752 137.54168457 43.93696289 138.32946289 43.71533203 139.14111328 C38.13235084 158.9677084 29.1463838 177.35620118 15.3671875 192.75390625 C14.81579102 193.37007812 14.26439453 193.98625 13.69628906 194.62109375 C6.50582295 202.57412457 -1.01139198 210.21503859 -8.5703125 217.81640625 C-9.25561035 218.50645752 -9.9409082 219.19650879 -10.64697266 219.9074707 C-11.31132324 220.569646 -11.97567383 221.23182129 -12.66015625 221.9140625 C-13.23499756 222.48777588 -13.80983887 223.06148926 -14.40209961 223.65258789 C-16.2716708 225.4137129 -18.17792661 227.07394592 -20.13134766 228.73925781 C-25.33610098 233.27282408 -30.13068795 238.20326322 -34.95962334 243.12781334 C-37.2634894 245.47450382 -39.57734612 247.811244 -41.89052677 250.14874744 C-46.17484205 254.4783114 -50.45535128 258.81145353 -54.71850586 263.16186523 C-91.20108492 300.36743218 -91.20108492 300.36743218 -114.83203125 307.75390625 C-119.76051386 309.36759769 -121.99429116 310.5659905 -124.5078125 315.2421875 C-125.7167141 318.14939809 -126.77580486 321.10370829 -127.83984375 324.06640625 C-129.57746147 328.82927872 -131.82290862 333.13562068 -134.3828125 337.50390625 C-134.91950562 338.45668457 -134.91950562 338.45668457 -135.46704102 339.42871094 C-144.16699477 354.06221413 -157.50292456 365.95188625 -169.42779064 377.88339853 C-170.88256561 379.33961206 -172.33590046 380.7972478 -173.78876495 382.25536728 C-178.88444115 387.3694388 -183.98514528 392.47843082 -189.09082031 397.58251953 C-193.80730548 402.29780359 -198.51251377 407.02413563 -203.21258712 411.75577366 C-207.28645022 415.85599227 -211.3681958 419.94825445 -215.4558928 424.0346812 C-217.88042985 426.45871459 -220.30193936 428.88557102 -222.71544647 431.32059097 C-251.95978502 460.78004351 -284.60186236 480.78027523 -327.20910645 481.05978394 C-365.00640939 481.18196136 -397.05450324 468.77979413 -424.6328125 442.75390625 C-425.37015625 442.08101563 -426.1075 441.408125 -426.8671875 440.71484375 C-444.50145341 424.01857071 -455.23335019 401.89114353 -461.6328125 378.75390625 C-461.82488281 378.07811523 -462.01695312 377.40232422 -462.21484375 376.70605469 C-471.03937287 343.98456597 -463.80433009 306.02885826 -447.21525574 277.09013367 C-438.13369467 261.56294872 -425.60174161 249.11830927 -412.92872405 236.51251578 C-410.36723992 233.96134618 -407.81574046 231.40021678 -405.26252747 228.84077454 C-400.97895687 224.54998141 -396.68714866 220.26756491 -392.39038086 215.98999023 C-387.4602023 211.0815838 -382.54461532 206.15891749 -377.63632601 201.22862977 C-373.38003993 196.95405082 -369.11583303 192.68749112 -364.84519368 188.42725211 C-362.3127974 185.90101349 -359.7829918 183.37233884 -357.26039696 180.83630943 C-344.33997517 167.85643087 -331.50575105 155.14448508 -314.9453125 146.87890625 C-314.24035645 146.50636719 -313.53540039 146.13382813 -312.80908203 145.75 C-308.61352476 143.5764325 -304.54759995 142.10280689 -300.0078125 140.75390625 C-295.97266405 139.15300496 -294.83882465 138.12439584 -292.6953125 134.26953125 C-291.48072775 131.36523871 -290.43643888 128.40988458 -289.390625 125.44140625 C-287.68617867 120.66340071 -285.44718239 116.37208753 -282.8828125 112.00390625 C-282.34599854 111.05112793 -282.34599854 111.05112793 -281.79833984 110.07910156 C-273.10002551 95.4452496 -259.76221044 83.55543598 -247.83783436 71.62441397 C-246.38305939 70.16820044 -244.92972454 68.7105647 -243.47686005 67.25244522 C-238.38118385 62.1383737 -233.28047972 57.02938168 -228.17480469 51.92529297 C-223.45831952 47.21000891 -218.75311123 42.48367687 -214.05303788 37.75203884 C-209.97917478 33.65182023 -205.8974292 29.55955805 -201.8097322 25.4731313 C-199.38519515 23.04909791 -196.96368564 20.62224148 -194.55017853 18.18722153 C-141.68727996 -35.0645232 -61.00191431 -52.04169247 0 0 Z M-149.015625 81.0390625 C-150.68263152 82.70793731 -152.34986135 84.3765891 -154.01730347 86.04502869 C-158.37596346 90.40748153 -162.73161026 94.77293054 -167.08660889 99.13903809 C-171.54288128 103.60559457 -176.00203488 108.06927263 -180.4609375 112.53320312 C-189.18769745 121.2706433 -197.91127275 130.01125558 -206.6328125 138.75390625 C-203.95800297 140.53711261 -201.39828261 141.73750166 -198.44213867 142.96044922 C-183.7382189 149.07211996 -170.11322804 157.00152403 -158.953125 168.51953125 C-156.92957637 170.98512015 -156.92957637 170.98512015 -154.6328125 170.75390625 C-154.3853125 171.32496094 -154.1378125 171.89601563 -153.8828125 172.484375 C-152.43715553 175.10914594 -150.71606834 176.91246851 -148.6328125 179.06640625 C-137.27939115 191.53147881 -128.6587792 206.64568298 -123.6328125 222.75390625 C-116.29408379 216.74759921 -109.75901826 209.94544012 -103.10571289 203.20629883 C-101.54529567 201.62756062 -99.9816966 200.05202061 -98.41796875 198.4765625 C-97.49894775 197.54593994 -96.57992676 196.61531738 -95.63305664 195.65649414 C-93.45106076 193.4988715 -91.18467019 191.4746997 -88.86083984 189.47094727 C-84.11614645 185.35758117 -79.65808282 180.97764484 -75.19921875 176.55859375 C-73.88315895 175.25464157 -73.88315895 175.25464157 -72.54051208 173.92434692 C-70.69440182 172.09199515 -68.84978539 170.25813723 -67.0065918 168.42285156 C-65.13867187 166.56644898 -63.26629512 164.7145197 -61.3894043 162.8671875 C-37.15256006 139.31365577 -37.15256006 139.31365577 -28.34057617 107.5949707 C-28.27038807 97.97074384 -28.79794665 89.73556573 -32.6328125 80.75390625 C-32.9834375 79.87734375 -33.3340625 79.00078125 -33.6953125 78.09765625 C-36.75769581 71.2072938 -41.34145344 66.05420342 -46.6328125 60.75390625 C-47.2721875 60.10292969 -47.9115625 59.45195313 -48.5703125 58.78125 C-59.96125289 47.98358776 -74.30877548 44.24849638 -89.57885742 44.40454102 C-116.19162515 45.18238373 -131.49039048 63.45573851 -149.015625 81.0390625 Z M-297.00610352 229.02954102 C-298.05201954 230.08244166 -299.0953596 231.13790472 -300.13671875 232.1953125 C-300.69342758 232.75580795 -301.25013641 233.31630341 -301.82371521 233.89378357 C-304.21153029 236.29793514 -306.59359222 238.70775542 -308.97583008 241.11743164 C-310.71479239 242.87472166 -312.45693373 244.62881767 -314.19921875 246.3828125 C-314.72350967 246.91540176 -315.2478006 247.44799103 -315.78797913 247.99671936 C-318.56484546 250.79133773 -321.40411328 253.45255795 -324.390625 256.02270508 C-329.45389642 260.40675303 -334.18798499 265.10918112 -338.94140625 269.82421875 C-339.41930162 270.2980386 -339.897197 270.77185844 -340.38957405 271.26003647 C-342.91864797 273.76841098 -345.44454452 276.27993692 -347.96801758 278.79394531 C-350.53887051 281.35376237 -353.12119449 283.90167146 -355.70631313 286.44706917 C-357.72516881 288.43946502 -359.73478763 290.44099794 -361.74223518 292.44488144 C-363.14079005 293.8363587 -364.54891902 295.21819277 -365.9573822 296.59963989 C-380.58863615 311.27984527 -388.9036764 326.65989281 -388.9519043 347.54614258 C-388.8504057 355.18604009 -387.64853895 361.69075745 -384.6328125 368.75390625 C-384.106875 370.06875 -384.106875 370.06875 -383.5703125 371.41015625 C-380.50792919 378.3005187 -375.92417156 383.45360908 -370.6328125 388.75390625 C-369.67375 389.73037109 -369.67375 389.73037109 -368.6953125 390.7265625 C-357.11826521 401.70063858 -342.60562678 405.26749213 -327.11938477 405.17578125 C-301.03470046 404.43113443 -285.35999307 385.63545617 -268.25 368.46875 C-266.58299348 366.79987519 -264.91576365 365.1312234 -263.24832153 363.46278381 C-258.88966154 359.10033097 -254.53401474 354.73488196 -250.17901611 350.36877441 C-245.72274372 345.90221793 -241.26359012 341.43853987 -236.8046875 336.97460938 C-228.07792755 328.2371692 -219.35435225 319.49655692 -210.6328125 310.75390625 C-212.96888737 309.196523 -214.82619087 308.17308694 -217.37109375 307.125 C-232.74257896 300.64664172 -247.09363549 292.65208454 -258.8125 280.4921875 C-260.45438833 278.52369846 -260.45438833 278.52369846 -262.6328125 278.75390625 C-263.0040625 277.89732422 -263.0040625 277.89732422 -263.3828125 277.0234375 C-264.82846947 274.39866656 -266.54955666 272.59534399 -268.6328125 270.44140625 C-279.98623385 257.97633369 -288.6068458 242.86212952 -293.6328125 226.75390625 C-295.06051433 226.63855617 -295.06051433 226.63855617 -297.00610352 229.02954102 Z " fill="#FED300" transform="translate(464.6328125,31.24609375)"/>
<path d="M0 0 C1.31171727 3.93515182 0.20714 6.71051157 -0.875 10.5625 C-6.5916334 30.92554243 -8.68072166 63.63855668 1 83 C1.40039062 85.74829102 1.40039062 85.74829102 1 89 C-0.74475467 91.28292176 -2.34708626 93.07359867 -4.40625 95.02734375 C-4.96437378 95.57934952 -5.52249756 96.13135529 -6.09753418 96.7000885 C-7.88475274 98.4604254 -9.69192765 100.19861655 -11.5 101.9375 C-12.68621481 103.10217377 -13.87112524 104.26817763 -15.0546875 105.43554688 C-19.53347098 109.82935448 -24.0179046 114.17398595 -28.77368164 118.26928711 C-33.74760979 122.59192133 -38.4123112 127.21272605 -43.08984375 131.8515625 C-43.55670656 132.31434978 -44.02356937 132.77713707 -44.50457954 133.25394821 C-46.9752965 135.70397023 -49.44283894 138.15714025 -51.90795898 140.61279297 C-53.92010862 142.61609781 -55.9380931 144.61322012 -57.96166992 146.60498047 C-83.00711478 170.6631272 -83.00711478 170.6631272 -92.29223633 203.15893555 C-92.36242443 212.78316241 -91.83486585 221.01834052 -88 230 C-87.649375 230.8765625 -87.29875 231.753125 -86.9375 232.65625 C-80.39600118 247.37462234 -67.13363761 257.03079644 -52.625 262.97265625 C-38.06794544 267.86291677 -21.85651115 265.83982679 -8.1171875 259.71484375 C4.79738333 253.25755834 14.59446687 241.52524042 24.63953781 231.40506172 C27.06659808 228.96043326 29.49733809 226.51951807 31.92910767 224.07957458 C38.8351519 217.14921689 45.73536473 210.21307381 52.63134766 203.27270508 C56.86613803 199.01116881 61.10575794 194.75448731 65.34840775 190.50077629 C66.96026368 188.8827121 68.57021957 187.26275285 70.1782341 185.64087105 C72.41817603 183.38175961 74.66416778 181.12883259 76.91162109 178.87719727 C77.57348419 178.20657257 78.23534729 177.53594788 78.91726685 176.84500122 C79.5309613 176.23261093 80.14465576 175.62022064 80.77694702 174.98927307 C81.30597311 174.45710458 81.8349992 173.92493608 82.38005638 173.37664127 C84 172 84 172 86.06276894 170.98333645 C89.10650227 169.43834061 90.6508055 166.7054076 92.5 163.9375 C92.89654785 163.3496875 93.2930957 162.761875 93.70166016 162.15625 C102.48883165 148.87559726 105.99097345 133.88658557 103.34375 118.08203125 C100.55566655 104.71530035 94.75945263 94.46753193 85.34936523 84.65673828 C73.1194968 71.84891337 69.21482798 56.73085605 69.40844727 39.37719727 C69.90695525 26.21987347 74.54898013 13.48006868 84.00390625 3.98828125 C85.61421844 2.59267736 87.29943853 1.28409744 89 0 C105.34019124 5.986708 119.57841961 13.9077848 133 25 C134.15628906 25.94359375 134.15628906 25.94359375 135.3359375 26.90625 C140.0522998 30.8817278 144.10376636 35.22551697 148 40 C148.7734375 40.93585938 149.546875 41.87171875 150.34375 42.8359375 C164.22725968 60.00750429 172.82162017 79.3651752 177 101 C177.17877686 101.89533447 177.35755371 102.79066895 177.54174805 103.71313477 C178.95914864 111.36457254 179.34972685 118.78964098 179.3125 126.5625 C179.30758545 127.78831787 179.3026709 129.01413574 179.29760742 130.27709961 C179.16764362 140.4402692 178.19264865 150.08560248 176 160 C175.83371094 160.78665039 175.66742188 161.57330078 175.49609375 162.38378906 C172.94069637 174.19067139 168.97619682 184.51510091 163 195 C162.5064502 195.87760986 162.5064502 195.87760986 162.00292969 196.77294922 C155.22209126 208.70195161 146.550899 218.75067374 136.86279297 228.42773438 C135.9979982 229.29924637 135.13320343 230.17075836 134.24220276 231.06867981 C131.90058759 233.42587778 129.55465082 235.77857722 127.20588064 238.1286335 C125.73000858 239.60594076 124.25557532 241.08466901 122.78162003 242.56388855 C117.61464481 247.74928737 112.4426116 252.92957718 107.265625 258.10498047 C102.47988233 262.88952348 97.70539655 267.68509725 92.93608177 272.48601103 C88.80705755 276.64139023 84.67015086 280.78881396 80.52729332 284.93040133 C78.06807433 287.38911635 75.61189016 289.85066465 73.16369247 292.32035828 C43.83688595 321.88648516 11.18533115 342.02535622 -31.57629395 342.30587769 C-69.37359689 342.42805511 -101.42169074 330.02588788 -129 304 C-129.73734375 303.32710938 -130.4746875 302.65421875 -131.234375 301.9609375 C-148.86864091 285.26466446 -159.60053769 263.13723728 -166 240 C-166.19207031 239.32420898 -166.38414062 238.64841797 -166.58203125 237.95214844 C-175.40656037 205.23065972 -168.17151759 167.27495201 -151.58244324 138.33622742 C-142.50088217 122.80904247 -129.96892911 110.36440302 -117.29591155 97.75860953 C-114.73442742 95.20743993 -112.18292796 92.64631053 -109.62971497 90.08686829 C-105.34614437 85.79607516 -101.05433616 81.51365866 -96.75756836 77.23608398 C-91.8273898 72.32767755 -86.91180282 67.40501124 -82.00351351 62.47472352 C-77.74722743 58.20014457 -73.48302053 53.93358487 -69.21238118 49.67334586 C-66.6799849 47.14710724 -64.1501793 44.61843259 -61.62758446 42.08240318 C-48.68971004 29.0849917 -35.82405881 16.35681791 -19.25 8.0625 C-18.19631226 7.51831421 -18.19631226 7.51831421 -17.12133789 6.96313477 C-11.58478061 4.15905259 -5.93498637 1.83305194 0 0 Z " fill="#384949" transform="translate(169,170)"/>
<path d="M0 0 C16.71122923 7.88113585 27.60431311 33.78889391 33.56640625 50.16796875 C34.90124324 54.06586489 35.99014814 58.00709225 37 62 C37.31839844 63.20398438 37.63679687 64.40796875 37.96484375 65.6484375 C42.20510312 84.91523815 42.35003266 108.96509935 37 128 C36.7848877 128.78777832 36.56977539 129.57555664 36.34814453 130.38720703 C30.76516334 150.21380215 21.7791963 168.60229493 8 184 C7.44860352 184.61617187 6.89720703 185.23234375 6.32910156 185.8671875 C-0.86136455 193.82021832 -8.37857948 201.46113234 -15.9375 209.0625 C-16.62279785 209.75255127 -17.3080957 210.44260254 -18.01416016 211.15356445 C-18.67851074 211.81573975 -19.34286133 212.47791504 -20.02734375 213.16015625 C-20.60218506 213.73386963 -21.17702637 214.30758301 -21.76928711 214.89868164 C-23.6388583 216.65980665 -25.54511411 218.32003967 -27.49853516 219.98535156 C-32.70328848 224.51891783 -37.49787545 229.44935697 -42.32681084 234.37390709 C-44.6306769 236.72059757 -46.94453362 239.05733775 -49.25771427 241.39484119 C-53.54202955 245.72440515 -57.82253878 250.05754728 -62.08569336 254.40795898 C-82.35610003 275.08008199 -101.86528054 292.93966662 -130 302 C-129.33639411 295.49666229 -128.06235139 289.17679261 -126.71875 282.78125 C-123.25611573 264.56478276 -123.64255352 245.19169913 -127.9296875 227.171875 C-128.1786377 226.12290039 -128.1786377 226.12290039 -128.43261719 225.05273438 C-128.96432652 222.97590648 -128.96432652 222.97590648 -129.82519531 220.96289062 C-130.5703125 218.953125 -130.5703125 218.953125 -131 215 C-129.24312286 211.78857235 -126.63658561 209.50321114 -124 207 C-122.61375082 205.58323983 -121.22768507 204.16629342 -119.84536743 202.74569702 C-117.80015793 200.65523011 -115.72954981 198.59088912 -113.6574707 196.52709961 C-112.06541034 194.94040054 -110.4787701 193.34842258 -108.89257812 191.75585938 C-107.85709125 190.72103344 -106.82129414 189.68651783 -105.78515625 188.65234375 C-104.86613525 187.73445068 -103.94711426 186.81655762 -103.00024414 185.87084961 C-100.80725453 183.72983739 -98.53480853 181.709647 -96.21435547 179.70776367 C-91.55384098 175.66311284 -87.16748493 171.3655739 -82.78515625 167.0234375 C-81.50239052 165.75277939 -81.50239052 165.75277939 -80.19371033 164.45645142 C-78.39468008 162.67117678 -76.59714145 160.8843979 -74.80102539 159.09619141 C-72.98160806 157.2882904 -71.15773442 155.4848626 -69.3293457 153.68603516 C-45.36876761 130.30285701 -45.36876761 130.30285701 -36.70776367 98.84106445 C-36.63763752 89.22533218 -37.14898985 80.968965 -41 72 C-41.38542969 71.08863281 -41.77085937 70.17726563 -42.16796875 69.23828125 C-44.45745974 64.28142211 -47.05714674 60.39718127 -50.9609375 56.5703125 C-52 55 -52 55 -51.86463928 53.22283936 C-50.62781355 50.04317244 -48.62233221 48.26393664 -46.20483398 45.86425781 C-45.70725586 45.36624161 -45.20967773 44.8682254 -44.69702148 44.3551178 C-43.05372425 42.71390739 -41.40006365 41.08357337 -39.74609375 39.453125 C-38.60343749 38.31606506 -37.46144262 37.17834012 -36.32008362 36.03997803 C-33.31652494 33.04786524 -30.30406586 30.06487141 -27.28967285 27.0836792 C-24.21438808 24.03910066 -21.14759455 20.9859955 -18.08007812 17.93359375 C-12.06166955 11.94734482 -6.03383283 5.97070155 0 0 Z " fill="#FE9F00" transform="translate(472,40)"/>
<path d="M0 0 C1.31171727 3.93515182 0.20714 6.71051157 -0.875 10.5625 C-6.5916334 30.92554243 -8.68072166 63.63855668 1 83 C1.40039062 85.74829102 1.40039062 85.74829102 1 89 C-0.74475467 91.28292176 -2.34708626 93.07359867 -4.40625 95.02734375 C-4.96437378 95.57934952 -5.52249756 96.13135529 -6.09753418 96.7000885 C-7.88475274 98.4604254 -9.69192765 100.19861655 -11.5 101.9375 C-12.68621481 103.10217377 -13.87112524 104.26817763 -15.0546875 105.43554688 C-19.53347098 109.82935448 -24.0179046 114.17398595 -28.77368164 118.26928711 C-33.74760979 122.59192133 -38.4123112 127.21272605 -43.08984375 131.8515625 C-43.55670656 132.31434978 -44.02356937 132.77713707 -44.50457954 133.25394821 C-46.9752965 135.70397023 -49.44283894 138.15714025 -51.90795898 140.61279297 C-53.92010862 142.61609781 -55.9380931 144.61322012 -57.96166992 146.60498047 C-83.00711478 170.6631272 -83.00711478 170.6631272 -92.29223633 203.15893555 C-92.3623831 212.7774949 -91.84565493 221.02680515 -88 230 C-87.62617187 230.89976562 -87.25234375 231.79953125 -86.8671875 232.7265625 C-84.15057413 238.68152294 -80.54125176 243.31478925 -76 248 C-81.24820057 254.36508567 -87.02471452 260.15322975 -92.8671875 265.96484375 C-93.91258325 267.00837079 -94.95775575 268.05212152 -96.00271606 269.09608459 C-98.7327284 271.82230745 -101.46573193 274.54551181 -104.19940186 277.26806641 C-106.99675154 280.05512459 -109.79121701 282.84507146 -112.5859375 285.63476562 C-118.05449694 291.09265081 -123.52622445 296.54734559 -129 302 C-145.17010013 294.37406453 -156.16120822 269.33372733 -161.93896484 253.41259766 C-167.14711275 238.04669409 -169.42334896 223.1738735 -169.375 206.9375 C-169.37412384 206.2145575 -169.37324768 205.49161499 -169.37234497 204.74676514 C-169.19531837 160.30634969 -147.84673242 128.14737345 -117.29591155 97.75860953 C-114.73442742 95.20743993 -112.18292796 92.64631053 -109.62971497 90.08686829 C-105.34614437 85.79607516 -101.05433616 81.51365866 -96.75756836 77.23608398 C-91.8273898 72.32767755 -86.91180282 67.40501124 -82.00351351 62.47472352 C-77.74722743 58.20014457 -73.48302053 53.93358487 -69.21238118 49.67334586 C-66.6799849 47.14710724 -64.1501793 44.61843259 -61.62758446 42.08240318 C-48.68971004 29.0849917 -35.82405881 16.35681791 -19.25 8.0625 C-18.19631226 7.51831421 -18.19631226 7.51831421 -17.12133789 6.96313477 C-11.58478061 4.15905259 -5.93498637 1.83305194 0 0 Z " fill="#4A696E" transform="translate(169,170)"/>
<path d="M0 0 C20.02361267 6.41742902 37.38445815 16.75108047 52 32 C50.43056316 35.78301227 48.06898723 38.17256547 45.18310547 41.04394531 C44.69513489 41.53220795 44.20716431 42.02047058 43.70440674 42.52352905 C42.09669725 44.12984962 40.48202899 45.72897713 38.8671875 47.328125 C37.74859765 48.44298317 36.63044971 49.55828487 35.51272583 50.67401123 C32.57440675 53.60470609 29.63013045 56.52934422 26.68457031 59.45275879 C23.67801738 62.43882725 20.67714118 65.43058859 17.67578125 68.421875 C11.78939314 74.28683456 5.896699 80.14540732 0 86 C-1.13073724 85.04842531 -2.25900999 84.09392157 -3.38623047 83.13818359 C-4.0147995 82.60695892 -4.64336853 82.07573425 -5.29098511 81.52841187 C-14.08029555 73.6679266 -17.72700996 59.73299481 -18.484375 48.34765625 C-19.10959745 31.41373599 -15.76958394 17.03363099 -4.21875 3.98828125 C-2.85841657 2.61190616 -1.43666312 1.29650087 0 0 Z " fill="#4A696E" transform="translate(257,170)"/>
<path d="M0 0 C12.31192941 11.58769827 18.80851585 26.35089412 19.4375 43.3125 C18.96014033 60.47669319 12.01721001 74.10930504 1 87 C-18.68170872 82.45806722 -38.41673014 69.65435207 -52 55 C-52 54.34 -52 53.68 -52 53 C-50.60691833 51.62445068 -50.60691833 51.62445068 -48.63452148 49.99902344 C-43.45040049 45.58712054 -38.66217773 40.82416786 -33.84765625 36.015625 C-32.89748539 35.06867545 -31.94724296 34.12179772 -30.99693298 33.17498779 C-29.02280275 31.20679546 -27.05069883 29.23659859 -25.07983398 27.26513672 C-22.5540893 24.73928954 -20.02147958 22.2204452 -17.48714542 19.70322037 C-15.5303793 17.75755256 -13.57815452 15.8073773 -11.62719536 13.85588837 C-10.24255019 12.47299379 -8.85336883 11.09464597 -7.46412659 9.71636963 C-6.62913132 8.87829773 -5.79413605 8.04022583 -4.93383789 7.17675781 C-4.19629776 6.4406427 -3.45875763 5.70452759 -2.6988678 4.94610596 C-0.78954942 3.01141249 -0.78954942 3.01141249 0 0 Z " fill="#FE9F00" transform="translate(255,255)"/>
<path d="M0 0 C6.49635414 4.00013958 11.65316873 9.25683108 16.9909668 14.66186523 C17.94033471 15.60052416 18.89020165 16.53867863 19.84057617 17.47631836 C20.74227539 18.38188477 21.64397461 19.28745117 22.57299805 20.22045898 C23.38615479 21.03699951 24.19931152 21.85354004 25.03710938 22.69482422 C29.16512765 27.57116641 30.70569942 31.78617357 30.46362305 38.04858398 C29.85877365 42.6636677 28.04209612 45.42550811 24.6784668 48.53686523 C21.42133998 50.73542584 18.78634675 51.40871887 14.9284668 51.53686523 C14.20143555 51.57424805 13.4744043 51.61163086 12.7253418 51.65014648 C4.51598237 50.2777229 -1.0012879 43.50786917 -6.58422852 37.8527832 C-8.07160075 36.34929695 -9.57437745 34.86255874 -11.0793457 33.37670898 C-12.04124679 32.41282588 -13.00221706 31.44801278 -13.9621582 30.48217773 C-14.82357422 29.61737793 -15.68499023 28.75257813 -16.57250977 27.86157227 C-20.65455682 23.07495999 -22.46657144 18.75221247 -22.2355957 12.53686523 C-21.27250136 7.15807419 -18.42190511 3.38827207 -14.0715332 0.22436523 C-9.31835869 -1.23815 -4.71986239 -2.00978459 0 0 Z " fill="#D2C5C2" transform="translate(410.821533203125,389.775634765625)"/>
<path d="M0 0 C0.72703125 -0.03738281 1.4540625 -0.07476562 2.203125 -0.11328125 C10.41248442 1.25914233 15.9297547 8.02899606 21.51269531 13.68408203 C23.00006755 15.18756828 24.50284425 16.67430649 26.0078125 18.16015625 C26.96971359 19.12403936 27.93068386 20.08885245 28.890625 21.0546875 C29.75204102 21.9194873 30.61345703 22.78428711 31.50097656 23.67529297 C35.31410818 28.14657474 37.37652184 32.24072392 37.08984375 38.2265625 C36.33343081 42.86937298 34.73739206 46.77776774 30.94921875 49.703125 C26.55086119 52.12862703 22.79641542 53.03341649 17.75 52.3125 C10.35487566 49.46632311 5.37373976 44.52051711 -0.08813477 38.94091797 C-1.56463176 37.43532623 -3.05906489 35.94943968 -4.55664062 34.46484375 C-14.55486914 24.40150504 -14.55486914 24.40150504 -15.6484375 17.96875 C-15.59469987 13.02488781 -15.09571167 9.53200352 -12.25 5.3125 C-8.36860294 1.72220772 -5.27004742 0.17505402 0 0 Z " fill="#DED7D5" transform="translate(86.25,70.6875)"/>
<path d="M0 0 C3.1091707 3.39598722 4.14530316 7.19086376 5.296875 11.546875 C5.49476624 12.27690735 5.69265747 13.0069397 5.89654541 13.75909424 C6.31116835 15.30104399 6.72104505 16.84427685 7.12646484 18.38867188 C7.74548115 20.73288712 8.38934125 23.06929626 9.03515625 25.40625 C9.43643336 26.91104917 9.83622126 28.41624641 10.234375 29.921875 C10.42698914 30.611745 10.61960327 31.30161499 10.8180542 32.01239014 C12.32144548 37.89264001 12.21522606 43.02944741 9.875 48.75 C6.68017904 52.58378515 3.41038489 54.62242389 -1.46875 55.38671875 C-7.12887795 55.63392313 -10.66678361 54.92052912 -15 51 C-19.25283341 45.26614139 -20.8826269 39.52296956 -22.71972656 32.70654297 C-23.24623805 30.76388041 -23.79758525 28.82951573 -24.3515625 26.89453125 C-28.99307753 9.98615506 -28.99307753 9.98615506 -25.3125 2.625 C-17.73887501 -5.97208783 -9.24088321 -7.52164912 0 0 Z " fill="#D2C5C2" transform="translate(322,448)"/>
<path d="M0 0 C1.14017578 0.28294922 2.28035156 0.56589844 3.45507812 0.85742188 C11.29147596 2.92059492 16.33454589 4.74060924 20.625 11.9375 C21.93565657 16.5633467 22.16406159 20.08744273 20.6875 24.6875 C18.09479213 28.87877928 15.22367864 31.73100776 10.6875 33.6875 C2.8814143 34.92744249 -4.67945865 32.62158138 -12.12744141 30.48925781 C-14.06870953 29.93572943 -16.01576961 29.40810877 -17.96484375 28.8828125 C-25.38060442 26.80793646 -31.3777614 24.93115846 -36.6875 19.0625 C-39.13878228 13.97137526 -39.46173246 8.98155668 -37.58203125 3.59375 C-35.55636395 -0.30876007 -33.30805018 -2.55835602 -29.3125 -4.3125 C-19.91261126 -6.77751604 -9.12375895 -2.39767558 0 0 Z " fill="#DFD7D5" transform="translate(47.3125,183.3125)"/>
<path d="M0 0 C6.36952109 5.76290003 8.17737018 12.62663656 10.34472656 20.66845703 C10.87123805 22.61111959 11.42258525 24.54548427 11.9765625 26.48046875 C16.61807753 43.38884494 16.61807753 43.38884494 12.9375 50.75 C8.92923856 55.29991839 6.05632436 57.99221137 -0.2578125 58.46875 C-5.5903175 58.23262432 -9.17336893 56.63966823 -12.84155273 52.77905273 C-15.59881182 49.39745259 -16.80648863 45.81998829 -17.8671875 41.6328125 C-18.06224884 40.90561005 -18.25731018 40.17840759 -18.45828247 39.4291687 C-18.86409551 37.89997563 -19.26201142 36.36866686 -19.65234375 34.83544922 C-20.24812039 32.50734491 -20.87597371 30.18963747 -21.5078125 27.87109375 C-21.90038968 26.37551107 -22.29107809 24.87943106 -22.6796875 23.3828125 C-22.86602753 22.69921661 -23.05236755 22.01562073 -23.24435425 21.31130981 C-24.79886024 15.05312832 -24.64603071 9.86998621 -21.6875 4.0625 C-16.00052838 -2.54668324 -7.74356613 -3.72838369 0 0 Z " fill="#DFD7D5" transform="translate(202.375,10.625)"/>
<path d="M0 0 C1.94126812 0.55352838 3.8883282 1.08114904 5.83740234 1.60644531 C13.25316301 3.68132135 19.25031999 5.55809936 24.56005859 11.42675781 C27.01134088 16.51788255 27.33429105 21.50770113 25.45458984 26.89550781 C23.42328961 30.8088699 21.24081387 33.1425852 17.18505859 34.80175781 C11.38710256 35.86974147 6.89049891 35.6638094 1.17724609 34.10644531 C0.44813019 33.91712433 -0.28098572 33.72780334 -1.03219604 33.53274536 C-2.56178317 33.13124231 -4.08947009 32.72243483 -5.61523438 32.30664062 C-7.93553916 31.67795061 -10.26265814 31.08234305 -12.59228516 30.48925781 C-14.08629649 30.0927812 -15.57980572 29.69440666 -17.07275391 29.29394531 C-17.76039825 29.11975067 -18.4480426 28.94555603 -19.15652466 28.76608276 C-25.43847022 27.00909462 -29.39048259 24.19117259 -32.75244141 18.55175781 C-34.06309797 13.92591111 -34.291503 10.40181508 -32.81494141 5.80175781 C-24.83313871 -7.10134041 -12.71526174 -3.64032157 0 0 Z " fill="#D2C5C2" transform="translate(476.81494140625,298.1982421875)"/>
</svg>
