<?xml version="1.0" encoding="UTF-8"?>
<svg version="1.1" xmlns="http://www.w3.org/2000/svg" width="512" height="512">
<path d="M0 0 C5.84309198 3.53098677 10.52214675 8.98617579 12.5625 15.5 C12.8435812 18.59743014 12.81520139 21.68010946 12.78955078 24.78833008 C12.78979185 25.73059039 12.79003292 26.6728507 12.7902813 27.64366436 C12.78879168 30.68571692 12.77357491 33.72752268 12.7578125 36.76953125 C12.75487098 38.65083702 12.75283121 40.53214442 12.75170898 42.41345215 C12.7412343 49.37982644 12.71331181 56.34616566 12.6875 63.3125 C12.64625 78.884375 12.605 94.45625 12.5625 110.5 C44.2425 110.5 75.9225 110.5 108.5625 110.5 C108.40429321 79.59556284 108.40429321 79.59556284 108.20214844 48.69140625 C108.18408203 42.69726562 108.18408203 42.69726562 108.1807251 39.88598633 C108.17460606 37.93380074 108.16058603 35.98162973 108.14019775 34.02954102 C108.11077262 31.06239799 108.10688072 28.09617406 108.10839844 25.12890625 C108.094006 24.26769669 108.07961357 23.40648712 108.064785 22.5191803 C108.11155219 15.65524933 109.97828903 10.44898031 114.52734375 5.2578125 C115.50380859 4.44957031 115.50380859 4.44957031 116.5 3.625 C117.14839844 3.07070313 117.79679688 2.51640625 118.46484375 1.9453125 C124.96607557 -2.53412097 131.93390917 -2.17463728 139.5625 -1.5 C146.22209333 0.18085583 150.74797447 4.96378322 154.5625 10.5 C157.02744453 15.19694156 156.83226547 19.61814764 156.78955078 24.78833008 C156.78984283 25.71564941 156.79013489 26.64296875 156.79043579 27.59838867 C156.78904535 30.65553224 156.77349749 33.71243039 156.7578125 36.76953125 C156.75408136 38.8923072 156.75123486 41.01508487 156.74923706 43.13786316 C156.7416086 48.71919528 156.72196679 54.30042295 156.6998291 59.88171387 C156.67935376 65.57933133 156.67023173 71.27696571 156.66015625 76.97460938 C156.63872023 88.14978542 156.60459371 99.32488402 156.5625 110.5 C157.51503662 110.4685791 157.51503662 110.4685791 158.48681641 110.43652344 C161.38688076 110.35295419 164.28669116 110.30121226 167.1875 110.25 C168.18652344 110.21648437 169.18554688 110.18296875 170.21484375 110.1484375 C176.37001524 110.06691205 179.88898265 110.37720388 184.5625 114.5 C189.10532076 119.59220276 189.15141916 123.99973908 189.09375 130.5 C189.0975769 131.45390625 189.10140381 132.4078125 189.10534668 133.390625 C189.10806036 135.40105245 189.10073737 137.41151553 189.08398438 139.421875 C189.06256709 142.49038787 189.08380466 145.55655952 189.109375 148.625 C189.10673163 150.58333848 189.10160645 152.5416755 189.09375 154.5 C189.10184692 155.41265625 189.10994385 156.3253125 189.11828613 157.265625 C189.03668834 162.83825892 188.30662586 166.09835249 184.5625 170.5 C180.33749877 173.99021841 177.94746399 174.6949987 172.5625 174.5 C172.56618717 175.04792993 172.56987434 175.59585985 172.57367325 176.16039371 C172.6624287 189.55964356 172.72814836 202.95884115 172.76974869 216.3583231 C172.79054832 222.83852217 172.81872602 229.31850774 172.86425781 235.79858398 C172.90798816 242.06207796 172.93169432 248.32536765 172.94200897 254.58900261 C172.94935175 256.96859893 172.96368931 259.34818514 172.98542023 261.72769356 C173.12716728 277.90457156 172.51961615 292.29428065 164.75 306.875 C164.40743164 307.53927002 164.06486328 308.20354004 163.71191406 308.88793945 C160.87870632 314.23251821 157.52229435 318.92738034 153.5625 323.5 C152.66724609 324.68916016 152.66724609 324.68916016 151.75390625 325.90234375 C138.7567837 341.30891504 119.71372809 347.81429195 100.5625 351.5 C101.51125 352.2425 102.46 352.985 103.4375 353.75 C105.99505112 355.75156174 107.40876242 357.44150698 108.5625 360.5 C109.22321926 366.01623758 109.29448334 370.9234205 106.9375 376 C103.40948425 379.71370079 100.65011438 382.43364551 95.3671875 382.6015625 C93.97886719 382.55128906 93.97886719 382.55128906 92.5625 382.5 C92.49730579 397.24755387 92.49730579 397.24755387 98.8125 409.9375 C106.37396628 414.23378766 114.09607656 413.80610332 122.57592773 413.81884766 C123.99566717 413.82815592 125.41540117 413.83832592 126.83512878 413.84928894 C130.67342336 413.87650184 134.5116814 413.89171239 138.35004687 413.90471697 C142.36728254 413.92038578 146.38444404 413.94716399 150.40162659 413.9727478 C158.00163207 414.01946934 165.6016516 414.05624544 173.20172697 414.08942068 C183.47672646 414.1348496 193.75163399 414.19569805 204.02655697 414.25566864 C220.20515847 414.3496913 236.38378663 414.42316072 252.5625 414.5 C252.5625 435.62 252.5625 456.74 252.5625 478.5 C232.3512981 478.59051299 212.14026191 478.66410532 191.92890835 478.70724869 C182.54310759 478.72781892 173.15744229 478.7558328 163.77172852 478.80175781 C155.58515182 478.84179605 147.39867328 478.867473 139.21200138 478.87635398 C134.8826141 478.88154016 130.5535075 478.89361209 126.22421074 478.92292023 C122.13741807 478.95035879 118.05101789 478.95838854 113.96414185 478.95243073 C112.47558003 478.9535184 110.98700311 478.96130135 109.4985218 478.9768219 C96.30281496 479.10749979 83.95237116 476.9573731 72.1875 470.6875 C71.52250488 470.34420654 70.85750977 470.00091309 70.17236328 469.6472168 C64.82926057 466.81264668 60.120956 463.47747632 55.5625 459.5 C54.59441406 458.72785156 53.62632812 457.95570313 52.62890625 457.16015625 C43.0120794 449.13257632 37.0162164 437.99150033 32.5625 426.5 C32.12808594 425.42234375 31.69367188 424.3446875 31.24609375 423.234375 C26.90537355 410.22733885 28.2079762 396.03871865 28.5625 382.5 C27.63695312 382.53351563 26.71140625 382.56703125 25.7578125 382.6015625 C20.47488562 382.43364551 17.71551575 379.71370079 14.1875 376 C11.7926429 370.84184625 11.79527299 366.09308489 12.5625 360.5 C14.62157439 356.30831285 16.85385738 354.18798677 20.5625 351.5 C19.47453125 351.26925781 18.3865625 351.03851563 17.265625 350.80078125 C-5.7433927 345.76238692 -25.97237708 335.22741184 -39.33544922 315.25927734 C-42.64516447 309.97575761 -45.36726063 304.38126174 -47.4375 298.5 C-47.93973587 297.10887749 -47.93973587 297.10887749 -48.45211792 295.68965149 C-52.3367971 283.30720162 -51.9456712 271.06256914 -51.828125 258.19140625 C-51.82065025 255.76904267 -51.81496316 253.34667298 -51.81097412 250.92430115 C-51.79581502 244.5966171 -51.75661819 238.2693094 -51.7121582 231.94177246 C-51.67099428 225.46579069 -51.65291826 218.9897472 -51.6328125 212.51367188 C-51.59011359 199.8422888 -51.52276777 187.17116457 -51.4375 174.5 C-52.36304688 174.53351563 -53.28859375 174.56703125 -54.2421875 174.6015625 C-58.46611621 174.4673056 -60.20346766 173.17159194 -63.4375 170.5 C-67.88809322 165.26781943 -68.02695119 161.06022949 -67.96875 154.5 C-67.9725769 153.54609375 -67.97640381 152.5921875 -67.98034668 151.609375 C-67.98306036 149.59894755 -67.97573737 147.58848447 -67.95898438 145.578125 C-67.93756709 142.50961213 -67.95880466 139.44344048 -67.984375 136.375 C-67.98173163 134.41666152 -67.97660645 132.4583245 -67.96875 130.5 C-67.97684692 129.58734375 -67.98494385 128.6746875 -67.99328613 127.734375 C-67.911944 122.17920128 -67.27949474 118.80662296 -63.4375 114.5 C-57.98500355 109.69001867 -53.115189 110.01339366 -46.0625 110.25 C-45.04027344 110.26804687 -44.01804688 110.28609375 -42.96484375 110.3046875 C-40.45475251 110.35160509 -37.94662236 110.41723271 -35.4375 110.5 C-35.44638245 109.32759766 -35.45526489 108.15519531 -35.4644165 106.94726562 C-35.54560249 95.88327096 -35.60551358 84.81933696 -35.64474869 73.75511169 C-35.66559819 68.06724607 -35.69386804 62.37962146 -35.73925781 56.69189453 C-35.78280904 51.20000854 -35.80665694 45.70835398 -35.81700897 40.21630859 C-35.82438365 38.1239864 -35.83878468 36.03167646 -35.86042023 33.93945312 C-35.88957715 31.00232857 -35.89345082 28.0661529 -35.89160156 25.12890625 C-35.90598267 24.2693483 -35.92036377 23.40979034 -35.93518066 22.52418518 C-35.88858991 15.65806503 -34.02334608 10.45084622 -29.47265625 5.2578125 C-28.82167969 4.71898437 -28.17070312 4.18015625 -27.5 3.625 C-26.85160156 3.07070313 -26.20320313 2.51640625 -25.53515625 1.9453125 C-18.47077988 -2.92213491 -7.84396301 -3.47595223 0 0 Z " fill="#4B9640" transform="translate(195.4375,17.5)"/>
<path d="M0 0 C5.84309198 3.53098677 10.52214675 8.98617579 12.5625 15.5 C12.8435812 18.59743014 12.81520139 21.68010946 12.78955078 24.78833008 C12.78979185 25.73059039 12.79003292 26.6728507 12.7902813 27.64366436 C12.78879168 30.68571692 12.77357491 33.72752268 12.7578125 36.76953125 C12.75487098 38.65083702 12.75283121 40.53214442 12.75170898 42.41345215 C12.7412343 49.37982644 12.71331181 56.34616566 12.6875 63.3125 C12.64625 78.884375 12.605 94.45625 12.5625 110.5 C44.2425 110.5 75.9225 110.5 108.5625 110.5 C108.40429321 79.59556284 108.40429321 79.59556284 108.20214844 48.69140625 C108.18408203 42.69726562 108.18408203 42.69726562 108.1807251 39.88598633 C108.17460606 37.93380074 108.16058603 35.98162973 108.14019775 34.02954102 C108.11077262 31.06239799 108.10688072 28.09617406 108.10839844 25.12890625 C108.094006 24.26769669 108.07961357 23.40648712 108.064785 22.5191803 C108.11155219 15.65524933 109.97828903 10.44898031 114.52734375 5.2578125 C115.50380859 4.44957031 115.50380859 4.44957031 116.5 3.625 C117.14839844 3.07070313 117.79679688 2.51640625 118.46484375 1.9453125 C124.96607557 -2.53412097 131.93390917 -2.17463728 139.5625 -1.5 C146.22209333 0.18085583 150.74797447 4.96378322 154.5625 10.5 C157.02744453 15.19694156 156.83226547 19.61814764 156.78955078 24.78833008 C156.78984283 25.71564941 156.79013489 26.64296875 156.79043579 27.59838867 C156.78904535 30.65553224 156.77349749 33.71243039 156.7578125 36.76953125 C156.75408136 38.8923072 156.75123486 41.01508487 156.74923706 43.13786316 C156.7416086 48.71919528 156.72196679 54.30042295 156.6998291 59.88171387 C156.67935376 65.57933133 156.67023173 71.27696571 156.66015625 76.97460938 C156.63872023 88.14978542 156.60459371 99.32488402 156.5625 110.5 C157.51503662 110.4685791 157.51503662 110.4685791 158.48681641 110.43652344 C161.38688076 110.35295419 164.28669116 110.30121226 167.1875 110.25 C168.18652344 110.21648437 169.18554688 110.18296875 170.21484375 110.1484375 C176.37001524 110.06691205 179.88898265 110.37720388 184.5625 114.5 C189.10532076 119.59220276 189.15141916 123.99973908 189.09375 130.5 C189.0975769 131.45390625 189.10140381 132.4078125 189.10534668 133.390625 C189.10806036 135.40105245 189.10073737 137.41151553 189.08398438 139.421875 C189.06256709 142.49038787 189.08380466 145.55655952 189.109375 148.625 C189.10673163 150.58333848 189.10160645 152.5416755 189.09375 154.5 C189.10184692 155.41265625 189.10994385 156.3253125 189.11828613 157.265625 C189.036944 162.82079872 188.40449474 166.19337704 184.5625 170.5 C179.36670782 174.85528447 175.40052091 175.07240274 168.921875 175.00793457 C167.95726349 175.01417453 166.99265198 175.0204145 165.99880981 175.02684355 C162.7697905 175.04278556 159.54152478 175.0301642 156.3125 175.01757812 C153.99625203 175.02299868 151.68000751 175.03012097 149.36376953 175.03881836 C143.07458045 175.05706229 136.78565367 175.04997957 130.49645996 175.03730202 C123.91690358 175.02718001 117.33736976 175.03656548 110.7578125 175.04284668 C99.00039297 175.05139149 87.24308385 175.03815549 75.48568344 175.01780933 C64.82893815 174.99993868 54.17236715 175.00304291 43.515625 175.02148438 C31.13531375 175.0428985 18.75511362 175.05085424 6.37478638 175.03903532 C-0.1769428 175.03279688 -6.72855195 175.03197453 -13.28027344 175.04518127 C-19.43959514 175.05672961 -25.59858745 175.04873215 -31.75787354 175.02560425 C-34.01938327 175.02031179 -36.28092069 175.02184005 -38.54241943 175.03065491 C-41.62761315 175.04157232 -44.71174885 175.0278919 -47.796875 175.00793457 C-48.69356903 175.01685746 -49.59026306 175.02578034 -50.51412964 175.03497362 C-55.98146719 174.96629019 -59.09884474 174.13680402 -63.4375 170.5 C-67.98032076 165.40779724 -68.02641916 161.00026092 -67.96875 154.5 C-67.9725769 153.54609375 -67.97640381 152.5921875 -67.98034668 151.609375 C-67.98306036 149.59894755 -67.97573737 147.58848447 -67.95898438 145.578125 C-67.93756709 142.50961213 -67.95880466 139.44344048 -67.984375 136.375 C-67.98173163 134.41666152 -67.97660645 132.4583245 -67.96875 130.5 C-67.97684692 129.58734375 -67.98494385 128.6746875 -67.99328613 127.734375 C-67.911944 122.17920128 -67.27949474 118.80662296 -63.4375 114.5 C-57.98500355 109.69001867 -53.115189 110.01339366 -46.0625 110.25 C-45.04027344 110.26804687 -44.01804688 110.28609375 -42.96484375 110.3046875 C-40.45475251 110.35160509 -37.94662236 110.41723271 -35.4375 110.5 C-35.44638245 109.32759766 -35.45526489 108.15519531 -35.4644165 106.94726562 C-35.54560249 95.88327096 -35.60551358 84.81933696 -35.64474869 73.75511169 C-35.66559819 68.06724607 -35.69386804 62.37962146 -35.73925781 56.69189453 C-35.78280904 51.20000854 -35.80665694 45.70835398 -35.81700897 40.21630859 C-35.82438365 38.1239864 -35.83878468 36.03167646 -35.86042023 33.93945312 C-35.88957715 31.00232857 -35.89345082 28.0661529 -35.89160156 25.12890625 C-35.90598267 24.2693483 -35.92036377 23.40979034 -35.93518066 22.52418518 C-35.88858991 15.65806503 -34.02334608 10.45084622 -29.47265625 5.2578125 C-28.82167969 4.71898437 -28.17070312 4.18015625 -27.5 3.625 C-26.85160156 3.07070313 -26.20320313 2.51640625 -25.53515625 1.9453125 C-18.47077988 -2.92213491 -7.84396301 -3.47595223 0 0 Z " fill="#59D6FE" transform="translate(195.4375,17.5)"/>
<path d="M0 0 C52.8 0 105.6 0 160 0 C160.103125 14.64375 160.20625 29.2875 160.3125 44.375 C160.35802002 48.96196777 160.40354004 53.54893555 160.45043945 58.27490234 C160.47302246 63.9699707 160.47302246 63.9699707 160.47721863 66.65420532 C160.48478876 68.48930972 160.50214379 70.32439271 160.52787781 72.15933228 C160.82614521 94.59072101 155.92288986 114.58996182 141 132 C140.55398438 132.58910156 140.10796875 133.17820312 139.6484375 133.78515625 C127.5060135 149.37148413 107.11015817 157.49105899 88 160 C65.12422595 161.46567807 44.53757545 156.30239427 27 141 C26.03191406 140.22785156 25.06382812 139.45570313 24.06640625 138.66015625 C10.51866598 127.35127343 1.3850052 108.01357093 -0.22315598 90.58097076 C-0.55259453 84.12054176 -0.46095524 77.65741837 -0.390625 71.19140625 C-0.38472721 69.35999033 -0.38065679 67.5285676 -0.37841797 65.69714355 C-0.35763929 58.98549136 -0.30179516 52.2739845 -0.25 45.5625 C-0.1675 30.526875 -0.085 15.49125 0 0 Z " fill="#90C73C" transform="translate(144,208)"/>
<path d="M0 0 C21.12 0 42.24 0 64 0 C64.495 7.92 64.495 7.92 65 16 C66.49848544 22.39511335 66.49848544 22.39511335 70.25 27.4375 C77.81146628 31.73378766 85.53357656 31.30610332 94.01342773 31.31884766 C95.43316717 31.32815592 96.85290117 31.33832592 98.27262878 31.34928894 C102.11092336 31.37650184 105.9491814 31.39171239 109.78754687 31.40471697 C113.80478254 31.42038578 117.82194404 31.44716399 121.83912659 31.4727478 C129.43913207 31.51946934 137.0391516 31.55624544 144.63922697 31.58942068 C154.91422646 31.6348496 165.18913399 31.69569805 175.46405697 31.75566864 C191.64265847 31.8496913 207.82128663 31.92316072 224 32 C224 53.12 224 74.24 224 96 C203.7887981 96.09051299 183.57776191 96.16410532 163.36640835 96.20724869 C153.98060759 96.22781892 144.59494229 96.2558328 135.20922852 96.30175781 C127.02265182 96.34179605 118.83617328 96.367473 110.64950138 96.37635398 C106.3201141 96.38154016 101.9910075 96.39361209 97.66171074 96.42292023 C93.57491807 96.45035879 89.48851789 96.45838854 85.40164185 96.45243073 C83.91308003 96.4535184 82.42450311 96.46130135 80.9360218 96.4768219 C67.74031496 96.60749979 55.38987116 94.4573731 43.625 88.1875 C42.62750732 87.67255981 42.62750732 87.67255981 41.60986328 87.1472168 C36.26676057 84.31264668 31.558456 80.97747632 27 77 C26.03191406 76.22785156 25.06382812 75.45570313 24.06640625 74.66015625 C14.4495794 66.63257632 8.4537164 55.49150033 4 44 C3.56558594 42.92234375 3.13117188 41.8446875 2.68359375 40.734375 C-1.87583692 27.0719695 0 15.12847096 0 0 Z " fill="#453C4B" transform="translate(224,400)"/>
<path d="M0 0 C5.84309198 3.53098677 10.52214675 8.98617579 12.5625 15.5 C12.84357946 18.59741103 12.81522993 21.68012837 12.78955078 24.78833008 C12.78984283 25.71564941 12.79013489 26.64296875 12.79043579 27.59838867 C12.78904535 30.65553224 12.77349749 33.71243039 12.7578125 36.76953125 C12.75408136 38.8923072 12.75123486 41.01508487 12.74923706 43.13786316 C12.7416086 48.71919528 12.72196679 54.30042295 12.6998291 59.88171387 C12.67935376 65.57933133 12.67023173 71.27696571 12.66015625 76.97460938 C12.63872023 88.14978542 12.60459371 99.32488402 12.5625 110.5 C13.51503662 110.4685791 13.51503662 110.4685791 14.48681641 110.43652344 C17.38688076 110.35295419 20.28669116 110.30121226 23.1875 110.25 C24.18652344 110.21648437 25.18554688 110.18296875 26.21484375 110.1484375 C32.37001524 110.06691205 35.88898265 110.37720388 40.5625 114.5 C45.10532076 119.59220276 45.15141916 123.99973908 45.09375 130.5 C45.09949036 131.93085938 45.09949036 131.93085938 45.10534668 133.390625 C45.10806036 135.40105245 45.10073737 137.41151553 45.08398438 139.421875 C45.06256709 142.49038787 45.08380466 145.55655952 45.109375 148.625 C45.10673163 150.58333848 45.10160645 152.5416755 45.09375 154.5 C45.10184692 155.41265625 45.10994385 156.3253125 45.11828613 157.265625 C45.036944 162.82079872 44.40449474 166.19337704 40.5625 170.5 C35.98122347 174.13869055 32.94137321 175.00791587 27.12353516 175.04931641 C26.40399155 175.05953827 25.68444794 175.06976013 24.94309998 175.08029175 C22.57890988 175.10795286 20.21589457 175.10618082 17.8515625 175.1015625 C16.19778007 175.10934429 14.54400162 175.11801525 12.89022827 175.12753296 C9.42864002 175.14242947 5.96745982 175.14189616 2.50585938 175.13134766 C-1.91506722 175.11976684 -6.33431556 175.15360706 -10.75496483 175.200037 C-14.16956227 175.22960402 -17.58375988 175.23124283 -20.99846268 175.22501755 C-22.62746121 175.22603958 -24.25648341 175.23643255 -25.8853569 175.25664139 C-41.52046972 175.42681389 -41.52046972 175.42681389 -47.05541992 170.17417908 C-51.45736299 164.84189689 -51.88634592 160.27082135 -51.8359375 153.62890625 C-51.84024277 152.36807472 -51.84024277 152.36807472 -51.84463501 151.08177185 C-51.84666881 149.31093672 -51.84118695 147.54007877 -51.82861328 145.76928711 C-51.81256959 143.07419013 -51.8284744 140.3805972 -51.84765625 137.68554688 C-51.8456733 135.95833005 -51.84182856 134.23111416 -51.8359375 132.50390625 C-51.84201019 131.70578018 -51.84808289 130.90765411 -51.8543396 130.08534241 C-51.77078376 123.36203385 -50.46989052 118.62477191 -45.6875 113.625 C-42.09322496 111.27489709 -39.64495652 110.96860298 -35.4375 110.5 C-35.44638245 109.32759766 -35.45526489 108.15519531 -35.4644165 106.94726562 C-35.54560249 95.88327096 -35.60551358 84.81933696 -35.64474869 73.75511169 C-35.66559819 68.06724607 -35.69386804 62.37962146 -35.73925781 56.69189453 C-35.78280904 51.20000854 -35.80665694 45.70835398 -35.81700897 40.21630859 C-35.82438365 38.1239864 -35.83878468 36.03167646 -35.86042023 33.93945312 C-35.88957715 31.00232857 -35.89345082 28.0661529 -35.89160156 25.12890625 C-35.90598267 24.2693483 -35.92036377 23.40979034 -35.93518066 22.52418518 C-35.88858991 15.65806503 -34.02334608 10.45084622 -29.47265625 5.2578125 C-28.82167969 4.71898437 -28.17070312 4.18015625 -27.5 3.625 C-26.85160156 3.07070313 -26.20320313 2.51640625 -25.53515625 1.9453125 C-18.47077988 -2.92213491 -7.84396301 -3.47595223 0 0 Z " fill="#23AAE6" transform="translate(339.4375,17.5)"/>
<path d="M0 0 C10.89 0 21.78 0 33 0 C33.99 2.97 34.98 5.94 36 9 C40.13276077 13.4771575 45.01787894 14.8025572 50.93548393 15.19435501 C54.62866171 15.2864551 58.31939234 15.3132959 62.01342773 15.31884766 C63.43316717 15.32815592 64.85290117 15.33832592 66.27262878 15.34928894 C70.11092336 15.37650184 73.9491814 15.39171239 77.78754687 15.40471697 C81.80478254 15.42038578 85.82194404 15.44716399 89.83912659 15.4727478 C97.43913207 15.51946934 105.0391516 15.55624544 112.63922697 15.58942068 C121.29465143 15.62768896 129.95000128 15.67708675 138.60536277 15.72740483 C156.40352686 15.83062615 174.20172251 15.91844929 192 16 C192 26.56 192 37.12 192 48 C172.50202011 48.06782088 153.00413628 48.12304217 133.50606823 48.15543652 C124.45200046 48.17088012 115.39801139 48.19192152 106.34399414 48.22631836 C98.44897876 48.25629767 90.5540204 48.27559321 82.65894967 48.28226548 C78.48176626 48.28616334 74.30474593 48.29527111 70.12761497 48.31719017 C66.18861728 48.33769041 62.24984844 48.34380673 58.31080246 48.33932304 C56.87217143 48.34014223 55.43353202 48.34602683 53.99494743 48.35761642 C38.40320158 48.47696963 25.44819214 45.27791076 13.75 34.5 C4.69647307 24.94189752 0 13.09949536 0 0 Z " fill="#54596D" transform="translate(256,416)"/>
<path d="M0 0 C5.84309198 3.53098677 10.52214675 8.98617579 12.5625 15.5 C12.84357946 18.59741103 12.81522993 21.68012837 12.78955078 24.78833008 C12.78984283 25.71564941 12.79013489 26.64296875 12.79043579 27.59838867 C12.78904535 30.65553224 12.77349749 33.71243039 12.7578125 36.76953125 C12.75408136 38.8923072 12.75123486 41.01508487 12.74923706 43.13786316 C12.7416086 48.71919528 12.72196679 54.30042295 12.6998291 59.88171387 C12.67575246 66.58145744 12.66658595 73.28123597 12.65492249 79.98101044 C12.63554203 90.15407955 12.59721383 100.32691959 12.5625 110.5 C-3.2775 110.5 -19.1175 110.5 -35.4375 110.5 C-35.59793524 87.11210762 -35.59793524 87.11210762 -35.6328125 77.12109375 C-35.65669767 70.31123342 -35.6849144 63.5015888 -35.73925781 56.69189453 C-35.78280904 51.20000854 -35.80665694 45.70835398 -35.81700897 40.21630859 C-35.82438365 38.1239864 -35.83878468 36.03167646 -35.86042023 33.93945312 C-35.88957715 31.00232857 -35.89345082 28.0661529 -35.89160156 25.12890625 C-35.90598267 24.2693483 -35.92036377 23.40979034 -35.93518066 22.52418518 C-35.88858991 15.65806503 -34.02334608 10.45084622 -29.47265625 5.2578125 C-28.82167969 4.71898437 -28.17070312 4.18015625 -27.5 3.625 C-26.85160156 3.07070313 -26.20320313 2.51640625 -25.53515625 1.9453125 C-18.47077988 -2.92213491 -7.84396301 -3.47595223 0 0 Z " fill="#D6E5F0" transform="translate(339.4375,17.5)"/>
<path d="M0 0 C5.84309198 3.53098677 10.52214675 8.98617579 12.5625 15.5 C12.84357946 18.59741103 12.81522993 21.68012837 12.78955078 24.78833008 C12.78984283 25.71564941 12.79013489 26.64296875 12.79043579 27.59838867 C12.78904535 30.65553224 12.77349749 33.71243039 12.7578125 36.76953125 C12.75408136 38.8923072 12.75123486 41.01508487 12.74923706 43.13786316 C12.7416086 48.71919528 12.72196679 54.30042295 12.6998291 59.88171387 C12.67575246 66.58145744 12.66658595 73.28123597 12.65492249 79.98101044 C12.63554203 90.15407955 12.59721383 100.32691959 12.5625 110.5 C-3.2775 110.5 -19.1175 110.5 -35.4375 110.5 C-35.59793524 87.11210762 -35.59793524 87.11210762 -35.6328125 77.12109375 C-35.65669767 70.31123342 -35.6849144 63.5015888 -35.73925781 56.69189453 C-35.78280904 51.20000854 -35.80665694 45.70835398 -35.81700897 40.21630859 C-35.82438365 38.1239864 -35.83878468 36.03167646 -35.86042023 33.93945312 C-35.88957715 31.00232857 -35.89345082 28.0661529 -35.89160156 25.12890625 C-35.90598267 24.2693483 -35.92036377 23.40979034 -35.93518066 22.52418518 C-35.88858991 15.65806503 -34.02334608 10.45084622 -29.47265625 5.2578125 C-28.82167969 4.71898437 -28.17070312 4.18015625 -27.5 3.625 C-26.85160156 3.07070313 -26.20320312 2.51640625 -25.53515625 1.9453125 C-18.47077988 -2.92213491 -7.84396301 -3.47595223 0 0 Z " fill="#D6E5F0" transform="translate(195.4375,17.5)"/>
<path d="M0 0 C2.5 1.4375 2.5 1.4375 4 4 C4.78198422 10.28460851 3.51473752 15.67292071 1.375 21.53515625 C1.10864746 22.29928329 0.84229492 23.06341034 0.56787109 23.85069275 C-0.27508172 26.25944461 -1.13710684 28.66082896 -2 31.0625 C-2.57940686 32.70723128 -3.15754388 34.35241048 -3.734375 35.99804688 C-5.14163772 40.00402076 -6.56603149 44.00351196 -8 48 C-7.29391602 47.97905273 -6.58783203 47.95810547 -5.86035156 47.93652344 C-2.65704624 47.85330702 0.54603163 47.80132215 3.75 47.75 C5.41675781 47.69972656 5.41675781 47.69972656 7.1171875 47.6484375 C8.72207031 47.62910156 8.72207031 47.62910156 10.359375 47.609375 C11.34389648 47.58842773 12.32841797 47.56748047 13.34277344 47.54589844 C16.76961064 48.13152111 17.91036081 49.26813779 20 52 C20.73181032 55.99169267 21.09384283 58.41285839 18.75386047 61.80812073 C18.20255966 62.40970505 17.65125885 63.01128937 17.08325195 63.63110352 C16.44650543 64.3270462 15.80975891 65.02298889 15.15371704 65.74002075 C11.1542641 69.93680263 7.08431751 74.05774396 2.98046875 78.15234375 C2.03104843 79.10243935 1.08177646 80.0526832 0.13264465 81.00306702 C-1.83988497 82.97705877 -3.81418139 84.94926086 -5.78979492 86.92016602 C-8.32297661 89.447604 -10.85157828 91.9795695 -13.37891102 94.51285458 C-15.33044808 96.46799755 -17.28435093 98.42076218 -19.23898888 100.37280464 C-20.62631865 101.75914415 -22.01163665 103.14749591 -23.39692688 104.53587341 C-24.65414803 105.78836632 -24.65414803 105.78836632 -25.93676758 107.06616211 C-26.6751033 107.80370224 -27.41343903 108.54124237 -28.17414856 109.3011322 C-31.27900575 112.19005393 -33.79952726 112.35778304 -38.0234375 112.265625 C-40 112 -40 112 -42.5 110.5625 C-44.97767091 106.3298122 -44.5633999 101.57178784 -43.52832031 96.84689331 C-42.87586218 94.69077839 -42.14737035 92.5809056 -41.375 90.46484375 C-41.10864746 89.70071671 -40.84229492 88.93658966 -40.56787109 88.14930725 C-39.72491828 85.74055539 -38.86289316 83.33917104 -38 80.9375 C-37.42059314 79.29276872 -36.84245612 77.64758952 -36.265625 76.00195312 C-34.85836228 71.99597924 -33.43396851 67.99648804 -32 64 C-33.05912598 64.0314209 -33.05912598 64.0314209 -34.13964844 64.06347656 C-37.34295376 64.14669298 -40.54603163 64.19867785 -43.75 64.25 C-44.86117188 64.28351563 -45.97234375 64.31703125 -47.1171875 64.3515625 C-48.18710937 64.36445313 -49.25703125 64.37734375 -50.359375 64.390625 C-51.34389648 64.41157227 -52.32841797 64.43251953 -53.34277344 64.45410156 C-56.76961064 63.86847889 -57.91036081 62.73186221 -60 60 C-60.73181032 56.00830733 -61.09384283 53.58714161 -58.75386047 50.19187927 C-58.20255966 49.59029495 -57.65125885 48.98871063 -57.08325195 48.36889648 C-56.44650543 47.6729538 -55.80975891 46.97701111 -55.15371704 46.25997925 C-51.1542641 42.06319737 -47.08431751 37.94225604 -42.98046875 33.84765625 C-42.03104843 32.89756065 -41.08177646 31.9473168 -40.13264465 30.99693298 C-38.16011503 29.02294123 -36.18581861 27.05073914 -34.21020508 25.07983398 C-31.67702339 22.552396 -29.14842172 20.0204305 -26.62108898 17.48714542 C-24.66955192 15.53200245 -22.71564907 13.57923782 -20.76101112 11.62719536 C-19.37368135 10.24085585 -17.98836335 8.85250409 -16.60307312 7.46412659 C-15.34585197 6.21163368 -15.34585197 6.21163368 -14.06323242 4.93383789 C-13.3248967 4.19629776 -12.58656097 3.45875763 -11.82585144 2.6988678 C-8.30884172 -0.57354223 -4.61563178 -0.62028253 0 0 Z " fill="#FAA018" transform="translate(476,184)"/>
<path d="M0 0 C1.80812073 1.24613953 1.80812073 1.24613953 3.63110352 2.91674805 C4.3270462 3.55349457 5.02298889 4.19024109 5.74002075 4.84628296 C9.93680263 8.8457359 14.05774396 12.91568249 18.15234375 17.01953125 C19.10243935 17.96895157 20.0526832 18.91822354 21.00306702 19.86735535 C22.97705877 21.83988497 24.94926086 23.81418139 26.92016602 25.78979492 C29.447604 28.32297661 31.9795695 30.85157828 34.51285458 33.37891102 C36.46799755 35.33044808 38.42076218 37.28435093 40.37280464 39.23898888 C41.75914415 40.62631865 43.14749591 42.01163665 44.53587341 43.39692688 C45.78836632 44.65414803 45.78836632 44.65414803 47.06616211 45.93676758 C47.80370224 46.6751033 48.54124237 47.41343903 49.3011322 48.17414856 C52.1935229 51.28273401 52.19506297 53.74493521 52.42578125 57.9296875 C51.80141308 60.96560612 50.37678991 62.06354117 48 64 C45.34277344 64.45410156 45.34277344 64.45410156 42.359375 64.390625 C41.28945312 64.37773437 40.21953125 64.36484375 39.1171875 64.3515625 C38.00601563 64.31804687 36.89484375 64.28453125 35.75 64.25 C34.62335938 64.23195313 33.49671875 64.21390625 32.3359375 64.1953125 C29.55643104 64.14820222 26.7786466 64.08243361 24 64 C24.36351562 65.01312256 24.72703125 66.02624512 25.1015625 67.07006836 C26.4576892 70.86146459 27.79499015 74.65928311 29.12695312 78.45922852 C29.7039374 80.09708293 30.28588531 81.73319812 30.87304688 83.36743164 C31.72043535 85.72873438 32.54925438 88.09589858 33.375 90.46484375 C33.63748535 91.18397446 33.8999707 91.90310516 34.17041016 92.64402771 C35.92296559 97.7506889 36.6718328 102.60065048 36 108 C34.5 110.5625 34.5 110.5625 32 112 C28.00830733 112.73181032 25.58714161 113.09384283 22.19187927 110.75386047 C21.59029495 110.20255966 20.98871063 109.65125885 20.36889648 109.08325195 C19.6729538 108.44650543 18.97701111 107.80975891 18.25997925 107.15371704 C14.06319737 103.1542641 9.94225604 99.08431751 5.84765625 94.98046875 C4.89756065 94.03104843 3.9473168 93.08177646 2.99693298 92.13264465 C1.02294123 90.16011503 -0.94926086 88.18581861 -2.92016602 86.21020508 C-5.447604 83.67702339 -7.9795695 81.14842172 -10.51285458 78.62108898 C-12.46799755 76.66955192 -14.42076218 74.71564907 -16.37280464 72.76101112 C-17.75914415 71.37368135 -19.14749591 69.98836335 -20.53587341 68.60307312 C-21.78836632 67.34585197 -21.78836632 67.34585197 -23.06616211 66.06323242 C-23.80370224 65.3248967 -24.54124237 64.58656097 -25.3011322 63.82585144 C-28.1935229 60.71726599 -28.19506297 58.25506479 -28.42578125 54.0703125 C-27.80141308 51.03439388 -26.37678991 49.93645883 -24 48 C-21.34277344 47.54589844 -21.34277344 47.54589844 -18.359375 47.609375 C-17.28945313 47.62226563 -16.21953125 47.63515625 -15.1171875 47.6484375 C-14.00601562 47.68195313 -12.89484375 47.71546875 -11.75 47.75 C-10.06003906 47.77707031 -10.06003906 47.77707031 -8.3359375 47.8046875 C-5.55643104 47.85179778 -2.7786466 47.91756639 0 48 C-0.36351563 46.98687744 -0.72703125 45.97375488 -1.1015625 44.92993164 C-2.4576892 41.13853541 -3.79499015 37.34071689 -5.12695312 33.54077148 C-5.7039374 31.90291707 -6.28588531 30.26680188 -6.87304688 28.63256836 C-7.72043535 26.27126562 -8.54925438 23.90410142 -9.375 21.53515625 C-9.63748535 20.81602554 -9.8999707 20.09689484 -10.17041016 19.35597229 C-11.92296559 14.2493111 -12.6718328 9.39934952 -12 4 C-9.28560324 -0.63709447 -4.99681018 -1.34270123 0 0 Z " fill="#FAA018" transform="translate(44,184)"/>
<path d="M0 0 C0.73250977 -0.00700928 1.46501953 -0.01401855 2.21972656 -0.02124023 C4.62604382 -0.03875584 7.03117209 -0.02722142 9.4375 -0.01367188 C11.11849186 -0.01636866 12.79948221 -0.02025264 14.48046875 -0.02526855 C17.99754743 -0.03115485 21.5142188 -0.02262896 25.03125 -0.00390625 C29.53052189 0.01888312 34.02883927 0.00575532 38.52807617 -0.01819611 C41.99746847 -0.03267779 45.46663594 -0.02803731 48.93603516 -0.01768494 C50.59456496 -0.01502418 52.25311544 -0.01826444 53.91162109 -0.02760315 C56.23329421 -0.03780834 58.55344011 -0.02221466 60.875 0 C62.19371094 0.00318237 63.51242187 0.00636475 64.87109375 0.00964355 C70.16529367 0.76365389 73.1949097 3.20958834 76.8125 7.01757812 C79.21053575 12.18257821 79.19131535 16.91780692 78.4375 22.51757812 C76.12838725 27.49105174 73.16511365 29.84944159 68.4375 32.51757812 C64.87109375 33.0255127 64.87109375 33.0255127 60.875 33.03515625 C60.14249023 33.04216553 59.40998047 33.0491748 58.65527344 33.05639648 C56.24895618 33.07391209 53.84382791 33.06237767 51.4375 33.04882812 C49.75650814 33.05152491 48.07551779 33.05540889 46.39453125 33.0604248 C42.87745257 33.0663111 39.3607812 33.05778521 35.84375 33.0390625 C31.34447811 33.01627313 26.84616073 33.02940093 22.34692383 33.05335236 C18.87753153 33.06783404 15.40836406 33.06319356 11.93896484 33.05284119 C10.28043504 33.05018043 8.62188456 33.05342069 6.96337891 33.0627594 C4.64170579 33.07296459 2.32155989 33.05737091 0 33.03515625 C-1.31871094 33.03197388 -2.63742188 33.0287915 -3.99609375 33.0255127 C-9.29029367 32.27150236 -12.3199097 29.82556791 -15.9375 26.01757812 C-18.33553575 20.85257804 -18.31631535 16.11734933 -17.5625 10.51757812 C-13.97822937 2.79761062 -8.2761305 0.01997233 0 0 Z " fill="#23AAE6" transform="translate(225.5625,367.482421875)"/>
<path d="M0 0 C3.3258409 2.062783 6.23502468 4.47004936 8 8 C8.09323979 10.77679725 8.12576502 13.52832232 8.11352539 16.30517578 C8.11367142 17.16378204 8.11381744 18.02238831 8.1139679 18.90701294 C8.11326963 21.75313824 8.10548125 24.59919859 8.09765625 27.4453125 C8.09579176 29.41543543 8.09436801 31.38555882 8.09336853 33.35568237 C8.08954576 38.54739659 8.07971751 43.73908294 8.06866455 48.93078613 C8.05844528 54.225989 8.0538698 59.52119637 8.04882812 64.81640625 C8.03809504 75.21095173 8.02050017 85.60546919 8 96 C0.08 96 -7.84 96 -16 96 C-16.13567897 84.64714903 -16.24570353 73.29483853 -16.31087303 61.94135952 C-16.34215489 56.66917684 -16.3845707 51.3975787 -16.45263672 46.12573242 C-16.5179408 41.03581581 -16.5537297 35.94646059 -16.56926346 30.8561573 C-16.58032994 28.91646553 -16.60194087 26.97680368 -16.63438034 25.03735161 C-16.67809146 22.31516578 -16.68392812 19.59528435 -16.68115234 16.87280273 C-16.702724 16.07510468 -16.72429565 15.27740662 -16.746521 14.45553589 C-16.6866427 9.01023022 -15.21634136 6.26522865 -11.48386574 2.31697178 C-8.13695789 -0.65350127 -4.25831909 -0.83481435 0 0 Z " fill="#A5C3DC" transform="translate(344,32)"/>
<path d="M0 0 C3.3258409 2.062783 6.23502468 4.47004936 8 8 C8.09323979 10.77679725 8.12576502 13.52832232 8.11352539 16.30517578 C8.11367142 17.16378204 8.11381744 18.02238831 8.1139679 18.90701294 C8.11326963 21.75313824 8.10548125 24.59919859 8.09765625 27.4453125 C8.09579176 29.41543543 8.09436801 31.38555882 8.09336853 33.35568237 C8.08954576 38.54739659 8.07971751 43.73908294 8.06866455 48.93078613 C8.05844528 54.225989 8.0538698 59.52119637 8.04882812 64.81640625 C8.03809504 75.21095173 8.02050017 85.60546919 8 96 C0.08 96 -7.84 96 -16 96 C-16.13567897 84.64714903 -16.24570353 73.29483853 -16.31087303 61.94135952 C-16.34215489 56.66917684 -16.3845707 51.3975787 -16.45263672 46.12573242 C-16.5179408 41.03581581 -16.5537297 35.94646059 -16.56926346 30.8561573 C-16.58032994 28.91646553 -16.60194087 26.97680368 -16.63438034 25.03735161 C-16.67809146 22.31516578 -16.68392812 19.59528435 -16.68115234 16.87280273 C-16.702724 16.07510468 -16.72429565 15.27740662 -16.746521 14.45553589 C-16.6866427 9.01023022 -15.21634136 6.26522865 -11.48386574 2.31697178 C-8.13695789 -0.65350127 -4.25831909 -0.83481435 0 0 Z " fill="#A5C3DC" transform="translate(200,32)"/>
<path d="M0 0 C1.16273438 -0.00708984 2.32546875 -0.01417969 3.5234375 -0.02148438 C10.26413145 0.02864664 15.4023263 0.23292129 20.64453125 4.90234375 C24.85076922 10.20586119 25.46499359 13.69509299 25 20.4375 C23.10741259 25.69468726 20.43796456 28.26752532 16 31.4375 C10.78822883 33.20036603 5.0582744 32.7035882 -0.375 32.75 C-1.4990625 32.77900391 -2.623125 32.80800781 -3.78125 32.83789062 C-10.18026235 32.88705561 -14.17456359 32.80755582 -19 28.4375 C-22.62833663 24.61819828 -23.31000458 21.55470994 -23.5 16.4375 C-23.31000458 11.32029006 -22.62833663 8.25680172 -19 4.4375 C-13.31167948 -0.74667171 -7.40636659 -0.12727127 0 0 Z " fill="#59D6FE" transform="translate(231,367.5625)"/>
<path d="M0 0 C1.73618591 -0.00006042 1.73618591 -0.00006042 3.50744629 -0.00012207 C5.95179684 0.00523347 8.39614694 0.02281732 10.84033203 0.05175781 C14.58028833 0.09359939 18.31844293 0.09282635 22.05859375 0.0859375 C24.43490834 0.09643055 26.81121365 0.10936926 29.1875 0.125 C30.3053186 0.12520142 31.42313721 0.12540283 32.5748291 0.12561035 C34.14170471 0.14947815 34.14170471 0.14947815 35.74023438 0.17382812 C37.11326721 0.18645691 37.11326721 0.18645691 38.51403809 0.19934082 C41.66986243 0.68183117 43.55480977 1.67385991 46.09375 3.59375 C47.26555914 7.54860583 47.4985633 9.66267942 45.84375 13.46875 C44.09375 15.59375 44.09375 15.59375 41.09375 16.59375 C39.38186229 16.69623411 37.6663217 16.74219402 35.95141602 16.75488281 C34.90345352 16.76449036 33.85549103 16.7740979 32.77577209 16.78399658 C31.64449387 16.78824646 30.51321564 16.79249634 29.34765625 16.796875 C28.18499741 16.80257507 27.02233856 16.80827515 25.82444763 16.81414795 C23.36401276 16.8235985 20.90356524 16.83013215 18.44311523 16.83398438 C14.67474403 16.84370231 10.90691532 16.87473101 7.13867188 16.90625 C4.75000324 16.9127788 2.36133071 16.91802975 -0.02734375 16.921875 C-1.15659775 16.9342218 -2.28585175 16.9465686 -3.44932556 16.95928955 C-4.50044022 16.95628845 -5.55155487 16.95328735 -6.63452148 16.95019531 C-8.01993385 16.95566376 -8.01993385 16.95566376 -9.43333435 16.96124268 C-12.37918338 16.52346877 -13.74027355 15.60206635 -15.90625 13.59375 C-16.69140625 11.7265625 -16.69140625 11.7265625 -16.96875 9.71875 C-17.08347656 9.06132812 -17.19820312 8.40390625 -17.31640625 7.7265625 C-16.80554703 5.07009458 -15.68096573 3.52957478 -13.73875427 1.67184448 C-9.65179109 -0.73258782 -4.59754977 -0.06743316 0 0 Z " fill="#5FAA45" transform="translate(208.90625,303.40625)"/>
<path d="M0 0 C1.73618591 -0.00006042 1.73618591 -0.00006042 3.50744629 -0.00012207 C5.95179684 0.00523347 8.39614694 0.02281732 10.84033203 0.05175781 C14.58028833 0.09359939 18.31844293 0.09282635 22.05859375 0.0859375 C24.43490834 0.09643055 26.81121365 0.10936926 29.1875 0.125 C30.3053186 0.12520142 31.42313721 0.12540283 32.5748291 0.12561035 C34.14170471 0.14947815 34.14170471 0.14947815 35.74023438 0.17382812 C37.11326721 0.18645691 37.11326721 0.18645691 38.51403809 0.19934082 C41.66986243 0.68183117 43.55480977 1.67385991 46.09375 3.59375 C47.26555914 7.54860583 47.4985633 9.66267942 45.84375 13.46875 C44.09375 15.59375 44.09375 15.59375 41.09375 16.59375 C39.38186229 16.69623411 37.6663217 16.74219402 35.95141602 16.75488281 C34.90345352 16.76449036 33.85549103 16.7740979 32.77577209 16.78399658 C31.64449387 16.78824646 30.51321564 16.79249634 29.34765625 16.796875 C28.18499741 16.80257507 27.02233856 16.80827515 25.82444763 16.81414795 C23.36401276 16.8235985 20.90356524 16.83013215 18.44311523 16.83398438 C14.67474403 16.84370231 10.90691532 16.87473101 7.13867188 16.90625 C4.75000324 16.9127788 2.36133071 16.91802975 -0.02734375 16.921875 C-1.15659775 16.9342218 -2.28585175 16.9465686 -3.44932556 16.95928955 C-4.50044022 16.95628845 -5.55155487 16.95328735 -6.63452148 16.95019531 C-8.01993385 16.95566376 -8.01993385 16.95566376 -9.43333435 16.96124268 C-12.37918338 16.52346877 -13.74027355 15.60206635 -15.90625 13.59375 C-16.69140625 11.7265625 -16.69140625 11.7265625 -16.96875 9.71875 C-17.08347656 9.06132812 -17.19820312 8.40390625 -17.31640625 7.7265625 C-16.80554703 5.07009458 -15.68096573 3.52957478 -13.73875427 1.67184448 C-9.65179109 -0.73258782 -4.59754977 -0.06743316 0 0 Z " fill="#5FAA45" transform="translate(208.90625,271.40625)"/>
<path d="M0 0 C1.73618591 -0.00006042 1.73618591 -0.00006042 3.50744629 -0.00012207 C5.95179684 0.00523347 8.39614694 0.02281732 10.84033203 0.05175781 C14.58028833 0.09359939 18.31844293 0.09282635 22.05859375 0.0859375 C24.43490834 0.09643055 26.81121365 0.10936926 29.1875 0.125 C30.3053186 0.12520142 31.42313721 0.12540283 32.5748291 0.12561035 C34.14170471 0.14947815 34.14170471 0.14947815 35.74023438 0.17382812 C37.11326721 0.18645691 37.11326721 0.18645691 38.51403809 0.19934082 C41.66986243 0.68183117 43.55480977 1.67385991 46.09375 3.59375 C47.26555914 7.54860583 47.4985633 9.66267942 45.84375 13.46875 C44.09375 15.59375 44.09375 15.59375 41.09375 16.59375 C39.38186229 16.69623411 37.6663217 16.74219402 35.95141602 16.75488281 C34.90345352 16.76449036 33.85549103 16.7740979 32.77577209 16.78399658 C31.64449387 16.78824646 30.51321564 16.79249634 29.34765625 16.796875 C28.18499741 16.80257507 27.02233856 16.80827515 25.82444763 16.81414795 C23.36401276 16.8235985 20.90356524 16.83013215 18.44311523 16.83398438 C14.67474403 16.84370231 10.90691532 16.87473101 7.13867188 16.90625 C4.75000324 16.9127788 2.36133071 16.91802975 -0.02734375 16.921875 C-1.15659775 16.9342218 -2.28585175 16.9465686 -3.44932556 16.95928955 C-4.50044022 16.95628845 -5.55155487 16.95328735 -6.63452148 16.95019531 C-8.01993385 16.95566376 -8.01993385 16.95566376 -9.43333435 16.96124268 C-12.37918338 16.52346877 -13.74027355 15.60206635 -15.90625 13.59375 C-16.69140625 11.7265625 -16.69140625 11.7265625 -16.96875 9.71875 C-17.08347656 9.06132812 -17.19820312 8.40390625 -17.31640625 7.7265625 C-16.80554703 5.07009458 -15.68096573 3.52957478 -13.73875427 1.67184448 C-9.65179109 -0.73258782 -4.59754977 -0.06743316 0 0 Z " fill="#5FAA45" transform="translate(208.90625,239.40625)"/>
</svg>
