<?xml version="1.0" encoding="UTF-8"?>
<svg version="1.1" xmlns="http://www.w3.org/2000/svg" width="512" height="512">
<path d="M0 0 C2.40323083 0.97435521 3.74018917 2.25213423 5.56360579 4.09537059 C6.26402998 4.79602138 6.96445417 5.49667217 7.68610334 6.21855479 C8.80350904 7.35918628 8.80350904 7.35918628 9.9434886 8.52286083 C11.10029127 9.68603076 11.10029127 9.68603076 12.2804637 10.87269908 C14.7429707 13.35200399 17.19484493 15.84153449 19.6466136 18.33145458 C21.31389269 20.01377897 22.98185329 21.69542825 24.65051985 23.37637645 C28.74049262 27.49943332 32.82178281 31.63093516 36.8966136 35.76895458 C35.44521724 39.09702338 33.62612152 41.29234059 31.06969595 43.85593444 C30.26699967 44.66569632 29.46430338 45.47545819 28.63728297 46.30975831 C27.30773705 47.6356816 27.30773705 47.6356816 25.95133162 48.98839122 C25.00333244 49.94084261 24.05576508 50.89372397 23.10859334 51.84699821 C20.50299386 54.46678903 17.89115431 57.08028033 15.27823091 59.69276375 C12.4620725 62.51056927 9.65163491 65.33407103 6.84040022 68.15678722 C0.69300938 74.32703115 -5.46184081 80.48979851 -11.61813927 86.65115315 C-15.4597162 90.49598536 -19.29965764 94.34244806 -23.13924837 98.18926364 C-33.7646058 108.83418383 -44.39153862 119.47752395 -55.02522898 130.11412078 C-55.70570308 130.79478245 -56.38617717 131.47544412 -57.0872717 132.1767319 C-58.46681523 133.55664168 -59.84636004 134.93655019 -61.22590612 136.31645743 C-61.9107334 137.00146752 -62.59556068 137.68647762 -63.30114031 138.39224559 C-63.98680146 139.07808729 -64.67246261 139.76392899 -65.37890138 140.47055378 C-76.50160496 151.59680294 -87.61250914 162.73475496 -98.71829008 173.87789325 C-110.11307344 185.31070002 -121.51713339 196.73418221 -132.9307934 208.14814472 C-139.34210463 214.5600417 -145.74936686 220.97587238 -152.14653444 227.40188342 C-157.59077423 232.87055684 -163.04344348 238.33064339 -168.50745927 243.77956072 C-171.29707797 246.56197875 -174.08242838 249.34835376 -176.85713625 252.1456483 C-179.39406876 254.70303435 -181.94211892 257.24874938 -184.49977137 259.78540858 C-185.86708929 261.14752912 -187.22202206 262.52204665 -188.57656896 263.89686787 C-189.38448074 264.69359101 -190.19239252 265.49031415 -191.02478647 266.31118041 C-191.72086885 267.00807725 -192.41695123 267.70497409 -193.13412702 268.42298901 C-195.1033864 269.76895458 -195.1033864 269.76895458 -197.22096902 269.59845096 C-199.94096229 268.39987268 -201.62487961 266.63207988 -203.72919512 264.53755504 C-204.65328173 263.62481822 -205.57736834 262.71208141 -206.52945757 261.7716859 C-207.54620254 260.75229762 -208.56278335 259.73274558 -209.57921648 258.71304637 C-210.65470117 257.64490066 -211.73080726 256.5773803 -212.80748796 255.51044017 C-215.72964113 252.61052468 -218.64205876 249.70101508 -221.55216479 246.78901583 C-223.9802612 244.36079988 -226.41268097 241.93693743 -228.84500283 239.51295531 C-234.58037249 233.79682622 -240.30752253 228.07255041 -246.02990007 222.34341747 C-251.94021225 216.42645699 -257.86514407 210.52442743 -263.7972787 204.62935257 C-268.88567717 199.5715968 -273.96441429 194.50428012 -279.03556412 189.42923033 C-282.06641279 186.3963093 -285.10095638 183.36732561 -288.14502192 180.34766513 C-291.00514513 177.50971799 -293.85307075 174.66008191 -296.69191027 171.80084926 C-297.73773366 170.75160007 -298.78787268 169.70663284 -299.84250498 168.66623813 C-301.27732296 167.24946753 -302.69542716 165.81582857 -304.1124959 164.38130504 C-304.9120259 163.58248755 -305.7115559 162.78367006 -306.53531408 161.96064597 C-308.1033864 159.76895458 -308.1033864 159.76895458 -307.94169664 157.59421283 C-306.89316156 155.31123069 -305.60590125 153.87601511 -303.84044695 152.08609325 C-303.15270693 151.38244136 -302.46496691 150.67878947 -301.75638628 149.9538148 C-301.00851351 149.20574062 -300.26064074 148.45766643 -299.49010515 147.68692333 C-298.72414522 146.91334987 -297.95818529 146.13977641 -297.16901445 145.34276134 C-295.54791366 143.7108574 -293.92281901 142.08291262 -292.29406023 140.45865184 C-289.79694403 137.96250984 -287.32191112 135.44581066 -284.84752703 132.9271577 C-283.27135521 131.34578065 -281.69392309 129.76565854 -280.11510515 128.18692333 C-279.37330507 127.42872798 -278.63150499 126.67053264 -277.86722612 125.88936168 C-276.82143137 124.85752506 -276.82143137 124.85752506 -275.75450945 123.80484325 C-275.14463686 123.19291621 -274.53476427 122.58098918 -273.90641069 121.95051891 C-272.1033864 120.76895458 -272.1033864 120.76895458 -270.18922567 121.01912624 C-267.82577309 121.86875245 -266.69123359 122.81095927 -264.92693377 124.58464366 C-264.32403017 125.18342326 -263.72112658 125.78220287 -263.09995317 126.3991273 C-262.45043184 127.05943446 -261.80091051 127.71974162 -261.13170671 128.40005809 C-260.09207529 129.43903239 -260.09207529 129.43903239 -259.03144121 130.49899608 C-256.74094945 132.79157885 -254.46126825 135.09460699 -252.1815114 137.39786083 C-250.59604536 138.98892168 -249.00991594 140.57932174 -247.42314959 142.1690858 C-243.24738204 146.35631101 -239.08070152 150.55246708 -234.91582537 154.75052196 C-230.66476821 159.03225988 -226.40521226 163.30552423 -222.14635515 167.57950145 C-213.79034075 175.96769631 -205.443898 184.36534688 -197.1033864 192.76895458 C-194.0686497 191.41109021 -191.97839639 189.89017055 -189.63945055 187.53714782 C-188.9686246 186.86722047 -188.29779864 186.19729312 -187.60664463 185.50706494 C-186.51345771 184.4000236 -186.51345771 184.4000236 -185.39818621 183.27061778 C-184.61763227 182.48824487 -183.83707833 181.70587195 -183.03287125 180.89979076 C-180.41034337 178.26882816 -177.79503354 175.63080395 -175.17955828 172.99283153 C-173.30417261 171.10869937 -171.4283783 169.22498326 -169.55201006 167.34183055 C-165.50849782 163.28231018 -161.46839297 159.21942452 -157.43030596 155.15450794 C-151.05096925 148.73327528 -144.66186021 142.32181587 -138.27123308 135.91182262 C-136.08544907 133.7191589 -133.89974136 131.52641913 -131.71406603 129.33364707 C-131.16787773 128.78568712 -130.62168943 128.23772717 -130.05894998 127.67316237 C-123.84325518 121.43697596 -117.62989901 115.19846151 -111.41735125 108.95914012 C-110.84945507 108.38880139 -110.2815589 107.81846266 -109.69645375 107.23084094 C-100.48346898 97.97780661 -91.27640792 88.71889402 -82.07062262 79.45869783 C-72.62361771 69.9563359 -63.16705982 60.46355053 -53.70235348 50.97881985 C-47.86156751 45.12493444 -42.02893206 39.26315378 -36.2064091 33.39110192 C-32.21961372 29.37168518 -28.22388838 25.36129545 -24.220909 21.35799668 C-21.9091532 19.04547146 -19.60315923 16.72766336 -17.30507898 14.40153629 C-14.81755347 11.88487517 -12.31530092 9.38386681 -9.8085866 6.88634044 C-9.07979532 6.14162071 -8.35100404 5.39690099 -7.60012817 4.629614 C-6.59388924 3.63645783 -6.59388924 3.63645783 -5.56732225 2.62323791 C-4.99079676 2.04372967 -4.41427127 1.46422143 -3.82027531 0.86715233 C-2.1033864 -0.23104542 -2.1033864 -0.23104542 0 0 Z " fill="#000000" transform="translate(443.1033864021301,121.2310454249382)"/>
<path d="M0 0 C2.21895366 1.10087063 3.69792721 2.40493508 5.46345806 4.14633179 C6.16710995 4.83407181 6.87076183 5.52181183 7.5957365 6.23039246 C8.34381069 6.97826523 9.09188488 7.726138 9.86262798 8.49667358 C10.63620144 9.26263351 11.40977489 10.02859344 12.20678997 10.81776428 C13.83869391 12.43886508 15.46663869 14.06395972 17.09089947 15.69271851 C19.58704147 18.1898347 22.10374064 20.66486762 24.62239361 23.13925171 C26.20377065 24.71542353 27.78389277 26.29285564 29.36262798 27.87167358 C30.12082333 28.61347366 30.87901867 29.35527374 31.66018963 30.11955261 C32.34808071 30.81674911 33.03597179 31.51394562 33.74470806 32.23226929 C34.35663509 32.84214188 34.96856213 33.45201447 35.5990324 34.08036804 C36.78059673 35.88339233 36.78059673 35.88339233 36.66804409 37.65993404 C35.39746165 40.84331956 33.16541035 42.90141175 30.76300335 45.26174927 C30.23537067 45.79194522 29.70773799 46.32214118 29.16411644 46.86840367 C27.39155818 48.6459094 25.60847866 50.41247005 23.82527447 52.17929077 C22.55356293 53.45015624 21.28251132 54.72168237 20.01207256 55.99382019 C16.55818443 59.44857052 13.09511194 62.89398084 9.63034987 66.33782101 C6.01216605 69.9372754 2.40245281 73.54520378 -1.20815754 77.1522522 C-8.04803893 83.98280216 -14.89553306 90.80566757 -21.74577707 97.62582326 C-29.5435735 105.39010991 -37.33287256 113.16289732 -45.12146008 120.93641996 C-61.14465288 136.92823886 -77.17851779 152.90932186 -93.21940327 168.88339233 C-96.32490634 167.39898061 -98.45297073 165.89450917 -100.88639545 163.44345093 C-101.93703175 162.39258804 -101.93703175 162.39258804 -103.00889301 161.32049561 C-103.75383015 160.5652359 -104.49876728 159.8099762 -105.26627827 159.03182983 C-106.03748005 158.25779816 -106.80868183 157.48376648 -107.60325336 156.6862793 C-110.06337182 154.2149731 -112.51644175 151.73680051 -114.96940327 149.25839233 C-116.6369122 147.58085181 -118.30487559 145.90376289 -119.97330952 144.22714233 C-124.06062697 140.11778314 -128.14218023 136.00276586 -132.21940327 131.88339233 C-130.64145799 128.03451728 -128.04627428 125.42180115 -125.14643574 122.53627014 C-124.62485445 122.00945217 -124.10327316 121.48263421 -123.56588638 120.93985206 C-121.81728548 119.17625175 -120.06161058 117.41987113 -118.30582905 115.66342163 C-117.05056196 114.40053335 -115.79569915 113.13724311 -114.54121113 111.87358093 C-111.13294743 108.44336913 -107.71812981 105.01975596 -104.30141783 101.59796119 C-102.16863162 99.46153363 -100.03714999 97.32381326 -97.906106 95.18564796 C-90.47638153 87.73143379 -83.04095811 80.28295345 -75.60075092 72.83920288 C-68.65653154 65.89134238 -61.72557069 58.93044349 -54.80047715 51.96352452 C-48.85936532 45.98778657 -42.90873524 40.02164014 -36.95063484 34.06284076 C-33.38986545 30.50127633 -29.83323276 26.9357997 -26.2862711 23.36047935 C-22.95329521 20.00145253 -19.60870405 16.65445382 -16.254632 13.3164959 C-15.02315521 12.08684361 -13.79597414 10.85287254 -12.5733614 9.61440659 C-10.9089397 7.92971943 -9.22999997 6.26102177 -7.54633808 4.59559631 C-6.81879942 3.8482577 -6.81879942 3.8482577 -6.076563 3.08582133 C-2.76364251 -0.14520205 -2.76364251 -0.14520205 0 0 Z " fill="#000000" transform="translate(340.21940326690674,121.11660766601563)"/>
<path d="M0 0 C2.35788505 0.84323716 3.47537358 1.7694103 5.22933674 3.54169559 C5.82501453 4.13613972 6.42069233 4.73058384 7.03442097 5.34304142 C7.99692013 6.32643246 7.99692013 6.32643246 8.97886372 7.32968998 C9.66391987 8.01752064 10.34897602 8.7053513 11.05479145 9.41402531 C13.3209621 11.69249496 15.57654671 13.98117054 17.83262348 16.26963139 C19.40596539 17.85364838 20.98011927 19.43685925 22.55505085 21.01929569 C26.70388764 25.19094292 30.84452296 29.37062503 34.9826479 33.55289555 C41.60141146 40.24176034 48.22753359 46.92325836 54.86297512 53.59557819 C57.17898839 55.92828984 59.48846899 58.26733373 61.79757404 60.60688114 C63.21971739 62.03948749 64.64211302 63.47184345 66.06480122 64.90390873 C67.02426403 65.88122707 67.02426403 65.88122707 68.00310993 66.87828922 C71.18592271 70.06953715 74.13504296 72.51978865 78.08652973 74.74619389 C79.38783676 75.8853378 80.64856981 77.07232153 81.86704731 78.29966068 C82.9175703 79.35041027 82.9175703 79.35041027 83.98931599 80.42238712 C84.72909184 81.17248554 85.46886768 81.92258396 86.23106098 82.69541264 C87.00084782 83.46802937 87.77063465 84.2406461 88.56374836 85.03667545 C91.01358845 87.49768193 93.45637011 89.96556235 95.89902973 92.43369389 C97.56197999 94.10667849 99.22538632 95.77920988 100.88926411 97.45127201 C104.96031996 101.54434127 109.02560759 105.64307165 113.08652973 109.74619389 C111.70078253 112.8547047 110.0905299 115.00674462 107.71006489 117.42905521 C107.0224004 118.1327071 106.33473591 118.83635899 105.6262331 119.56133366 C104.88352161 120.30940784 104.14081013 121.05748203 103.37559223 121.82822514 C102.61104725 122.60179859 101.84650227 123.37537205 101.05878925 124.17238712 C99.44252355 125.8031465 97.82344311 127.43112029 96.20176411 129.05649662 C93.71558674 131.55461738 91.24866732 134.07077716 88.78184223 136.58799076 C87.21007715 138.16921442 85.63719784 139.74933146 84.06309223 141.32822514 C83.32442921 142.08642048 82.58576618 142.84461582 81.82471943 143.62578678 C81.13075062 144.31367786 80.43678181 145.00156895 79.72178364 145.71030521 C79.11492725 146.32223225 78.50807087 146.93415928 77.8828249 147.56462955 C76.08652973 148.74619389 76.08652973 148.74619389 74.2653265 148.58855915 C71.29590612 147.4405234 69.67632278 145.70444513 67.42948627 143.44991398 C66.49843067 142.52298237 65.56737507 141.59605076 64.60810566 140.64103031 C63.58352155 139.60582903 62.5590818 138.57048486 61.53477192 137.53501225 C60.45109626 136.4504904 59.36675963 135.36662865 58.28181171 134.28337955 C55.33737035 131.3397999 52.40227845 128.38705363 49.46875381 125.43259978 C46.40182124 122.34692978 43.32640667 119.26973771 40.25187397 116.19164371 C34.4306749 110.36111557 28.61716621 104.52298135 22.80636811 98.68208939 C16.19079451 92.03299869 9.56671344 85.39241146 2.94189692 78.75253189 C-10.68606024 65.09320615 -24.30327376 51.4232153 -37.91347027 37.74619389 C-36.45856485 34.71290877 -34.99325359 32.56240162 -32.6288023 30.15512943 C-31.96115856 29.4714983 -31.29351482 28.78786716 -30.60563946 28.08351994 C-29.88480175 27.35731953 -29.16396404 26.63111912 -28.42128277 25.88291264 C-27.67893383 25.13153522 -26.93658489 24.38015781 -26.17174053 23.60601139 C-24.6025527 22.02233162 -23.03055123 20.44143549 -21.45595074 18.86313725 C-19.04219499 16.43743704 -16.64771584 13.99371525 -14.25331402 11.54892826 C-12.72712191 10.01327765 -11.19981551 8.47873348 -9.67128277 6.94541264 C-8.5960989 5.84093029 -8.5960989 5.84093029 -7.49919415 4.71413517 C-6.82524609 4.04626484 -6.15129803 3.37839451 -5.4569273 2.69028568 C-4.86783581 2.09612354 -4.27874432 1.5019614 -3.67180157 0.88979435 C-1.91347027 -0.25380611 -1.91347027 -0.25380611 0 0 Z " fill="#000000" transform="translate(69.91347026824951,242.25380611419678)"/>
</svg>
